<?xml version="1.0" encoding="UTF-8" standalone="no"?>
<!-- Created with Inkscape (http://www.inkscape.org/) -->

<svg
   width="40mm"
   height="51.160343mm"
   viewBox="0 0 40 51.160343"
   version="1.1"
   id="svg3847"
   inkscape:version="1.4.2 (ebf0e940d0, 2025-05-08)"
   sodipodi:docname="Gmedia 16.svg"
   xmlns:inkscape="http://www.inkscape.org/namespaces/inkscape"
   xmlns:sodipodi="http://sodipodi.sourceforge.net/DTD/sodipodi-0.dtd"
   xmlns="http://www.w3.org/2000/svg"
   xmlns:svg="http://www.w3.org/2000/svg">
  <sodipodi:namedview
     id="namedview3849"
     pagecolor="#ffffff"
     bordercolor="#666666"
     borderopacity="1.0"
     inkscape:pageshadow="2"
     inkscape:pageopacity="0.0"
     inkscape:pagecheckerboard="0"
     inkscape:document-units="mm"
     showgrid="false"
     fit-margin-top="0"
     fit-margin-left="0"
     fit-margin-right="0"
     fit-margin-bottom="0"
     inkscape:zoom="1.8784635"
     inkscape:cx="77.456922"
     inkscape:cy="100.34797"
     inkscape:window-width="1280"
     inkscape:window-height="707"
     inkscape:window-x="0"
     inkscape:window-y="22"
     inkscape:window-maximized="0"
     inkscape:current-layer="g1399"
     inkscape:showpageshadow="2"
     inkscape:deskcolor="#d1d1d1" />
  <defs
     id="defs3844" />
  <g
     inkscape:label="Layer 1"
     inkscape:groupmode="layer"
     id="layer1"
     transform="translate(-28.235346,-78.798565)">
    <g
       id="g1173">
      <path
         d="M 29.149184,129.04447 H 67.317903 V 79.716008 H 29.149184 Z"
         style="fill:#ce7a06;fill-opacity:1;fill-rule:nonzero;stroke:none;stroke-width:3.00802"
         id="path1387" />
      <g
         id="g2"
         transform="matrix(0.0276951,0,0,0.0278488,27.810223,78.291138)">
        <path
           d="M 81.5,1498.5 81.462891,1788.75 1393.5,1789.5 v -291 z"
           id="path23" />
        <path
           d="m 292.7093,1630.4134 c 0,-8.7049 -3.7034,-12.7684 -13.05932,-12.7684 h -21.83051 c -7.01695,0 -11.30508,3.2897 -11.30508,11.0282 0,5.9965 3.11864,11.0265 10.52542,11.0265 h 10.72034 v 7.9327 c 0,17.0248 -3.31356,28.2457 -14.81356,28.2457 -14.42373,0 -17.34746,-13.1554 -17.34746,-47.0124 v -19.3462 c 0,-32.1149 6.82203,-37.7244 16.17797,-37.7244 10.52542,0 14.22881,6.1909 14.81356,12.1873 1.16949,11.9947 3.8983,16.6378 13.05932,16.6378 9.35592,0 13.05932,-5.9965 13.05932,-15.477 0,-16.251 -11.88983,-33.8552 -39.76271,-33.8552 -31.9661,0 -44.63559,16.8305 -44.63559,64.0354 v 14.1236 c 0,39.8534 6.62712,66.9382 37.42373,66.9382 11.88982,0 20.4661,-5.0301 26.11864,-15.0902 h 0.38983 v 3.675 c 0,6.3851 3.31355,11.4152 10.3305,11.4152 7.40678,0 10.1356,-4.0636 10.1356,-10.6414 z m 132.93201,-17.7986 c 0,-17.7986 -9.55085,-25.924 -22.80508,-25.924 -10.13559,0 -16.76271,3.0955 -23.77965,11.8021 -4.67798,-8.7066 -10.72035,-11.8021 -21.24577,-11.8021 -9.16101,0 -18.32203,4.4505 -22.22033,13.5425 h -0.38983 c 0,-9.092 -4.67798,-13.5425 -11.88983,-13.5425 -7.21188,0 -11.88984,4.4505 -11.88984,14.1237 v 81.447 c 0,9.6732 4.67796,14.1237 11.88984,14.1237 7.21185,0 11.88983,-4.4505 11.88983,-14.1237 v -56.2969 c 0,-13.1553 4.87287,-18.7666 12.27965,-18.7666 5.0678,0 9.16102,3.2897 9.16102,11.0282 v 64.0353 c 0,9.6732 4.67796,14.1237 11.88983,14.1237 7.21186,0 11.88982,-4.4505 11.88982,-14.1237 v -56.2969 c 0,-13.1553 4.87289,-18.7666 12.27967,-18.7666 5.06779,0 9.16101,3.2897 9.16101,11.0282 v 64.0353 c 0,9.6732 4.67797,14.1237 11.88984,14.1237 7.21186,0 11.88982,-4.4505 11.88982,-14.1237 z m 42.10187,15.4771 v -8.705 c 0,-7.9328 2.5339,-14.1236 10.33051,-14.1236 7.7966,0 10.3305,6.1908 10.3305,14.1236 v 8.705 z m -24.94915,24.3763 c 0,26.6979 3.8983,43.917 36.25422,43.917 19.29662,0 32.35594,-11.4152 32.35594,-30.3745 0,-9.2863 -5.06779,-11.6079 -12.08474,-11.6079 -6.62713,0 -11.30509,2.3216 -11.69492,12.576 -0.19578,5.6095 -4.09322,10.834 -9.16101,10.834 -9.74577,0 -10.72034,-9.8675 -10.72034,-22.4418 v -10.6414 h 31.18644 c 12.08474,0 13.25423,-7.3515 13.25423,-16.8302 0,-27.4718 -8.38136,-41.2086 -33.1356,-41.2086 -32.35592,0 -36.25422,17.2191 -36.25422,43.917 z m 108.76269,-16.8304 c 0,-23.023 2.14408,-29.4063 10.1356,-29.4063 5.65254,0 11.69491,4.2562 11.69491,25.3428 v 19.7332 c 0,14.8975 -2.5339,25.5371 -11.88982,25.5371 -8.77119,0 -9.94069,-10.06 -9.94069,-27.4717 z m -24.94914,19.9259 c 0,21.4752 3.8983,40.8215 25.33898,40.8215 8.9661,0 16.76271,-3.8693 21.05084,-12.189 h 0.38983 c 0,6.9647 4.87288,12.189 11.88983,12.189 7.21186,0 11.88982,-4.4505 11.88982,-14.1237 v -116.0777 c 0,-9.6732 -4.67796,-14.122 -11.88982,-14.122 -7.21187,0 -11.88983,4.4488 -11.88983,14.122 v 32.6961 h -0.38983 c -4.28813,-7.9329 -12.27966,-12.1891 -21.05084,-12.1891 -21.44068,0 -25.33898,19.3463 -25.33898,40.8216 z m 93.55913,26.6978 c 0,9.6732 4.67796,14.1237 11.88984,14.1237 7.21185,0 11.88982,-4.4505 11.88982,-14.1237 v -81.447 c 0,-9.6732 -4.67797,-14.1237 -11.88982,-14.1237 -7.21188,0 -11.88984,4.4505 -11.88984,14.1237 z m -1.75424,-117.4311 c 0,7.5442 6.04237,13.5425 13.64408,13.5425 7.60168,0 13.64405,-5.9983 13.64405,-13.5425 0,-7.5458 -6.04237,-13.5424 -13.64405,-13.5424 -7.60171,0 -13.64408,5.9966 -13.64408,13.5424 z m 114.02542,52.8146 c 0,-17.0248 -3.50847,-30.9542 -35.27966,-30.9542 -18.32203,0 -33.13559,9.6732 -33.13559,27.8587 0,7.159 7.21187,9.6732 12.47457,9.6732 6.23729,0 10.72035,-2.9011 11.30508,-7.5442 0.97372,-8.3198 3.50848,-12.3816 11.69493,-12.3816 6.04237,0 9.161,4.8356 9.161,10.4469 0,4.4488 -2.33897,8.318 -7.60168,11.0266 l -21.24576,11.0282 c -12.47457,6.5777 -16.95763,15.6696 -16.95763,31.5335 0,19.7333 10.52543,28.0531 24.55932,28.0531 8.57627,0 17.34745,-3.6766 21.6356,-13.1555 l 0.38983,-0.1892 c 0,10.2545 6.04237,13.3498 12.47457,13.3498 7.60169,0 11.88983,-3.0953 11.88983,-9.2863 0,-3.2897 -1.36528,-8.8992 -1.36528,-15.6712 z m -23.77967,40.6271 c 0,11.0283 -4.67796,19.5407 -12.47457,19.5407 -5.06779,0 -8.38136,-4.4505 -8.38136,-12.3817 0,-8.8993 1.94916,-12.5759 12.47459,-19.9275 l 8.38134,-5.8039 z m 41.90679,23.4098 c 0,8.1255 6.62712,14.7033 14.81356,14.7033 8.18643,0 14.81355,-6.5778 14.81355,-14.7033 0,-8.1254 -6.62712,-14.7031 -14.81355,-14.7031 -8.18644,0 -14.81356,6.5777 -14.81356,14.7031 z m 71.33897,-52.4292 c 0,-17.0248 3.8983,-23.0212 10.5254,-23.0212 4.4831,0 11.3051,4.2562 11.3051,25.3428 v 18.3798 c 0,21.0866 -6.0424,25.3428 -11.6949,25.3428 -7.9915,0 -10.1356,-6.3834 -10.1356,-29.4064 z m -24.94915,23.7968 c 0,21.4735 3.8983,40.8197 25.33895,40.8197 10.1356,0 15.5933,-2.1271 21.0509,-11.8003 h 0.3898 v 14.5088 c 0,14.1237 -2.1441,20.7014 -12.4746,20.7014 -2.9237,0 -6.2373,-1.7419 -8.1864,-6.3851 -1.5593,-3.675 -5.0678,-6.9647 -10.5254,-6.9647 -6.82206,0 -11.88985,3.8693 -11.88985,10.447 0,13.7368 13.44915,19.5407 31.18645,19.5407 23.7796,0 35.6695,-10.447 35.6695,-34.2438 v -98.8587 c 0,-9.6732 -4.678,-14.1237 -11.3051,-14.1237 -7.4068,0 -11.6949,4.4505 -11.6949,14.1237 h -0.3899 c -3.7034,-9.0936 -12.6694,-14.1237 -21.8305,-14.1237 -20.07624,0 -25.33895,19.3463 -25.33895,39.2738 z m 114.41525,-24.1838 c 0,-18.9593 3.8983,-23.6024 10.9152,-23.6024 7.017,0 10.9153,4.6431 10.9153,23.6024 v 24.9576 c 0,19.3463 -3.1187,23.9895 -10.9153,23.9895 -7.7966,0 -10.9152,-4.6432 -10.9152,-23.9895 z m -24.9492,26.8923 c 0,22.4417 7.4068,40.6272 35.8644,40.6272 28.4577,0 35.86451,-18.1855 35.86451,-40.6272 v -28.4399 c 0,-22.4418 -7.40681,-40.6273 -35.86451,-40.6273 -28.4576,0 -35.8644,18.1855 -35.8644,40.6273 z m 103.11021,25.7297 c 2.3389,10.0601 5.0678,14.8975 17.73731,14.8975 11.6949,0 15.0085,-3.8693 16.7626,-10.6414 l 19.1018,-80.8675 c 0.7796,-2.9011 1.1695,-5.2226 1.1695,-8.1254 0,-4.8356 -3.3136,-10.0601 -11.6949,-10.0601 -8.1864,0 -11.1102,4.6432 -12.4746,12.3816 l -11.8898,68.6802 h -0.3898 l -12.47471,-68.6802 c -1.5592,-8.8992 -5.4575,-12.3816 -13.449,-12.3816 -6.2373,0 -12.0848,3.8693 -12.0848,10.834 0,1.742 0.3898,3.0954 0.9753,5.417 z m 56.91531,0.1891 c 0,8.1255 6.6271,14.7033 14.8135,14.7033 8.1864,0 14.8135,-6.5778 14.8135,-14.7033 0,-8.1254 -6.6271,-14.7032 -14.8135,-14.7032 -8.1864,0 -14.8135,6.5778 -14.8135,14.7032 z m 79.3304,-25.7314 c 6.6272,5.03 8.3815,7.9328 8.3815,13.1556 0,6.1906 -3.1187,9.673 -9.356,9.673 -7.4068,0 -9.9407,-4.0618 -10.3305,-8.5123 -0.7797,-9.8658 -3.7034,-14.5089 -12.4747,-14.5089 -5.6524,0 -11.305,2.9011 -11.305,11.8004 0,12.189 7.2118,28.8269 32.7458,28.8269 19.4915,0 34.4999,-10.2544 34.4999,-30.7615 0,-14.122 -7.7966,-21.0866 -22.6101,-32.1148 l -14.6186,-11.0265 c -3.8983,-2.9028 -5.2628,-6.5778 -5.2628,-10.0601 0,-5.0301 3.3136,-8.1256 8.1865,-8.1256 6.0423,0 9.9406,3.4824 10.3304,10.6396 0.39,5.804 3.3136,9.0937 9.7458,9.0937 9.5509,0 12.4747,-4.6431 12.4747,-11.6077 0,-8.5125 -6.6272,-25.7315 -31.9661,-25.7315 -19.1018,0 -32.5509,9.2863 -32.5509,28.2455 0,11.0282 2.3389,17.6061 15.983,27.6661 z m 115.1947,-38.3056 c 0,-17.0248 -3.5084,-30.9541 -35.2796,-30.9541 -18.322,0 -33.1356,9.6732 -33.1356,27.8586 0,7.159 7.2119,9.6732 12.4747,9.6732 6.2372,0 10.7203,-2.9011 11.305,-7.5441 0.9754,-8.3199 3.5085,-12.3818 11.6949,-12.3818 6.0424,0 9.1611,4.8358 9.1611,10.4471 0,4.4487 -2.3391,8.318 -7.6018,11.0265 l -21.2458,11.0283 c -12.4745,6.5776 -16.9575,15.6696 -16.9575,31.5335 0,19.7332 10.5254,28.0531 24.5593,28.0531 8.5762,0 17.3474,-3.6768 21.6356,-13.1556 l 0.3898,-0.1891 c 0,10.2543 6.0424,13.3498 12.4745,13.3498 7.6017,0 11.8899,-3.0955 11.8899,-9.2862 0,-3.2897 -1.3653,-8.8993 -1.3653,-15.6714 z m -23.7795,40.6272 c 0,11.0282 -4.6781,19.5405 -12.4747,19.5405 -5.0677,0 -8.3813,-4.4504 -8.3813,-12.3815 0,-8.8993 1.9491,-12.576 12.4745,-19.9275 l 8.3815,-5.804 z"
           id="text4"
           style="font-weight:bold;font-stretch:condensed;font-size:11.25px;font-family:'Helvetica Rounded Condensed';-inkscape-font-specification:'Helvetica Rounded Condensed, Bold Condensed';white-space:pre;fill:#ffffff;fill-rule:evenodd;stroke-width:191.599;stroke-miterlimit:5"
           aria-label="Gmedia.gov.sa" />
      </g>
      <g
         id="g1397"
         transform="matrix(3.0080163,0,0,-3.0080163,-212.51786,668.85707)">
        <g
           id="g1399"
           clip-path="none">
          <g
             id="g1405"
             transform="translate(93.0307,179.4585)">
            <path
               style="baseline-shift:baseline;display:inline;overflow:visible;opacity:1;vector-effect:none;fill:#ffffff;stroke-miterlimit:10;enable-background:accumulate;stop-color:#000000;stop-opacity:1"
               d="M -12.994141,-0.3046875 V 16.703125 H 0.3046875 V -0.3046875 Z m 0.609349,0.60934404 12.08005429,0 5.021e-5,15.78909346 H -12.384766 Z"
               id="path1407"
               sodipodi:nodetypes="cccccccccc" />
          </g>
          <g
             id="g1409"
             transform="translate(81.9789,192.6535)">
            <path
               d="m 0,0 c 0.027,-0.001 0.051,0 0.072,0 0.02,0.001 0.038,0.003 0.053,0.006 0.016,0.003 0.029,0.008 0.041,0.013 0.012,0.005 0.024,0.012 0.036,0.021 0.012,0.008 0.022,0.017 0.031,0.027 0.009,0.011 0.016,0.022 0.022,0.036 0.006,0.014 0.01,0.03 0.013,0.048 0.004,0.019 0.005,0.04 0.005,0.065 v 0.85 H 0.475 V 0.307 h 0.15 V 0.152 H 0.474 C 0.472,0.115 0.467,0.084 0.458,0.057 0.449,0.03 0.438,0.007 0.427,-0.012 0.415,-0.031 0.402,-0.047 0.39,-0.059 0.377,-0.071 0.366,-0.081 0.357,-0.089 0.32,-0.115 0.273,-0.134 0.216,-0.145 0.158,-0.156 0.087,-0.159 0,-0.156 Z"
               style="fill:#ffffff;fill-opacity:1;fill-rule:nonzero;stroke:none"
               id="path1411" />
          </g>
          <g
             id="g1413"
             transform="translate(83.3192,192.7951)">
            <path
               d="M 0,0 C -0.028,0 -0.058,0.001 -0.09,0.003 -0.123,0.004 -0.156,0.008 -0.188,0.015 -0.221,0.021 -0.253,0.031 -0.284,0.044 -0.316,0.057 -0.344,0.075 -0.369,0.098 -0.371,0.099 -0.373,0.101 -0.377,0.105 -0.396,0.084 -0.417,0.068 -0.44,0.056 -0.462,0.043 -0.486,0.034 -0.51,0.027 -0.533,0.02 -0.557,0.016 -0.582,0.014 -0.606,0.011 -0.629,0.01 -0.651,0.01 h -0.09 v 0.155 h 0.034 c 0.013,0 0.029,0.001 0.046,0.002 0.018,0.001 0.035,0.005 0.053,0.01 0.018,0.006 0.035,0.016 0.051,0.028 0.016,0.013 0.03,0.031 0.041,0.054 0.005,0.01 0.011,0.027 0.017,0.049 0.006,0.022 0.01,0.054 0.013,0.097 -0.001,0.012 -0.001,0.022 -0.001,0.032 v 0.027 c 0,0.026 0.001,0.055 0.003,0.088 0.002,0.033 0.008,0.067 0.016,0.101 0.008,0.035 0.02,0.068 0.035,0.101 0.016,0.032 0.037,0.061 0.064,0.085 0.025,0.023 0.053,0.042 0.085,0.055 0.031,0.012 0.063,0.022 0.096,0.028 0.032,0.006 0.065,0.01 0.098,0.012 0.032,0.001 0.062,0.002 0.09,0.002 0.028,0 0.057,-0.001 0.09,-0.002 C 0.122,0.932 0.155,0.928 0.188,0.922 0.22,0.916 0.253,0.906 0.284,0.894 0.316,0.881 0.344,0.862 0.369,0.839 0.396,0.815 0.417,0.786 0.433,0.754 0.448,0.721 0.46,0.688 0.468,0.654 0.476,0.62 0.481,0.587 0.483,0.555 0.485,0.523 0.486,0.495 0.486,0.471 0.486,0.401 0.48,0.341 0.469,0.291 0.457,0.241 0.441,0.199 0.421,0.165 H 0.583 V 0.01 H 0.267 Z M -0.221,0.707 C -0.238,0.686 -0.251,0.663 -0.258,0.637 -0.266,0.612 -0.271,0.586 -0.274,0.559 -0.276,0.532 -0.277,0.505 -0.276,0.479 c 0,-0.027 0,-0.052 -0.001,-0.075 0.001,-0.031 0.006,-0.061 0.014,-0.09 C -0.255,0.284 -0.24,0.256 -0.219,0.231 -0.204,0.214 -0.188,0.201 -0.17,0.19 -0.152,0.18 -0.134,0.173 -0.115,0.168 -0.096,0.163 -0.077,0.159 -0.057,0.158 -0.038,0.156 -0.018,0.155 0,0.155 c 0.019,0 0.038,0.001 0.058,0.003 0.019,0.001 0.038,0.005 0.057,0.01 0.018,0.005 0.036,0.012 0.054,0.022 0.017,0.011 0.033,0.024 0.048,0.041 0.016,0.017 0.027,0.035 0.035,0.053 0.009,0.019 0.015,0.039 0.019,0.059 0.004,0.02 0.006,0.041 0.006,0.062 0.001,0.02 0.001,0.041 0.001,0.061 V 0.521 C 0.278,0.536 0.277,0.552 0.276,0.569 0.274,0.585 0.271,0.602 0.266,0.618 0.262,0.635 0.256,0.651 0.248,0.666 0.241,0.681 0.231,0.695 0.219,0.707 0.204,0.724 0.188,0.736 0.17,0.746 0.152,0.756 0.134,0.763 0.115,0.768 0.096,0.773 0.076,0.776 0.057,0.778 0.038,0.779 0.019,0.78 0,0.78 -0.016,0.78 -0.034,0.779 -0.054,0.778 -0.074,0.776 -0.094,0.773 -0.114,0.768 -0.134,0.763 -0.153,0.756 -0.172,0.746 -0.191,0.736 -0.207,0.724 -0.221,0.707"
               style="fill:#ffffff;fill-opacity:1;fill-rule:nonzero;stroke:none"
               id="path1415" />
          </g>
          <g
             id="g1417"
             transform="translate(84.6291,193.7224)">
            <path
               d="m 0,0 c 0.012,0 0.026,-0.001 0.04,-0.002 0.015,-0.001 0.03,-0.004 0.046,-0.009 0.015,-0.004 0.03,-0.01 0.046,-0.018 0.015,-0.008 0.03,-0.019 0.044,-0.033 0.015,-0.014 0.026,-0.03 0.035,-0.047 C 0.219,-0.126 0.226,-0.144 0.23,-0.163 0.234,-0.181 0.237,-0.2 0.238,-0.22 0.239,-0.24 0.239,-0.259 0.239,-0.278 0.237,-0.332 0.231,-0.381 0.218,-0.426 0.206,-0.471 0.19,-0.513 0.171,-0.553 0.151,-0.592 0.13,-0.628 0.106,-0.663 0.082,-0.697 0.058,-0.73 0.035,-0.762 h 0.273 v -0.155 h -1.054 v 0.155 h 0.265 c -0.024,0.032 -0.048,0.065 -0.072,0.099 -0.023,0.035 -0.045,0.071 -0.064,0.11 -0.02,0.04 -0.036,0.082 -0.048,0.127 -0.012,0.045 -0.019,0.094 -0.02,0.148 -0.001,0.019 -0.001,0.038 0.001,0.058 0.001,0.02 0.003,0.039 0.008,0.057 0.004,0.019 0.01,0.037 0.018,0.054 0.009,0.017 0.02,0.033 0.035,0.047 0.014,0.014 0.029,0.025 0.044,0.033 0.016,0.008 0.031,0.014 0.047,0.018 0.015,0.005 0.03,0.008 0.045,0.009 C -0.473,-0.001 -0.459,0 -0.447,0 Z m -0.474,-0.336 c 0.003,-0.021 0.009,-0.044 0.018,-0.069 0.01,-0.024 0.022,-0.05 0.037,-0.076 0.014,-0.027 0.03,-0.053 0.048,-0.08 0.017,-0.027 0.035,-0.053 0.052,-0.078 0.018,-0.025 0.035,-0.048 0.051,-0.069 0.016,-0.021 0.03,-0.039 0.041,-0.054 h 0.006 c 0.011,0.015 0.025,0.033 0.041,0.054 0.017,0.021 0.034,0.044 0.051,0.069 0.018,0.025 0.036,0.051 0.053,0.078 0.018,0.027 0.034,0.053 0.048,0.08 0.015,0.026 0.027,0.052 0.037,0.077 0.01,0.025 0.016,0.047 0.018,0.068 0.001,0.013 0.002,0.026 0.003,0.041 0,0.015 0,0.028 -10e-4,0.042 -0.001,0.013 -0.002,0.025 -0.005,0.036 -0.002,0.01 -0.005,0.018 -0.009,0.023 -0.02,0.025 -0.056,0.037 -0.106,0.037 h -0.265 c -0.05,0 -0.086,-0.012 -0.106,-0.037 -0.004,-0.005 -0.008,-0.013 -0.01,-0.023 -0.002,-0.011 -0.003,-0.023 -0.004,-0.036 -0.001,-0.014 -0.001,-0.027 0,-0.042 0,-0.015 0.001,-0.028 0.002,-0.041"
               style="fill:#ffffff;fill-opacity:1;fill-rule:nonzero;stroke:none"
               id="path1419" />
          </g>
          <g
             id="g1421"
             transform="translate(84.9199,192.8061)">
            <path
               d="m 0,0 v 0.155 h 0.099 c 0.037,0 0.067,0.004 0.09,0.013 C 0.211,0.176 0.23,0.19 0.244,0.21 0.261,0.232 0.271,0.257 0.276,0.285 0.28,0.313 0.282,0.342 0.282,0.373 V 1.208 H 0.484 V 0.312 C 0.484,0.28 0.481,0.252 0.477,0.228 0.472,0.203 0.465,0.181 0.457,0.162 0.449,0.143 0.44,0.126 0.429,0.112 0.418,0.097 0.406,0.085 0.394,0.074 0.376,0.057 0.357,0.044 0.337,0.034 0.317,0.024 0.296,0.017 0.275,0.012 0.253,0.007 0.231,0.004 0.209,0.002 0.187,0.001 0.163,0 0.139,0 Z"
               style="fill:#ffffff;fill-opacity:1;fill-rule:nonzero;stroke:none"
               id="path1423" />
          </g>
          <g
             id="g1425"
             transform="translate(86.2728,192.8053)">
            <path
               d="m 0,0 c -0.021,0 -0.045,0.001 -0.07,0.003 -0.025,0.001 -0.05,0.006 -0.076,0.014 -0.026,0.008 -0.051,0.021 -0.077,0.037 -0.026,0.017 -0.049,0.04 -0.071,0.07 -0.017,0.022 -0.031,0.046 -0.041,0.072 -0.01,0.026 -0.017,0.052 -0.022,0.08 -0.005,0.027 -0.009,0.055 -0.01,0.084 -0.001,0.029 -0.002,0.058 -0.002,0.088 V 0.717 H -0.16 L -0.161,0.443 c 0,-0.038 0.002,-0.075 0.005,-0.111 C -0.153,0.297 -0.142,0.265 -0.125,0.237 -0.116,0.222 -0.106,0.209 -0.094,0.199 -0.082,0.188 -0.068,0.18 -0.051,0.173 -0.035,0.167 -0.016,0.162 0.005,0.159 0.027,0.157 0.052,0.155 0.079,0.155 L 0.54,0.156 c 0.038,0 0.068,0.004 0.091,0.013 0.022,0.008 0.041,0.022 0.055,0.042 0.015,0.021 0.025,0.045 0.03,0.071 0.005,0.027 0.008,0.055 0.008,0.084 0,0.001 0,0.003 0,0.006 -0.001,0.003 -0.001,0.01 -0.001,0.021 v 0.05 0.094 c 0,0.04 0,0.091 0.001,0.153 0,0.061 0,0.137 0,0.225 H 0.926 V 0.389 L 0.93,0.264 C 0.937,0.24 0.947,0.22 0.962,0.206 0.976,0.192 0.993,0.181 1.012,0.173 1.03,0.166 1.05,0.161 1.071,0.158 1.091,0.156 1.111,0.155 1.13,0.155 H 1.152 V 0 H 1.069 C 1.049,0 1.029,0.001 1.009,0.002 0.988,0.003 0.967,0.006 0.947,0.011 0.926,0.015 0.905,0.022 0.885,0.032 0.866,0.041 0.847,0.053 0.829,0.069 0.811,0.053 0.793,0.041 0.773,0.032 0.754,0.023 0.734,0.016 0.713,0.011 0.692,0.007 0.671,0.004 0.649,0.003 0.627,0.001 0.604,0.001 0.581,0.001 Z M 0.156,-0.14 H 0.357 V -0.301 H 0.156 Z"
               style="fill:#ffffff;fill-opacity:1;fill-rule:nonzero;stroke:none"
               id="path1427" />
          </g>
          <g
             id="g1429"
             transform="translate(87.753,192.9595)">
            <path
               d="M 0,0 H 0.348 V 0.759 H 0.55 V 0 H 0.738 C 0.747,0 0.757,0 0.768,0.001 0.779,0.002 0.789,0.004 0.8,0.007 0.811,0.01 0.822,0.014 0.832,0.019 0.843,0.025 0.852,0.033 0.861,0.043 0.869,0.052 0.876,0.062 0.881,0.073 0.886,0.084 0.89,0.095 0.893,0.107 0.895,0.118 0.897,0.13 0.898,0.141 0.899,0.152 0.899,0.163 0.899,0.173 V 0.759 H 1.101 V 0.142 C 1.101,0.096 1.094,0.053 1.08,0.014 1.066,-0.025 1.045,-0.057 1.018,-0.083 1.001,-0.098 0.983,-0.11 0.963,-0.12 0.942,-0.129 0.922,-0.137 0.901,-0.142 0.881,-0.147 0.861,-0.15 0.84,-0.152 0.82,-0.154 0.802,-0.155 0.785,-0.155 H -0.351 V 0 h 0.149 V 0.759 H 0 Z"
               style="fill:#ffffff;fill-opacity:1;fill-rule:nonzero;stroke:none"
               id="path1431" />
          </g>
          <g
             id="g1433"
             transform="translate(89.3318,192.8061)">
            <path
               d="m 0,0 c -0.024,0 -0.048,0.001 -0.07,0.002 -0.022,0.002 -0.044,0.005 -0.066,0.01 -0.021,0.005 -0.042,0.012 -0.062,0.022 -0.02,0.01 -0.039,0.023 -0.057,0.04 -0.012,0.011 -0.024,0.023 -0.035,0.038 -0.011,0.014 -0.02,0.031 -0.028,0.05 -0.008,0.019 -0.015,0.041 -0.02,0.066 -0.004,0.024 -0.007,0.052 -0.007,0.084 v 0.896 h 0.202 V 0.373 c 0,-0.031 0.002,-0.06 0.006,-0.088 C -0.132,0.257 -0.122,0.232 -0.105,0.21 -0.091,0.19 -0.072,0.176 -0.05,0.168 -0.027,0.159 0.003,0.155 0.04,0.155 H 0.139 V 0 Z"
               style="fill:#ffffff;fill-opacity:1;fill-rule:nonzero;stroke:none"
               id="path1435" />
          </g>
          <g
             id="g1437"
             transform="translate(89.4549,192.8061)">
            <path
               d="m 0,0 v 0.155 h 0.02 c 0.038,0 0.068,0.004 0.09,0.013 0.023,0.008 0.041,0.022 0.056,0.042 0.015,0.021 0.025,0.045 0.03,0.072 0.005,0.026 0.007,0.054 0.008,0.083 -10e-4,0.004 -10e-4,0.008 -10e-4,0.011 0,0.004 0,0.008 0,0.012 H 0.204 V 0.915 H 0.405 V 0.388 L 0.41,0.263 C 0.416,0.239 0.427,0.22 0.442,0.205 0.456,0.191 0.473,0.18 0.491,0.172 0.51,0.165 0.53,0.16 0.55,0.158 0.571,0.155 0.591,0.154 0.609,0.154 H 0.631 V -0.001 H 0.549 C 0.529,-0.001 0.509,0 0.488,0.001 0.468,0.003 0.447,0.006 0.427,0.01 0.406,0.015 0.385,0.021 0.365,0.031 0.345,0.04 0.327,0.053 0.309,0.068 0.291,0.053 0.273,0.04 0.253,0.031 0.234,0.022 0.214,0.015 0.193,0.011 0.172,0.006 0.151,0.003 0.129,0.002 0.107,0.001 0.084,0 0.061,0 Z M 0.201,1.208 H 0.402 V 1.047 H 0.201 Z"
               style="fill:#ffffff;fill-opacity:1;fill-rule:nonzero;stroke:none"
               id="path1439" />
          </g>
          <g
             id="g1441"
             transform="translate(90.0643,192.8053)">
            <path
               d="m 0,0 v 0.155 h 0.034 c 0.013,0 0.029,0.001 0.046,0.002 0.018,0.001 0.035,0.004 0.053,0.01 C 0.15,0.173 0.167,0.182 0.184,0.195 0.2,0.208 0.214,0.226 0.225,0.249 0.23,0.259 0.236,0.276 0.242,0.298 0.248,0.319 0.252,0.352 0.255,0.395 0.254,0.407 0.254,0.417 0.254,0.427 v 0.027 c 0,0.026 0.001,0.055 0.003,0.088 0.002,0.033 0.008,0.067 0.016,0.101 0.008,0.034 0.02,0.068 0.035,0.1 0.016,0.033 0.037,0.061 0.064,0.086 0.025,0.023 0.053,0.041 0.084,0.054 0.032,0.013 0.064,0.023 0.097,0.029 0.032,0.006 0.065,0.01 0.098,0.011 0.032,0.002 0.062,0.003 0.09,0.003 0.027,0 0.057,-0.001 0.09,-0.003 C 0.863,0.922 0.896,0.918 0.928,0.912 0.961,0.906 0.994,0.896 1.025,0.883 1.056,0.87 1.085,0.852 1.11,0.829 1.137,0.804 1.158,0.776 1.174,0.743 1.189,0.711 1.201,0.678 1.209,0.644 1.217,0.61 1.222,0.577 1.224,0.545 1.226,0.512 1.227,0.485 1.227,0.461 1.227,0.412 1.224,0.368 1.218,0.329 1.213,0.29 1.204,0.255 1.194,0.225 1.184,0.195 1.171,0.168 1.157,0.145 1.143,0.123 1.127,0.103 1.11,0.088 1.086,0.065 1.058,0.047 1.026,0.034 0.995,0.021 0.962,0.011 0.928,0.005 0.894,-0.002 0.861,-0.006 0.829,-0.008 0.796,-0.009 0.767,-0.01 0.741,-0.01 0.713,-0.01 0.683,-0.009 0.651,-0.008 0.618,-0.006 0.585,-0.002 0.553,0.005 0.52,0.011 0.488,0.021 0.456,0.034 0.425,0.047 0.397,0.065 0.372,0.088 0.37,0.089 0.368,0.091 0.364,0.094 0.345,0.074 0.324,0.058 0.301,0.046 0.279,0.033 0.255,0.024 0.231,0.017 0.208,0.01 0.183,0.006 0.159,0.003 0.135,0.001 0.112,0 0.09,0 Z M 0.52,0.697 C 0.503,0.676 0.49,0.652 0.483,0.627 0.475,0.602 0.47,0.576 0.467,0.549 0.465,0.522 0.464,0.495 0.464,0.469 0.465,0.442 0.465,0.417 0.464,0.394 0.465,0.363 0.47,0.333 0.478,0.303 0.486,0.274 0.5,0.246 0.522,0.221 0.537,0.204 0.553,0.191 0.571,0.18 0.589,0.17 0.607,0.163 0.626,0.158 0.645,0.153 0.664,0.149 0.684,0.148 0.703,0.146 0.722,0.145 0.741,0.145 0.76,0.145 0.779,0.146 0.799,0.148 0.818,0.149 0.837,0.153 0.856,0.158 0.874,0.163 0.892,0.17 0.91,0.18 0.927,0.191 0.943,0.204 0.958,0.221 0.974,0.238 0.985,0.256 0.993,0.274 1.002,0.293 1.008,0.313 1.012,0.333 1.015,0.353 1.018,0.374 1.018,0.394 1.019,0.415 1.019,0.436 1.019,0.456 V 0.511 C 1.019,0.526 1.018,0.542 1.017,0.558 1.015,0.575 1.012,0.592 1.007,0.608 1.003,0.625 0.997,0.641 0.989,0.656 0.982,0.671 0.972,0.685 0.96,0.697 0.945,0.713 0.928,0.726 0.911,0.736 0.893,0.745 0.875,0.753 0.856,0.758 0.837,0.763 0.817,0.766 0.798,0.767 0.778,0.769 0.759,0.77 0.741,0.77 0.725,0.77 0.706,0.769 0.687,0.767 0.667,0.766 0.647,0.763 0.627,0.758 0.607,0.753 0.588,0.745 0.569,0.736 0.55,0.726 0.534,0.713 0.52,0.697"
               style="fill:#ffffff;fill-opacity:1;fill-rule:nonzero;stroke:none"
               id="path1443" />
          </g>
          <g
             id="g1445"
             transform="translate(83.8367,183.5717)">
            <path
               d="m 0,0 c -0.062,0 -0.118,0.009 -0.167,0.027 -0.048,0.017 -0.09,0.041 -0.125,0.07 -0.035,0.028 -0.062,0.061 -0.084,0.098 -0.021,0.036 -0.035,0.073 -0.042,0.111 l 0.151,0.075 C -0.264,0.36 -0.256,0.337 -0.243,0.311 -0.229,0.285 -0.21,0.26 -0.185,0.237 -0.161,0.214 -0.13,0.194 -0.093,0.179 -0.056,0.163 -0.012,0.155 0.039,0.155 h 0.25 c 0.011,0 0.024,0.001 0.038,0.001 0.013,0.001 0.028,0.003 0.045,0.005 0.032,0.004 0.061,0.016 0.086,0.035 0.029,0.026 0.047,0.061 0.054,0.106 H 0.187 C 0.164,0.302 0.14,0.303 0.115,0.305 0.089,0.307 0.064,0.312 0.04,0.319 0.016,0.327 -0.008,0.339 -0.03,0.354 -0.052,0.37 -0.072,0.391 -0.089,0.419 -0.137,0.492 -0.16,0.61 -0.16,0.773 c 0,0.072 0.006,0.136 0.018,0.193 0.012,0.057 0.039,0.108 0.079,0.151 0.021,0.023 0.043,0.042 0.067,0.055 0.023,0.014 0.047,0.024 0.071,0.03 0.024,0.007 0.048,0.011 0.073,0.012 0.024,0.002 0.047,0.002 0.07,0.002 H 0.513 C 0.54,1.216 0.566,1.215 0.591,1.211 0.616,1.208 0.64,1.198 0.662,1.18 0.685,1.16 0.7,1.138 0.706,1.114 0.712,1.09 0.716,1.067 0.716,1.048 V 0.405 C 0.716,0.346 0.711,0.292 0.701,0.241 0.691,0.191 0.671,0.147 0.641,0.11 0.62,0.085 0.595,0.065 0.567,0.051 0.538,0.036 0.51,0.025 0.481,0.018 0.452,0.01 0.425,0.006 0.399,0.003 0.373,0.001 0.352,0 0.335,0 Z M 0.513,0.989 C 0.513,1.002 0.512,1.013 0.509,1.022 0.506,1.031 0.499,1.039 0.487,1.048 0.478,1.053 0.469,1.057 0.461,1.059 0.452,1.06 0.443,1.061 0.434,1.061 H 0.261 C 0.228,1.061 0.197,1.056 0.169,1.047 0.142,1.037 0.12,1.023 0.104,1.005 0.09,0.988 0.08,0.969 0.072,0.945 0.064,0.921 0.059,0.897 0.056,0.873 0.052,0.849 0.05,0.827 0.05,0.805 0.049,0.784 0.049,0.768 0.049,0.758 0.049,0.717 0.051,0.683 0.054,0.654 0.057,0.625 0.061,0.601 0.067,0.582 0.072,0.563 0.077,0.547 0.083,0.536 0.089,0.525 0.095,0.516 0.1,0.511 0.123,0.484 0.15,0.469 0.181,0.464 0.197,0.461 0.213,0.46 0.228,0.459 0.243,0.457 0.258,0.457 0.273,0.457 h 0.24 z M 0.041,1.514 H 0.242 V 1.353 H 0.041 Z m 0.272,0 H 0.514 V 1.353 H 0.313 Z"
               style="fill:#ffffff;fill-opacity:1;fill-rule:nonzero;stroke:none"
               id="path1447" />
          </g>
          <g
             id="g1449"
             transform="translate(84.7319,183.7268)">
            <path
               d="M 0,0 H 0.385 C 0.396,0 0.409,0 0.423,0.001 0.437,0.002 0.452,0.004 0.468,0.006 0.5,0.01 0.529,0.022 0.554,0.041 0.584,0.067 0.602,0.102 0.608,0.147 H 0.283 C 0.26,0.147 0.236,0.148 0.211,0.15 0.185,0.152 0.161,0.157 0.136,0.164 0.112,0.172 0.088,0.184 0.066,0.199 0.044,0.215 0.024,0.236 0.007,0.264 -0.04,0.337 -0.064,0.455 -0.064,0.618 c 0,0.072 0.006,0.136 0.018,0.193 0.013,0.057 0.039,0.108 0.079,0.151 0.021,0.023 0.044,0.042 0.067,0.055 0.023,0.014 0.047,0.024 0.071,0.03 0.024,0.007 0.048,0.011 0.073,0.012 0.024,0.002 0.047,0.002 0.07,0.002 H 0.609 C 0.636,1.061 0.662,1.06 0.687,1.056 0.712,1.053 0.736,1.042 0.758,1.025 0.781,1.005 0.796,0.983 0.802,0.959 0.808,0.935 0.812,0.912 0.812,0.893 V 0.302 H 0.93 V 0.147 H 0.807 C 0.803,0.109 0.795,0.074 0.785,0.042 0.774,0.01 0.758,-0.019 0.738,-0.045 0.716,-0.07 0.691,-0.09 0.663,-0.105 0.635,-0.119 0.606,-0.13 0.577,-0.137 0.548,-0.145 0.521,-0.149 0.495,-0.152 0.469,-0.154 0.448,-0.155 0.432,-0.155 H 0 Z M 0.609,0.834 C 0.609,0.847 0.608,0.858 0.605,0.867 0.602,0.876 0.595,0.884 0.583,0.893 0.574,0.898 0.565,0.902 0.557,0.904 0.548,0.905 0.539,0.906 0.53,0.906 H 0.357 C 0.324,0.906 0.293,0.901 0.266,0.891 0.238,0.882 0.216,0.868 0.201,0.85 0.187,0.833 0.176,0.813 0.168,0.79 0.161,0.766 0.155,0.742 0.152,0.718 0.148,0.694 0.146,0.671 0.146,0.65 0.145,0.629 0.145,0.613 0.145,0.603 0.145,0.562 0.147,0.528 0.15,0.499 0.153,0.47 0.158,0.446 0.163,0.427 0.168,0.408 0.173,0.392 0.179,0.381 0.185,0.37 0.191,0.361 0.196,0.356 0.219,0.329 0.246,0.314 0.277,0.309 0.293,0.306 0.309,0.305 0.324,0.303 0.34,0.302 0.355,0.302 0.369,0.302 h 0.24 z"
               style="fill:#ffffff;fill-opacity:1;fill-rule:nonzero;stroke:none"
               id="path1451" />
          </g>
          <g
             id="g1453"
             transform="translate(85.644,183.8735)">
            <path
               d="m 0,0 v 0.155 h 0.16 c -0.033,0.074 -0.05,0.18 -0.05,0.316 0,0.072 0.006,0.136 0.018,0.193 0.013,0.058 0.039,0.108 0.079,0.151 0.022,0.024 0.044,0.042 0.067,0.056 0.024,0.013 0.047,0.023 0.072,0.03 0.024,0.006 0.048,0.01 0.072,0.011 0.024,0.002 0.048,0.003 0.071,0.003 H 0.784 C 0.811,0.915 0.837,0.913 0.862,0.91 0.887,0.906 0.91,0.896 0.932,0.878 0.956,0.858 0.97,0.836 0.976,0.813 0.983,0.788 0.986,0.766 0.986,0.746 V 0.313 C 0.986,0.281 0.984,0.253 0.979,0.228 0.974,0.204 0.968,0.182 0.96,0.163 0.952,0.144 0.942,0.127 0.931,0.113 0.92,0.098 0.909,0.086 0.897,0.075 0.878,0.058 0.859,0.045 0.839,0.035 0.819,0.025 0.798,0.018 0.777,0.013 0.756,0.008 0.734,0.004 0.711,0.003 0.689,0.002 0.666,0.001 0.641,0.001 Z M 0.452,0.162 C 0.468,0.16 0.483,0.158 0.499,0.157 0.514,0.156 0.529,0.155 0.544,0.155 l 0.057,0.001 c 0.038,0 0.068,0.004 0.09,0.013 0.023,0.008 0.041,0.022 0.056,0.042 0.013,0.017 0.022,0.037 0.027,0.058 0.006,0.022 0.009,0.045 0.01,0.068 v 0.35 C 0.784,0.7 0.782,0.711 0.78,0.72 0.777,0.729 0.77,0.738 0.758,0.746 0.749,0.752 0.74,0.755 0.731,0.757 0.723,0.759 0.714,0.759 0.705,0.759 H 0.532 C 0.498,0.759 0.468,0.755 0.44,0.745 0.412,0.735 0.391,0.721 0.375,0.703 0.361,0.687 0.35,0.667 0.343,0.643 0.335,0.619 0.33,0.596 0.326,0.571 0.323,0.547 0.321,0.525 0.32,0.504 0.32,0.483 0.319,0.467 0.319,0.456 0.319,0.416 0.321,0.381 0.325,0.352 0.328,0.324 0.332,0.3 0.337,0.28 0.342,0.261 0.348,0.246 0.354,0.234 0.359,0.223 0.365,0.215 0.371,0.209 0.394,0.183 0.421,0.167 0.452,0.162 M 0.48,1.209 H 0.681 V 1.048 H 0.48 Z"
               style="fill:#ffffff;fill-opacity:1;fill-rule:nonzero;stroke:none"
               id="path1455" />
          </g>
          <g
             id="g1457"
             transform="translate(87.4512,183.8743)">
            <path
               d="m 0,0 c -0.024,0 -0.047,0.001 -0.07,0.002 -0.022,0.002 -0.044,0.005 -0.066,0.01 -0.021,0.005 -0.042,0.012 -0.062,0.022 -0.02,0.01 -0.039,0.023 -0.057,0.04 -0.012,0.011 -0.024,0.023 -0.035,0.038 -0.01,0.014 -0.02,0.031 -0.028,0.05 -0.008,0.019 -0.015,0.041 -0.02,0.066 -0.004,0.024 -0.007,0.052 -0.007,0.084 v 0.896 h 0.202 V 0.373 c 0,-0.031 0.002,-0.06 0.006,-0.088 C -0.132,0.257 -0.122,0.232 -0.105,0.21 -0.091,0.19 -0.072,0.176 -0.05,0.168 -0.027,0.159 0.003,0.155 0.041,0.155 H 0.139 V 0 Z"
               style="fill:#ffffff;fill-opacity:1;fill-rule:nonzero;stroke:none"
               id="path1459" />
          </g>
          <g
             id="g1461"
             transform="translate(88.3102,183.8633)">
            <path
               d="M 0,0 C -0.028,0 -0.058,0.001 -0.09,0.003 -0.123,0.004 -0.156,0.008 -0.188,0.015 -0.221,0.021 -0.253,0.031 -0.284,0.044 -0.316,0.057 -0.344,0.075 -0.369,0.098 -0.371,0.099 -0.373,0.101 -0.377,0.105 -0.396,0.084 -0.417,0.068 -0.44,0.056 -0.462,0.043 -0.486,0.034 -0.51,0.027 -0.533,0.02 -0.557,0.016 -0.582,0.014 -0.606,0.011 -0.629,0.01 -0.651,0.01 h -0.09 v 0.155 h 0.034 c 0.013,0 0.029,0.001 0.046,0.002 0.018,0.001 0.035,0.005 0.053,0.01 0.017,0.006 0.035,0.016 0.051,0.028 0.016,0.013 0.03,0.031 0.041,0.054 0.005,0.01 0.011,0.027 0.017,0.049 0.006,0.022 0.01,0.054 0.013,0.097 -0.001,0.012 -0.001,0.022 -0.001,0.032 v 0.027 c 0,0.026 0.001,0.055 0.003,0.088 0.002,0.033 0.008,0.067 0.016,0.101 0.008,0.035 0.02,0.068 0.035,0.101 0.016,0.032 0.037,0.061 0.064,0.085 0.025,0.023 0.053,0.042 0.085,0.054 0.031,0.013 0.063,0.023 0.096,0.029 0.032,0.006 0.065,0.01 0.098,0.012 0.032,0.001 0.062,0.002 0.09,0.002 0.028,0 0.057,-0.001 0.09,-0.002 C 0.122,0.932 0.155,0.928 0.188,0.922 0.22,0.916 0.253,0.906 0.284,0.893 0.316,0.881 0.344,0.862 0.369,0.839 0.396,0.815 0.417,0.786 0.433,0.754 0.448,0.721 0.46,0.688 0.468,0.654 0.476,0.62 0.481,0.587 0.483,0.555 0.485,0.523 0.486,0.495 0.486,0.471 0.486,0.401 0.48,0.341 0.469,0.291 0.457,0.241 0.441,0.199 0.421,0.165 H 0.583 V 0.01 H 0.267 Z M -0.221,0.707 C -0.238,0.686 -0.251,0.663 -0.258,0.637 -0.266,0.612 -0.271,0.586 -0.274,0.559 -0.276,0.532 -0.277,0.505 -0.276,0.479 c 0,-0.027 0,-0.052 -0.001,-0.075 0.001,-0.031 0.006,-0.061 0.014,-0.09 0.008,-0.03 0.022,-0.058 0.044,-0.083 0.015,-0.017 0.031,-0.03 0.049,-0.04 C -0.152,0.18 -0.134,0.173 -0.115,0.168 -0.096,0.163 -0.077,0.159 -0.057,0.158 -0.038,0.156 -0.019,0.155 0,0.155 c 0.019,0 0.038,0.001 0.058,0.003 0.019,0.001 0.038,0.005 0.057,0.01 0.018,0.005 0.036,0.012 0.054,0.023 0.017,0.01 0.033,0.023 0.048,0.04 0.016,0.017 0.027,0.035 0.035,0.053 0.009,0.019 0.015,0.039 0.019,0.059 0.004,0.02 0.006,0.041 0.006,0.062 0.001,0.02 0.001,0.041 0.001,0.061 V 0.521 C 0.278,0.536 0.277,0.552 0.276,0.569 0.274,0.585 0.271,0.602 0.266,0.618 0.262,0.635 0.256,0.651 0.248,0.666 0.241,0.681 0.231,0.695 0.219,0.707 0.204,0.724 0.188,0.736 0.17,0.746 0.152,0.756 0.134,0.763 0.115,0.768 0.096,0.773 0.076,0.776 0.057,0.778 0.037,0.779 0.018,0.78 0,0.78 -0.016,0.78 -0.034,0.779 -0.054,0.778 -0.074,0.776 -0.094,0.773 -0.114,0.768 -0.134,0.763 -0.153,0.756 -0.172,0.746 -0.191,0.736 -0.207,0.724 -0.221,0.707"
               style="fill:#ffffff;fill-opacity:1;fill-rule:nonzero;stroke:none"
               id="path1463" />
          </g>
          <g
             id="g1465"
             transform="translate(88.8792,183.8735)">
            <path
               d="m 0,0 v 0.155 h 0.16 c -0.033,0.074 -0.05,0.18 -0.05,0.316 0,0.072 0.006,0.136 0.018,0.193 0.013,0.058 0.039,0.108 0.079,0.151 0.022,0.024 0.044,0.042 0.067,0.056 0.024,0.013 0.047,0.023 0.072,0.03 0.024,0.006 0.048,0.01 0.072,0.011 0.024,0.002 0.048,0.003 0.071,0.003 H 0.784 C 0.811,0.915 0.837,0.913 0.862,0.91 0.887,0.906 0.91,0.896 0.932,0.878 0.956,0.858 0.971,0.836 0.976,0.813 0.983,0.788 0.986,0.766 0.986,0.746 V 0.313 C 0.986,0.281 0.984,0.253 0.979,0.228 0.974,0.204 0.968,0.182 0.96,0.163 0.952,0.144 0.942,0.127 0.931,0.113 0.92,0.098 0.909,0.086 0.897,0.075 0.878,0.058 0.859,0.045 0.839,0.035 0.819,0.025 0.798,0.018 0.777,0.013 0.756,0.008 0.734,0.004 0.711,0.003 0.689,0.002 0.666,0.001 0.641,0.001 Z M 0.452,0.162 C 0.468,0.16 0.483,0.158 0.499,0.157 0.514,0.156 0.529,0.155 0.544,0.155 l 0.057,0.001 c 0.038,0 0.068,0.004 0.09,0.013 0.023,0.008 0.041,0.022 0.056,0.042 0.013,0.017 0.022,0.037 0.027,0.058 0.006,0.022 0.009,0.045 0.01,0.068 v 0.35 C 0.784,0.7 0.782,0.711 0.78,0.72 0.777,0.729 0.77,0.738 0.758,0.746 0.749,0.752 0.74,0.755 0.731,0.757 0.723,0.759 0.714,0.759 0.705,0.759 H 0.532 C 0.498,0.759 0.468,0.755 0.44,0.745 0.412,0.735 0.391,0.721 0.375,0.703 0.361,0.687 0.35,0.667 0.343,0.643 0.335,0.619 0.33,0.596 0.326,0.571 0.323,0.547 0.321,0.525 0.32,0.504 0.32,0.483 0.319,0.467 0.319,0.456 0.319,0.416 0.321,0.381 0.325,0.352 0.328,0.324 0.332,0.3 0.337,0.28 0.342,0.261 0.348,0.246 0.354,0.234 0.359,0.223 0.365,0.215 0.371,0.209 0.394,0.183 0.421,0.167 0.452,0.162 M 0.48,1.209 H 0.681 V 1.048 H 0.48 Z"
               style="fill:#ffffff;fill-opacity:1;fill-rule:nonzero;stroke:none"
               id="path1467" />
          </g>
          <g
             id="g1469"
             transform="translate(83.8703,190.0714)">
            <path
               d="m 0,0 c -0.25,0 -0.445,0.086 -0.445,0.32 0,0.203 0.102,0.312 0.328,0.351 0.601,0.101 0.858,0.296 1.045,0.655 0.187,0.359 0.242,0.398 0.507,0.398 0.172,0 0.335,-0.117 0.335,-0.421 v -4.805 c 0,-0.327 -0.241,-0.538 -0.522,-0.538 -0.281,0 -0.523,0.211 -0.523,0.538 V 0 Z"
               style="fill:#ffffff;fill-opacity:1;fill-rule:nonzero;stroke:none"
               id="path1471" />
          </g>
          <g
             id="g1473"
             transform="translate(88.004,186.78)">
            <path
               d="M 0,0 C 0.452,0 0.546,0.421 0.546,1.17 0.546,1.911 0.452,2.316 0,2.316 -0.452,2.316 -0.546,1.911 -0.546,1.17 -0.546,0.421 -0.452,0 0,0 m -1.591,2.418 c 0,1.575 0.304,2.55 1.622,2.55 0.944,0 1.381,-0.437 1.381,-0.928 0,-0.273 -0.18,-0.452 -0.46,-0.452 -0.227,0 -0.312,0.062 -0.461,0.327 -0.148,0.25 -0.21,0.304 -0.436,0.304 -0.453,0 -0.601,-0.429 -0.601,-1.107 v -0.32 c 0.242,0.234 0.499,0.312 0.819,0.312 0.998,0 1.318,-0.764 1.318,-1.762 0,-1.108 -0.273,-2.091 -1.568,-2.091 -1.458,0 -1.614,1.053 -1.614,2.574 z"
               style="fill:#ffffff;fill-opacity:1;fill-rule:nonzero;stroke:none"
               id="path1475" />
          </g>
        </g>
      </g>
    </g>
  </g>
</svg>
