<?xml version="1.0"?>
<svg width="142" height="179" xmlns="http://www.w3.org/2000/svg" xmlns:svg="http://www.w3.org/2000/svg" version="1.1">
 <g class="layer">
  <title>Layer 1</title>
  <g id="surface1">
   <rect fill="rgb(100%,100%,100%)" height="179" id="svg_1" width="142" x="0" y="0"/>
   <path d="m7.77,7.2l0,134.68l125.98,0l-0.05,-134.64l-125.93,-0.04zm0,0" fill="rgb(0%,0%,0%)" fill-rule="nonzero" id="svg_2"/>
   <path d="m7.82,143.75l0,27.84l125.88,0.07l0,-27.91l-125.88,0zm0,0" fill="rgb(0%,0%,0%)" fill-rule="nonzero" id="svg_3"/>
   <path d="m42.48,117.31l0,1.49l2.04,0l0,-1.49l-2.04,0zm2.76,0l0,1.49l2.04,0l0,-1.49l-2.04,0zm20.05,0.03l0,1.49l2.04,0l0,-1.49l-2.04,0zm32.86,0l0,1.49l2.04,0l0,-1.49l-2.04,0zm-22.88,0l0,8.3c0,0.3 0.03,0.56 0.07,0.78c0.05,0.23 0.12,0.44 0.2,0.62c0.08,0.17 0.18,0.33 0.28,0.46c0.11,0.14 0.24,0.25 0.36,0.35c0.18,0.16 0.37,0.28 0.58,0.37c0.2,0.09 0.42,0.16 0.63,0.2c0.22,0.05 0.45,0.08 0.67,0.1c0.23,0 0.46,0.02 0.71,0.02l1.2,0l0,0l0.91,0c0.23,0 0.46,0 0.7,-0.03c0.26,-0.02 0.5,-0.06 0.73,-0.12c0.25,-0.07 0.49,-0.15 0.71,-0.27c0.24,-0.11 0.45,-0.26 0.64,-0.46c0.04,0.04 0.06,0.06 0.09,0.07c0.25,0.21 0.53,0.38 0.85,0.5c0.32,0.12 0.65,0.21 0.98,0.27c0.33,0.06 0.66,0.1 1,0.11c0.32,0.02 0.63,0.03 0.91,0.03l2.71,-0.1l3.21,0l6.37,-0.01c0.26,0 0.49,-0.01 0.71,-0.01c0.24,-0.02 0.46,-0.05 0.67,-0.1c0.22,-0.04 0.43,-0.11 0.63,-0.2c0.21,-0.09 0.4,-0.22 0.59,-0.37c0.12,-0.1 0.23,-0.22 0.35,-0.35c0.11,-0.13 0.21,-0.29 0.29,-0.47c0.08,-0.17 0.14,-0.38 0.19,-0.6c0.06,-0.23 0.08,-0.49 0.08,-0.79l0,-4.01c0,-0.18 -0.04,-0.39 -0.11,-0.62c-0.06,-0.21 -0.2,-0.42 -0.45,-0.6c-0.22,-0.17 -0.45,-0.26 -0.7,-0.3c-0.26,-0.03 -0.52,-0.05 -0.8,-0.05l-2.99,0c-0.24,0 -0.48,0.01 -0.72,0.03c-0.25,0.01 -0.49,0.05 -0.73,0.11c-0.26,0.06 -0.49,0.15 -0.74,0.27c-0.23,0.13 -0.45,0.3 -0.67,0.52c-0.41,0.4 -0.68,0.86 -0.81,1.4c-0.12,0.53 -0.18,1.12 -0.18,1.79c0,1.26 0.17,2.24 0.5,2.93l-3.12,0c0.2,-0.32 0.36,-0.71 0.49,-1.17c0.11,-0.46 0.17,-1.02 0.17,-1.67c0,-0.22 -0.01,-0.48 -0.03,-0.78c-0.02,-0.29 -0.07,-0.6 -0.15,-0.91c-0.09,-0.32 -0.21,-0.63 -0.36,-0.93c-0.16,-0.29 -0.37,-0.56 -0.65,-0.79c-0.25,-0.21 -0.54,-0.39 -0.86,-0.5c-0.32,-0.12 -0.65,-0.21 -0.98,-0.27c-0.33,-0.05 -0.67,-0.09 -0.99,-0.11c-0.34,-0.01 -0.64,-0.02 -0.92,-0.02c-0.28,0 -0.59,0.01 -0.91,0.02c-0.34,0.02 -0.67,0.06 -1,0.11c-0.33,0.06 -0.66,0.15 -0.98,0.27c-0.31,0.11 -0.6,0.29 -0.85,0.5c-0.28,0.23 -0.49,0.5 -0.65,0.79c-0.16,0.3 -0.28,0.61 -0.36,0.94c-0.08,0.31 -0.14,0.62 -0.16,0.93c-0.02,0.31 -0.03,0.58 -0.03,0.82l0,0.25c0,0.09 0,0.18 0.01,0.29c-0.03,0.4 -0.07,0.7 -0.13,0.91c-0.07,0.2 -0.13,0.35 -0.18,0.45c-0.11,0.21 -0.25,0.38 -0.41,0.5c-0.17,0.11 -0.35,0.2 -0.52,0.26c-0.18,0.04 -0.36,0.08 -0.54,0.09c-0.17,0.01 -0.33,0.02 -0.47,0.02l-0.13,0l0,-0.01l-1,0c-0.38,0 -0.68,-0.04 -0.92,-0.12c-0.22,-0.08 -0.42,-0.21 -0.56,-0.39c-0.17,-0.2 -0.27,-0.44 -0.32,-0.7c-0.04,-0.25 -0.06,-0.52 -0.06,-0.81l0,-7.74l-2.05,0zm-9.89,2.72c-0.23,0 -0.48,0.01 -0.72,0.03c-0.24,0.01 -0.49,0.05 -0.73,0.1c-0.25,0.07 -0.49,0.16 -0.73,0.28c-0.24,0.13 -0.46,0.3 -0.68,0.52c-0.41,0.4 -0.67,0.86 -0.81,1.4c-0.12,0.53 -0.18,1.12 -0.18,1.79c0,1.26 0.17,2.24 0.51,2.93l-1.44,0l0,-0.01l-1.2,0l0,-5.47c0,-0.18 -0.04,-0.39 -0.1,-0.61c-0.07,-0.23 -0.22,-0.43 -0.45,-0.62c-0.22,-0.15 -0.47,-0.26 -0.72,-0.28c-0.25,-0.04 -0.52,-0.05 -0.79,-0.05l-3,0c-0.23,0 -0.47,0 -0.71,0.02c-0.25,0.01 -0.5,0.04 -0.74,0.11c-0.25,0.05 -0.49,0.15 -0.72,0.28c-0.24,0.12 -0.47,0.29 -0.68,0.51c-0.41,0.4 -0.67,0.87 -0.81,1.4c-0.12,0.52 -0.18,1.12 -0.18,1.79c0,1.5 0.24,2.6 0.72,3.27c0.17,0.26 0.38,0.46 0.6,0.6c0.22,0.15 0.47,0.26 0.71,0.33c0.26,0.07 0.5,0.11 0.76,0.13c0.26,0.02 0.5,0.03 0.73,0.03l3.3,0c-0.05,0.41 -0.24,0.74 -0.54,0.98c-0.26,0.18 -0.55,0.29 -0.88,0.32c-0.16,0.02 -0.31,0.04 -0.45,0.05c-0.15,0.01 -0.28,0.01 -0.39,0.01l-3.91,0l0,1.44l4.39,0c0.16,0 0.37,-0.01 0.64,-0.03c0.26,-0.03 0.53,-0.07 0.83,-0.14c0.29,-0.06 0.59,-0.17 0.87,-0.3c0.29,-0.14 0.54,-0.32 0.76,-0.55c0.21,-0.24 0.37,-0.51 0.48,-0.81c0.1,-0.3 0.18,-0.62 0.23,-0.97l1.06,0l0,0l6.52,0c0.25,0 0.48,-0.02 0.7,-0.02c0.24,-0.01 0.46,-0.05 0.67,-0.1c0.22,-0.04 0.43,-0.11 0.63,-0.2c0.21,-0.09 0.4,-0.21 0.59,-0.37c0.12,-0.1 0.24,-0.21 0.35,-0.35c0.11,-0.13 0.21,-0.29 0.29,-0.47c0.09,-0.17 0.14,-0.38 0.2,-0.6c0.05,-0.23 0.07,-0.49 0.07,-0.79l0,-4.01c0,-0.18 -0.03,-0.39 -0.11,-0.62c-0.04,-0.21 -0.19,-0.42 -0.44,-0.6c-0.22,-0.17 -0.46,-0.26 -0.71,-0.3c-0.26,-0.03 -0.52,-0.05 -0.79,-0.05l-3,0zm-21.11,0.01c-0.23,0 -0.47,0 -0.71,0.02c-0.25,0.01 -0.49,0.05 -0.74,0.11c-0.24,0.06 -0.49,0.15 -0.72,0.28c-0.24,0.12 -0.47,0.29 -0.68,0.51c-0.41,0.4 -0.68,0.87 -0.8,1.4c-0.12,0.52 -0.19,1.12 -0.19,1.79c0,1.51 0.24,2.6 0.73,3.27c0.17,0.26 0.37,0.46 0.59,0.61c0.23,0.14 0.47,0.25 0.71,0.32c0.25,0.07 0.5,0.11 0.77,0.13c0.25,0.02 0.49,0.03 0.73,0.03l3.3,0c-0.07,0.42 -0.26,0.74 -0.55,0.98c-0.25,0.18 -0.55,0.29 -0.87,0.33c-0.18,0.01 -0.33,0.03 -0.46,0.04c-0.14,0 -0.27,0.01 -0.39,0.01l-2.53,0c-0.52,0 -0.97,-0.07 -1.34,-0.22c-0.38,-0.14 -0.69,-0.32 -0.94,-0.54c-0.25,-0.21 -0.45,-0.44 -0.59,-0.68c-0.13,-0.25 -0.21,-0.46 -0.24,-0.65l-1.54,0.69c0.08,0.36 0.22,0.7 0.43,1.03c0.22,0.35 0.5,0.65 0.85,0.91c0.36,0.27 0.79,0.49 1.29,0.65c0.48,0.16 1.05,0.25 1.68,0.25l3.4,0c0.18,0 0.39,-0.01 0.65,-0.03c0.27,-0.03 0.54,-0.06 0.84,-0.14c0.29,-0.06 0.57,-0.17 0.87,-0.31c0.28,-0.13 0.54,-0.31 0.75,-0.54c0.31,-0.34 0.51,-0.75 0.61,-1.21c0.1,-0.48 0.15,-0.98 0.15,-1.52l0,-5.96c0,-0.18 -0.04,-0.39 -0.1,-0.61c-0.06,-0.23 -0.21,-0.43 -0.45,-0.61c-0.22,-0.17 -0.46,-0.27 -0.72,-0.29c-0.25,-0.04 -0.52,-0.05 -0.79,-0.05l-3,0zm43.22,1.34c0.19,0 0.38,0.01 0.58,0.02c0.2,0.02 0.4,0.04 0.59,0.09c0.2,0.05 0.38,0.11 0.56,0.21c0.18,0.09 0.35,0.2 0.5,0.36c0.12,0.11 0.22,0.24 0.29,0.38c0.08,0.14 0.15,0.28 0.19,0.44c0.05,0.15 0.08,0.31 0.1,0.46c0.01,0.15 0.02,0.3 0.02,0.44l0,0.51c0,0.18 0,0.38 -0.01,0.56c0,0.2 -0.02,0.39 -0.06,0.58c-0.04,0.18 -0.11,0.37 -0.2,0.55c-0.08,0.17 -0.19,0.33 -0.35,0.49c-0.16,0.16 -0.32,0.27 -0.49,0.37c-0.18,0.1 -0.37,0.17 -0.55,0.21c-0.19,0.05 -0.38,0.08 -0.58,0.09c-0.2,0.02 -0.39,0.03 -0.59,0.03c-0.19,0 -0.38,-0.01 -0.58,-0.03c-0.2,-0.01 -0.39,-0.04 -0.59,-0.09c-0.19,-0.04 -0.37,-0.11 -0.55,-0.21c-0.18,-0.1 -0.35,-0.21 -0.5,-0.37c-0.23,-0.23 -0.37,-0.49 -0.45,-0.77c-0.08,-0.27 -0.13,-0.55 -0.14,-0.84c0.01,-0.21 0.01,-0.44 0.01,-0.69c-0.01,-0.24 0,-0.49 0.02,-0.74c0.03,-0.25 0.08,-0.49 0.16,-0.72c0.07,-0.24 0.21,-0.46 0.38,-0.65c0.14,-0.16 0.3,-0.27 0.5,-0.36c0.19,-0.1 0.38,-0.16 0.59,-0.21c0.2,-0.04 0.4,-0.07 0.61,-0.09c0.2,-0.01 0.38,-0.02 0.54,-0.02zm-42.78,0.1l1.75,0c0.1,0 0.19,0.01 0.28,0.01c0.08,0.02 0.17,0.06 0.26,0.11c0.13,0.08 0.2,0.16 0.23,0.24c0.03,0.08 0.04,0.18 0.04,0.3l0,4.93l-2.44,0c-0.15,0 -0.3,0 -0.45,-0.01c-0.16,-0.02 -0.32,-0.02 -0.48,-0.05c-0.31,-0.05 -0.59,-0.18 -0.83,-0.43c-0.05,-0.05 -0.11,-0.14 -0.17,-0.24c-0.06,-0.1 -0.11,-0.25 -0.16,-0.42c-0.06,-0.18 -0.1,-0.4 -0.13,-0.67c-0.03,-0.27 -0.05,-0.58 -0.05,-0.96c0,-0.1 0,-0.25 0.01,-0.44c0,-0.2 0.02,-0.41 0.06,-0.63c0.03,-0.22 0.08,-0.45 0.16,-0.67c0.08,-0.22 0.18,-0.4 0.34,-0.56c0.15,-0.16 0.37,-0.29 0.65,-0.38c0.28,-0.09 0.6,-0.14 0.93,-0.14l0,0.01zm10.07,0l1.76,0c0.09,0 0.17,0.01 0.27,0.01c0.08,0.02 0.17,0.06 0.26,0.11c0.13,0.08 0.2,0.16 0.23,0.24c0.02,0.08 0.04,0.18 0.04,0.31l0,4.92l-2.44,0c-0.14,0 -0.29,0.01 -0.46,-0.01c-0.15,-0.01 -0.31,-0.02 -0.48,-0.05c-0.31,-0.05 -0.58,-0.19 -0.82,-0.44c-0.05,-0.04 -0.11,-0.13 -0.17,-0.23c-0.06,-0.1 -0.11,-0.25 -0.16,-0.42c-0.05,-0.18 -0.11,-0.4 -0.13,-0.67c-0.04,-0.27 -0.05,-0.58 -0.05,-0.97c0,-0.09 0,-0.24 0,-0.43c0,-0.2 0.02,-0.41 0.07,-0.63c0.02,-0.22 0.09,-0.45 0.16,-0.67c0.08,-0.21 0.19,-0.4 0.33,-0.55c0.15,-0.17 0.38,-0.3 0.66,-0.39c0.28,-0.09 0.59,-0.13 0.93,-0.13zm11.04,0l1.75,0c0.1,0 0.19,0 0.27,0.02c0.09,0.02 0.18,0.04 0.27,0.1c0.12,0.07 0.19,0.16 0.23,0.24c0.02,0.08 0.04,0.19 0.04,0.31l0,3.24c-0.01,0.21 -0.04,0.42 -0.11,0.63c-0.05,0.19 -0.14,0.38 -0.27,0.54c-0.15,0.18 -0.34,0.31 -0.57,0.39c-0.22,0.08 -0.53,0.11 -0.91,0.11l-0.58,0.02c-0.15,0 -0.31,-0.01 -0.46,-0.02c-0.16,-0.01 -0.31,-0.03 -0.48,-0.05c-0.31,-0.05 -0.59,-0.2 -0.82,-0.43c-0.06,-0.06 -0.12,-0.14 -0.17,-0.24c-0.06,-0.11 -0.12,-0.24 -0.17,-0.42c-0.05,-0.19 -0.09,-0.41 -0.13,-0.67c-0.03,-0.27 -0.05,-0.59 -0.05,-0.96c0,-0.11 0,-0.25 0,-0.45c0.02,-0.19 0.04,-0.4 0.06,-0.62c0.05,-0.23 0.1,-0.44 0.18,-0.66c0.07,-0.23 0.18,-0.41 0.32,-0.56c0.17,-0.17 0.38,-0.3 0.66,-0.39c0.29,-0.09 0.59,-0.13 0.94,-0.13zm32.86,0l1.75,0c0.09,0 0.18,0 0.27,0.02c0.09,0.02 0.18,0.04 0.27,0.1c0.12,0.07 0.19,0.16 0.22,0.24c0.02,0.08 0.04,0.19 0.04,0.31l0,3.24c-0.01,0.21 -0.03,0.42 -0.1,0.63c-0.05,0.19 -0.14,0.38 -0.27,0.54c-0.16,0.18 -0.34,0.31 -0.57,0.39c-0.22,0.08 -0.53,0.11 -0.91,0.11l-0.58,0.02c-0.16,0 -0.31,-0.01 -0.46,-0.02c-0.16,-0.01 -0.32,-0.03 -0.48,-0.05c-0.31,-0.05 -0.59,-0.2 -0.82,-0.43c-0.06,-0.06 -0.12,-0.14 -0.17,-0.24c-0.07,-0.11 -0.12,-0.24 -0.17,-0.42c-0.06,-0.19 -0.1,-0.41 -0.13,-0.67c-0.04,-0.27 -0.06,-0.59 -0.06,-0.96c0,-0.11 0.01,-0.25 0.01,-0.45c0.01,-0.19 0.03,-0.4 0.06,-0.62c0.04,-0.23 0.09,-0.44 0.17,-0.66c0.07,-0.23 0.19,-0.41 0.33,-0.56c0.16,-0.17 0.37,-0.3 0.66,-0.39c0.28,-0.09 0.59,-0.13 0.93,-0.13l0.01,0zm0,0" fill="rgb(100%,100%,100%)" fill-rule="nonzero" id="svg_4"/>
   <path d="m80.05,65.32c-2.3,0 -4.1,-0.79 -4.1,-2.95c0,-1.88 0.94,-2.89 3.02,-3.24c5.55,-0.93 7.92,-2.74 9.65,-6.05c1.73,-3.32 2.24,-3.68 4.68,-3.68c1.59,0 3.09,1.08 3.09,3.89l0,44.37c0,3.03 -2.22,4.97 -4.82,4.97c-2.59,0 -4.82,-1.94 -4.82,-4.97l0,-32.34l-6.7,0zm0,0" fill="rgb(100%,100%,100%)" fill-rule="nonzero" id="svg_5"/>
   <path d="m55.84,23.79l0,8.28c0,0.31 -0.02,0.6 -0.06,0.88c-0.05,0.28 -0.16,0.52 -0.33,0.74c-0.15,0.2 -0.34,0.34 -0.56,0.42c-0.24,0.09 -0.55,0.13 -0.92,0.13l-1.01,0l0,0.01l-2.61,0c0.23,-0.32 0.47,-0.65 0.72,-0.98c0.25,-0.35 0.46,-0.71 0.66,-1.09c0.2,-0.4 0.36,-0.82 0.48,-1.27c0.14,-0.45 0.2,-0.93 0.22,-1.46c0,-0.19 0,-0.38 -0.01,-0.58c-0.01,-0.2 -0.04,-0.39 -0.08,-0.57c-0.05,-0.18 -0.11,-0.36 -0.2,-0.53c-0.09,-0.17 -0.2,-0.33 -0.35,-0.47c-0.15,-0.14 -0.3,-0.25 -0.45,-0.32c-0.17,-0.09 -0.32,-0.14 -0.47,-0.18c-0.17,-0.05 -0.32,-0.09 -0.47,-0.09c-0.15,-0.01 -0.29,-0.02 -0.41,-0.02l-4.57,0c-0.12,0 -0.26,0.01 -0.4,0.02c-0.16,0 -0.31,0.04 -0.46,0.09c-0.17,0.04 -0.32,0.09 -0.48,0.18c-0.15,0.07 -0.31,0.18 -0.45,0.32c-0.15,0.14 -0.27,0.3 -0.36,0.47c-0.08,0.17 -0.14,0.35 -0.18,0.53c-0.05,0.18 -0.07,0.37 -0.09,0.57c-0.02,0.2 -0.02,0.39 0,0.58c0,0.53 0.08,1.01 0.2,1.46c0.12,0.45 0.28,0.87 0.49,1.27c0.19,0.38 0.42,0.74 0.65,1.09c0.25,0.33 0.49,0.66 0.74,0.98l-2.71,0l0,0l-1.46,0c0.21,-0.34 0.37,-0.75 0.49,-1.25c0.12,-0.5 0.18,-1.09 0.18,-1.79c0,-0.23 -0.01,-0.51 -0.03,-0.83c-0.02,-0.32 -0.07,-0.65 -0.16,-0.98c-0.08,-0.34 -0.2,-0.67 -0.35,-0.99c-0.17,-0.32 -0.38,-0.61 -0.66,-0.85c-0.25,-0.23 -0.54,-0.42 -0.86,-0.54c-0.32,-0.12 -0.66,-0.22 -0.98,-0.28c-0.34,-0.06 -0.68,-0.1 -1,-0.12c-0.34,-0.01 -0.64,-0.02 -0.93,-0.02c-0.28,0 -0.59,0.01 -0.91,0.02c-0.34,0.02 -0.68,0.06 -1,0.12c-0.34,0.06 -0.67,0.16 -1,0.28c-0.31,0.12 -0.6,0.31 -0.85,0.54c-0.28,0.24 -0.49,0.53 -0.66,0.85c-0.15,0.32 -0.27,0.65 -0.35,1c-0.09,0.34 -0.15,0.67 -0.17,1c-0.02,0.33 -0.03,0.61 -0.03,0.87l0,0.27c0,0.1 0,0.2 0.01,0.32c-0.03,0.42 -0.07,0.74 -0.13,0.96c-0.06,0.22 -0.13,0.39 -0.18,0.49c-0.11,0.22 -0.25,0.4 -0.41,0.53c-0.16,0.12 -0.34,0.22 -0.52,0.28c-0.19,0.05 -0.36,0.09 -0.55,0.1c-0.17,0.01 -0.33,0.02 -0.47,0.02l-0.08,0l0,0l-1.53,0l0,-7.54l-2.06,0l0,8.44c0,0.25 -0.01,0.46 -0.05,0.64c-0.03,0.18 -0.08,0.34 -0.13,0.48c-0.07,0.14 -0.14,0.25 -0.23,0.36c-0.09,0.1 -0.2,0.19 -0.32,0.26c-0.12,0.09 -0.23,0.16 -0.36,0.22c-0.13,0.04 -0.26,0.09 -0.42,0.12c-0.16,0.03 -0.34,0.05 -0.54,0.06c-0.22,0 -0.45,0.01 -0.74,0l0,1.55c0.89,0.03 1.61,0 2.21,-0.11c0.58,-0.11 1.06,-0.3 1.43,-0.55c0.1,-0.09 0.21,-0.18 0.34,-0.3c0.13,-0.12 0.26,-0.28 0.38,-0.47c0.11,-0.19 0.23,-0.42 0.32,-0.68c0.09,-0.27 0.14,-0.58 0.16,-0.95l1.28,0l0,0.01l0.92,0c0.22,0 0.46,-0.01 0.7,-0.04c0.26,-0.02 0.5,-0.06 0.74,-0.13c0.24,-0.07 0.49,-0.16 0.71,-0.29c0.24,-0.12 0.45,-0.28 0.65,-0.48c0.03,0.04 0.06,0.06 0.08,0.07c0.25,0.22 0.54,0.4 0.85,0.53c0.33,0.13 0.66,0.23 1,0.29c0.32,0.07 0.66,0.11 1,0.12c0.32,0.02 0.63,0.03 0.91,0.03l2.73,-0.1l3.23,0l0,0l10.56,0l0,-0.01l1.25,0c0.24,0 0.49,-0.01 0.71,-0.02c0.24,-0.02 0.45,-0.05 0.68,-0.1c0.21,-0.05 0.43,-0.12 0.63,-0.22c0.2,-0.1 0.4,-0.23 0.58,-0.39c0.12,-0.11 0.25,-0.23 0.36,-0.38c0.11,-0.14 0.2,-0.31 0.29,-0.5c0.07,-0.19 0.15,-0.4 0.2,-0.65c0.04,-0.24 0.07,-0.52 0.07,-0.84l0,-8.89l-2.06,0zm38.64,0l0,8.89c0,0.32 0.03,0.6 0.07,0.84c0.05,0.24 0.13,0.46 0.21,0.65c0.08,0.19 0.18,0.36 0.28,0.49c0.12,0.15 0.24,0.27 0.36,0.38c0.18,0.17 0.38,0.3 0.58,0.4c0.2,0.1 0.42,0.17 0.63,0.22c0.23,0.05 0.45,0.08 0.68,0.1c0.23,0.01 0.47,0.02 0.71,0.02l1.88,0c0.24,0 0.47,-0.01 0.7,-0.02c0.22,-0.01 0.44,-0.04 0.65,-0.09c0.22,-0.04 0.42,-0.11 0.61,-0.2c0.21,-0.09 0.39,-0.22 0.57,-0.37c0.19,0.15 0.37,0.28 0.58,0.37c0.2,0.1 0.42,0.16 0.63,0.21c0.2,0.04 0.42,0.07 0.62,0.09c0.22,0.01 0.42,0.02 0.62,0.02l0.84,0l0,-0.01l0.7,0c0.23,0 0.46,-0.01 0.71,-0.03c0.24,-0.03 0.5,-0.07 0.73,-0.14c0.25,-0.07 0.49,-0.16 0.71,-0.27c0.24,-0.13 0.45,-0.29 0.65,-0.49c0.04,0.03 0.06,0.05 0.08,0.06c0.26,0.23 0.54,0.41 0.86,0.54c0.32,0.12 0.65,0.22 0.99,0.28c0.32,0.07 0.66,0.11 1,0.13c0.33,0.01 0.63,0.02 0.92,0.02c0.26,0 0.56,-0.01 0.9,-0.02c0.32,-0.02 0.66,-0.06 1.01,-0.13c0.34,-0.06 0.68,-0.16 1,-0.28c0.33,-0.13 0.61,-0.31 0.86,-0.54c0.17,-0.15 0.33,-0.35 0.47,-0.57c0.15,-0.22 0.28,-0.49 0.38,-0.79c0.1,-0.3 0.2,-0.64 0.25,-1.03c0.06,-0.39 0.09,-0.82 0.09,-1.31c0,-0.24 -0.01,-0.51 -0.03,-0.83c-0.02,-0.32 -0.07,-0.65 -0.15,-0.99c-0.08,-0.34 -0.21,-0.66 -0.36,-0.98c-0.17,-0.33 -0.38,-0.61 -0.65,-0.85c-0.26,-0.23 -0.55,-0.41 -0.87,-0.54c-0.32,-0.13 -0.66,-0.23 -0.99,-0.29c-0.33,-0.05 -0.67,-0.1 -0.99,-0.1c-0.34,-0.02 -0.65,-0.02 -0.92,-0.04c-0.29,0.02 -0.59,0.02 -0.92,0.04c-0.34,0 -0.68,0.05 -1,0.1c-0.34,0.06 -0.67,0.16 -0.99,0.29c-0.32,0.13 -0.6,0.31 -0.86,0.54c-0.28,0.24 -0.49,0.52 -0.65,0.85c-0.16,0.32 -0.28,0.66 -0.36,0.99c-0.08,0.34 -0.14,0.68 -0.16,1.01c-0.02,0.32 -0.04,0.61 -0.04,0.87l0,0.27c0,0.09 0,0.2 0.02,0.31c-0.04,0.43 -0.08,0.76 -0.14,0.97c-0.06,0.22 -0.12,0.38 -0.17,0.48c-0.11,0.23 -0.26,0.41 -0.42,0.54c-0.17,0.13 -0.34,0.22 -0.52,0.28c-0.18,0.05 -0.36,0.08 -0.54,0.1c-0.17,0.01 -0.34,0.02 -0.47,0.02l-0.35,0c-0.19,0 -0.39,-0.01 -0.6,-0.04c-0.21,-0.02 -0.42,-0.07 -0.61,-0.14c-0.18,-0.08 -0.36,-0.19 -0.5,-0.33c-0.15,-0.15 -0.26,-0.33 -0.32,-0.58l-0.06,-1.23l0,-5.23l-2.05,0l0,5.23l-0.01,0l0,0.11c0,0.03 0,0.07 0.01,0.11c-0.01,0.29 -0.03,0.57 -0.08,0.83c-0.05,0.27 -0.15,0.5 -0.3,0.71c-0.16,0.2 -0.34,0.34 -0.58,0.42c-0.22,0.09 -0.53,0.13 -0.92,0.13l-1.05,0c-0.37,0 -0.68,-0.04 -0.92,-0.13c-0.22,-0.08 -0.42,-0.22 -0.56,-0.42c-0.17,-0.22 -0.28,-0.46 -0.33,-0.74c-0.04,-0.28 -0.06,-0.57 -0.06,-0.88l0,-8.28l-2.06,0zm6.83,0l0,1.6l2.05,0l0,-1.6l-2.05,0zm-27.15,2.92l0,2.23c-0.01,0.61 -0.01,1.12 -0.01,1.52l0,1.43c0,0.11 0,0.18 0.01,0.2l0,0.06c0,0.29 -0.03,0.57 -0.08,0.84c-0.05,0.26 -0.15,0.49 -0.31,0.7c-0.14,0.2 -0.33,0.34 -0.56,0.42c-0.23,0.09 -0.54,0.13 -0.92,0.13l-4.71,0.01c-0.28,0 -0.53,-0.02 -0.76,-0.04c-0.21,-0.03 -0.41,-0.08 -0.57,-0.14c-0.18,-0.07 -0.32,-0.15 -0.44,-0.25c-0.12,-0.11 -0.22,-0.24 -0.32,-0.39c-0.17,-0.27 -0.28,-0.59 -0.31,-0.94c-0.03,-0.36 -0.05,-0.72 -0.05,-1.1l0.01,-2.71l-2.14,0l0,2.66c0,0.3 0,0.59 0.02,0.87c0.02,0.29 0.05,0.57 0.11,0.84c0.05,0.27 0.12,0.53 0.22,0.79c0.1,0.26 0.25,0.5 0.42,0.71c0.22,0.3 0.46,0.53 0.72,0.7c0.27,0.16 0.53,0.29 0.79,0.36c0.27,0.09 0.52,0.14 0.78,0.16c0.25,0 0.5,0.02 0.71,0.02l5.93,-0.02c0.24,0 0.47,0 0.7,0c0.22,-0.02 0.44,-0.06 0.65,-0.09c0.22,-0.05 0.42,-0.12 0.61,-0.21c0.21,-0.09 0.39,-0.21 0.57,-0.37c0.19,0.16 0.38,0.28 0.57,0.37c0.21,0.1 0.43,0.17 0.64,0.21c0.2,0.05 0.42,0.08 0.63,0.09c0.21,0 0.41,0.02 0.61,0.02l0.62,0l0,0l11.6,0c0.17,0 0.35,0 0.56,-0.02c0.21,-0.02 0.42,-0.06 0.62,-0.11c0.22,-0.05 0.42,-0.12 0.63,-0.21c0.21,-0.1 0.39,-0.22 0.57,-0.37c0.27,-0.26 0.49,-0.58 0.63,-0.96c0.14,-0.39 0.22,-0.82 0.22,-1.27l0,-6.12l-2.07,0l0,5.81c0,0.1 0,0.21 -0.01,0.32c-0.01,0.1 -0.03,0.23 -0.05,0.34c-0.03,0.11 -0.07,0.22 -0.12,0.33c-0.05,0.11 -0.12,0.21 -0.2,0.3c-0.1,0.1 -0.19,0.18 -0.3,0.24c-0.1,0.05 -0.22,0.09 -0.33,0.12c-0.11,0.02 -0.21,0.05 -0.32,0.06c-0.12,0 -0.22,0 -0.31,0l-1.92,0l0,-7.52l-2.06,0l0,7.52l-3.56,0l0,-7.52l-2.06,0l0,7.52l-1.3,0l0,0l-0.21,0c-0.2,0 -0.4,-0.01 -0.6,-0.03c-0.22,-0.03 -0.42,-0.08 -0.6,-0.15c-0.2,-0.08 -0.37,-0.19 -0.52,-0.33c-0.15,-0.14 -0.25,-0.34 -0.32,-0.58l-0.05,-1.23l0,-5.22l-2.06,0zm38.89,1.43c0.18,0 0.38,0.02 0.58,0.03c0.19,0.01 0.4,0.04 0.59,0.09c0.19,0.05 0.38,0.13 0.56,0.22c0.18,0.1 0.35,0.23 0.5,0.39c0.13,0.12 0.23,0.26 0.3,0.41c0.08,0.15 0.14,0.3 0.18,0.47c0.05,0.16 0.08,0.33 0.11,0.5c0.01,0.16 0.02,0.32 0.02,0.46l0,0.55c0,0.2 0,0.41 -0.01,0.62c0,0.19 -0.03,0.4 -0.06,0.6c-0.05,0.2 -0.11,0.4 -0.2,0.59c-0.08,0.17 -0.19,0.35 -0.35,0.52c-0.16,0.17 -0.32,0.3 -0.5,0.41c-0.18,0.1 -0.36,0.17 -0.55,0.22c-0.19,0.05 -0.38,0.09 -0.58,0.1c-0.2,0.02 -0.4,0.03 -0.59,0.03c-0.19,0 -0.39,-0.01 -0.58,-0.03c-0.21,-0.01 -0.4,-0.05 -0.59,-0.1c-0.2,-0.05 -0.38,-0.12 -0.57,-0.22c-0.18,-0.11 -0.35,-0.24 -0.5,-0.41c-0.22,-0.25 -0.36,-0.52 -0.45,-0.81c-0.08,-0.3 -0.13,-0.6 -0.14,-0.9c0.01,-0.23 0.01,-0.48 0,-0.75c0,-0.26 0.01,-0.52 0.03,-0.79c0.03,-0.27 0.08,-0.53 0.16,-0.78c0.08,-0.24 0.21,-0.48 0.38,-0.69c0.14,-0.16 0.31,-0.29 0.5,-0.39c0.19,-0.09 0.39,-0.17 0.59,-0.22c0.21,-0.05 0.41,-0.08 0.62,-0.09c0.19,-0.01 0.39,-0.03 0.55,-0.03zm-76.44,0.01c0.2,0 0.38,0.01 0.59,0.02c0.19,0.02 0.39,0.05 0.59,0.1c0.19,0.05 0.38,0.12 0.56,0.21c0.19,0.11 0.35,0.22 0.5,0.39c0.12,0.12 0.22,0.26 0.29,0.41c0.09,0.15 0.15,0.31 0.19,0.48c0.05,0.15 0.08,0.33 0.1,0.48c0.01,0.17 0.02,0.33 0.02,0.48l0,0.54c0,0.2 0,0.41 0,0.61c0,0.21 -0.03,0.42 -0.07,0.61c-0.04,0.2 -0.1,0.4 -0.19,0.59c-0.08,0.18 -0.19,0.36 -0.36,0.52c-0.15,0.18 -0.32,0.3 -0.49,0.41c-0.18,0.1 -0.37,0.17 -0.55,0.22c-0.2,0.05 -0.39,0.09 -0.58,0.1c-0.21,0.02 -0.4,0.03 -0.59,0.03c-0.2,0 -0.39,-0.01 -0.58,-0.03c-0.21,-0.01 -0.41,-0.05 -0.6,-0.1c-0.19,-0.05 -0.38,-0.12 -0.56,-0.22c-0.18,-0.11 -0.35,-0.23 -0.5,-0.41c-0.22,-0.24 -0.37,-0.52 -0.45,-0.82c-0.08,-0.29 -0.13,-0.58 -0.14,-0.89c0.01,-0.23 0.01,-0.48 0.01,-0.74c-0.01,-0.26 0,-0.53 0.02,-0.8c0.03,-0.27 0.08,-0.52 0.16,-0.77c0.07,-0.26 0.2,-0.49 0.38,-0.7c0.14,-0.17 0.31,-0.28 0.5,-0.39c0.19,-0.09 0.39,-0.16 0.59,-0.21c0.21,-0.05 0.41,-0.08 0.61,-0.1c0.21,-0.01 0.39,-0.02 0.56,-0.02l-0.01,0zm9.74,0.1l2.71,0c0.52,0 0.88,0.11 1.08,0.36c0.04,0.05 0.07,0.13 0.09,0.23c0.03,0.11 0.04,0.23 0.06,0.36c0,0.14 0,0.26 0,0.41c0,0.16 -0.02,0.28 -0.02,0.41c-0.03,0.21 -0.09,0.43 -0.19,0.68c-0.1,0.24 -0.22,0.5 -0.38,0.76c-0.14,0.27 -0.31,0.52 -0.49,0.79c-0.17,0.27 -0.35,0.53 -0.54,0.78c-0.17,0.24 -0.35,0.47 -0.52,0.68c-0.16,0.21 -0.31,0.39 -0.42,0.54l-0.06,0c-0.11,-0.15 -0.26,-0.33 -0.42,-0.54c-0.16,-0.21 -0.34,-0.44 -0.52,-0.68c-0.17,-0.25 -0.35,-0.51 -0.53,-0.78c-0.18,-0.27 -0.35,-0.52 -0.49,-0.79c-0.16,-0.26 -0.28,-0.52 -0.38,-0.75c-0.09,-0.25 -0.15,-0.48 -0.18,-0.69c-0.01,-0.13 -0.02,-0.26 -0.02,-0.41c-0.01,-0.15 -0.01,-0.27 0,-0.41c0.01,-0.13 0.02,-0.25 0.04,-0.36c0.02,-0.1 0.06,-0.18 0.1,-0.23c0.21,-0.25 0.57,-0.36 1.09,-0.36l-0.01,0zm22.01,8.93l0,1.59l2.05,0l0,-1.59l-2.05,0zm0,0" fill="rgb(100%,100%,100%)" fill-rule="nonzero" id="svg_6"/>
   <path d="m47.52,101.69c-2.87,0 -4.23,-1.23 -4.23,-4.11c0,-3.73 1.72,-11.15 9.63,-19.05l3.38,-3.39c5.02,-5.03 6.25,-7.62 6.25,-11.5c0,-3.89 -1.58,-6.48 -4.82,-6.48c-3.66,0 -4.74,2.8 -5.1,7.05c-0.22,2.87 -2.16,4.1 -4.39,4.1c-3.59,0 -4.38,-2.88 -4.38,-5.32c0,-7.7 5.03,-13.1 13.52,-13.1c9.56,0 14.8,4.68 14.8,13.89c0,4.74 -2.01,9.57 -6.32,13.88l-5.97,5.97c-3.89,3.89 -5.75,6.77 -6.61,9.86l14.15,0c3.24,0 5.18,0.93 5.18,4.09c0,3.17 -1.94,4.11 -5.18,4.11l-19.91,0zm0,0" fill="rgb(100%,100%,100%)" fill-rule="nonzero" id="svg_7"/>
   <path d="m28.09,156.4c0,-0.83 -0.36,-1.22 -1.26,-1.22l-2.09,0c-0.68,0 -1.09,0.31 -1.09,1.05c0,0.58 0.3,1.06 1.01,1.06l1.03,0l0,0.76c0,1.64 -0.32,2.71 -1.42,2.71c-1.38,0 -1.66,-1.26 -1.66,-4.51l0,-1.85c0,-3.08 0.65,-3.62 1.55,-3.62c1.01,0 1.36,0.59 1.42,1.17c0.11,1.15 0.37,1.59 1.25,1.59c0.9,0 1.26,-0.57 1.26,-1.48c0,-1.56 -1.14,-3.25 -3.82,-3.25c-3.07,0 -4.28,1.62 -4.28,6.14l0,1.36c0,3.82 0.63,6.42 3.59,6.42c1.14,0 1.96,-0.48 2.5,-1.45l0.04,0l0,0.35c0,0.62 0.32,1.1 0.99,1.1c0.71,0 0.98,-0.39 0.98,-1.02l0,-5.31zm12.75,-1.71c0,-1.7 -0.92,-2.48 -2.19,-2.48c-0.97,0 -1.61,0.29 -2.28,1.13c-0.45,-0.84 -1.03,-1.13 -2.04,-1.13c-0.88,0 -1.76,0.42 -2.13,1.29l-0.04,0c0,-0.87 -0.45,-1.29 -1.14,-1.29c-0.69,0 -1.14,0.42 -1.14,1.35l0,7.82c0,0.92 0.45,1.35 1.14,1.35c0.69,0 1.14,-0.43 1.14,-1.35l0,-5.41c0,-1.26 0.47,-1.79 1.18,-1.79c0.48,0 0.88,0.31 0.88,1.05l0,6.15c0,0.92 0.45,1.35 1.14,1.35c0.69,0 1.14,-0.43 1.14,-1.35l0,-5.41c0,-1.26 0.47,-1.79 1.18,-1.79c0.48,0 0.88,0.31 0.88,1.05l0,6.15c0,0.92 0.45,1.35 1.14,1.35c0.69,0 1.14,-0.43 1.14,-1.35l0,-6.69zm4.04,1.49l0,-0.84c0,-0.76 0.24,-1.35 0.99,-1.35c0.75,0 0.99,0.59 0.99,1.35l0,0.84l-1.98,0zm-2.4,2.34c0,2.56 0.38,4.21 3.48,4.21c1.85,0 3.11,-1.1 3.11,-2.91c0,-0.89 -0.49,-1.12 -1.16,-1.12c-0.64,0 -1.09,0.23 -1.12,1.21c-0.02,0.54 -0.4,1.04 -0.88,1.04c-0.94,0 -1.03,-0.95 -1.03,-2.16l0,-1.02l2.99,0c1.16,0 1.27,-0.7 1.27,-1.61c0,-2.64 -0.8,-3.95 -3.18,-3.95c-3.1,0 -3.48,1.65 -3.48,4.21l0,2.1zm10.44,-1.62c0,-2.21 0.21,-2.82 0.97,-2.82c0.54,0 1.13,0.41 1.13,2.43l0,1.9c0,1.43 -0.25,2.45 -1.14,2.45c-0.85,0 -0.96,-0.97 -0.96,-2.64l0,-1.32zm-2.39,1.91c0,2.07 0.37,3.92 2.43,3.92c0.86,0 1.61,-0.37 2.02,-1.17l0.04,0c0,0.67 0.46,1.17 1.14,1.17c0.69,0 1.14,-0.43 1.14,-1.35l0,-11.14c0,-0.93 -0.45,-1.36 -1.14,-1.36c-0.7,0 -1.14,0.43 -1.14,1.36l0,3.14l-0.04,0c-0.41,-0.76 -1.18,-1.17 -2.02,-1.17c-2.06,0 -2.43,1.85 -2.43,3.91l0,2.69zm8.97,2.57c0,0.92 0.45,1.35 1.14,1.35c0.7,0 1.15,-0.43 1.15,-1.35l0,-7.82c0,-0.93 -0.45,-1.35 -1.15,-1.35c-0.69,0 -1.14,0.42 -1.14,1.35l0,7.82zm-0.17,-11.27c0,0.72 0.58,1.3 1.31,1.3c0.73,0 1.31,-0.58 1.31,-1.3c0,-0.72 -0.58,-1.3 -1.31,-1.3c-0.73,0 -1.31,0.58 -1.31,1.3zm10.94,5.07c0,-1.64 -0.33,-2.97 -3.38,-2.97c-1.76,0 -3.18,0.92 -3.18,2.67c0,0.69 0.69,0.93 1.2,0.93c0.59,0 1.03,-0.28 1.08,-0.73c0.1,-0.79 0.34,-1.19 1.12,-1.19c0.59,0 0.88,0.47 0.88,1.01c0,0.42 -0.22,0.8 -0.72,1.06l-2.04,1.05c-1.2,0.63 -1.63,1.51 -1.63,3.03c0,1.89 1.01,2.69 2.35,2.69c0.83,0 1.67,-0.35 2.08,-1.26l0.04,-0.02c0,0.98 0.58,1.28 1.2,1.28c0.72,0 1.14,-0.3 1.14,-0.89c0,-0.32 -0.14,-0.86 -0.14,-1.5l0,-5.16zm-2.28,3.89c0,1.06 -0.45,1.88 -1.19,1.88c-0.49,0 -0.81,-0.43 -0.81,-1.19c0,-0.85 0.19,-1.21 1.2,-1.91l0.8,-0.56l0,1.78zm4.02,2.25c0,0.78 0.64,1.41 1.42,1.41c0.79,0 1.43,-0.63 1.43,-1.41c0,-0.78 -0.64,-1.41 -1.43,-1.41c-0.78,0 -1.42,0.63 -1.42,1.41zm6.85,-5.03c0,-1.63 0.37,-2.21 1.01,-2.21c0.43,0 1.08,0.41 1.08,2.43l0,1.76c0,2.03 -0.58,2.44 -1.12,2.44c-0.77,0 -0.97,-0.62 -0.97,-2.82l0,-1.6zm-2.4,2.28c0,2.06 0.38,3.92 2.43,3.92c0.98,0 1.5,-0.2 2.02,-1.13l0.04,0l0,1.39c0,1.35 -0.2,1.98 -1.19,1.98c-0.28,0 -0.6,-0.16 -0.79,-0.61c-0.15,-0.35 -0.49,-0.67 -1.01,-0.67c-0.66,0 -1.14,0.37 -1.14,1.01c0,1.31 1.29,1.87 2.99,1.87c2.28,0 3.42,-1 3.42,-3.29l0,-9.48c0,-0.93 -0.44,-1.35 -1.08,-1.35c-0.71,0 -1.12,0.42 -1.12,1.35l-0.04,0c-0.35,-0.87 -1.22,-1.35 -2.1,-1.35c-1.92,0 -2.43,1.85 -2.43,3.76l0,2.6zm10.98,-2.32c0,-1.82 0.38,-2.26 1.05,-2.26c0.67,0 1.05,0.44 1.05,2.26l0,2.39c0,1.86 -0.3,2.31 -1.05,2.31c-0.75,0 -1.05,-0.45 -1.05,-2.31l0,-2.39zm-2.39,2.58c0,2.15 0.71,3.9 3.44,3.9c2.73,0 3.44,-1.75 3.44,-3.9l0,-2.72c0,-2.16 -0.71,-3.9 -3.44,-3.9c-2.73,0 -3.44,1.74 -3.44,3.9l0,2.72zm9.89,2.47c0.22,0.97 0.49,1.43 1.7,1.43c1.13,0 1.44,-0.37 1.61,-1.02l1.84,-7.76c0.07,-0.28 0.11,-0.5 0.11,-0.78c0,-0.46 -0.32,-0.96 -1.13,-0.96c-0.78,0 -1.06,0.44 -1.19,1.18l-1.14,6.59l-0.04,0l-1.2,-6.59c-0.15,-0.85 -0.52,-1.18 -1.29,-1.18c-0.6,0 -1.16,0.37 -1.16,1.04c0,0.16 0.04,0.29 0.09,0.52l1.8,7.53zm5.46,0.02c0,0.78 0.64,1.41 1.42,1.41c0.79,0 1.43,-0.63 1.43,-1.41c0,-0.78 -0.64,-1.41 -1.43,-1.41c-0.78,0 -1.42,0.63 -1.42,1.41zm7.62,-2.47c0.63,0.48 0.8,0.76 0.8,1.26c0,0.6 -0.3,0.93 -0.9,0.93c-0.71,0 -0.96,-0.39 -0.99,-0.82c-0.07,-0.94 -0.36,-1.39 -1.2,-1.39c-0.54,0 -1.08,0.28 -1.08,1.13c0,1.17 0.69,2.77 3.14,2.77c1.87,0 3.31,-0.98 3.31,-2.95c0,-1.36 -0.75,-2.03 -2.17,-3.08l-1.4,-1.06c-0.38,-0.28 -0.51,-0.63 -0.51,-0.96c0,-0.49 0.32,-0.79 0.79,-0.79c0.58,0 0.95,0.34 0.99,1.02c0.04,0.56 0.32,0.88 0.93,0.88c0.92,0 1.2,-0.45 1.2,-1.11c0,-0.82 -0.63,-2.47 -3.07,-2.47c-1.83,0 -3.12,0.89 -3.12,2.7c0,1.06 0.22,1.7 1.53,2.66l1.75,1.28zm11.05,-3.67c0,-1.64 -0.34,-2.97 -3.39,-2.97c-1.76,0 -3.18,0.92 -3.18,2.67c0,0.69 0.7,0.93 1.2,0.93c0.6,0 1.03,-0.28 1.09,-0.73c0.09,-0.79 0.33,-1.19 1.12,-1.19c0.57,0 0.88,0.47 0.88,1.01c0,0.42 -0.23,0.8 -0.74,1.06l-2.03,1.05c-1.2,0.63 -1.63,1.51 -1.63,3.03c0,1.89 1.01,2.69 2.36,2.69c0.82,0 1.66,-0.35 2.07,-1.27l0.04,-0.01c0,0.98 0.58,1.28 1.2,1.28c0.73,0 1.14,-0.3 1.14,-0.89c0,-0.32 -0.13,-0.86 -0.13,-1.5l0,-5.16zm-2.28,3.89c0,1.06 -0.45,1.88 -1.2,1.88c-0.49,0 -0.8,-0.43 -0.8,-1.19c0,-0.85 0.18,-1.21 1.19,-1.91l0.81,-0.56l0,1.78zm0,0" fill="rgb(100%,100%,100%)" fill-rule="evenodd" id="svg_8"/>
  </g>
 </g>
</svg>