<?xml version="1.0" encoding="UTF-8" standalone="no"?>
<svg
   version="1.1"
   viewBox="12.24 7 1260.43 1612"
   id="svg206"
   sodipodi:docname="GCAM_tbc_VG_symbol copy.svg"
   inkscape:version="1.4.2 (ebf0e940d0, 2025-05-08)"
   width="1260.4301"
   height="1612"
   xmlns:inkscape="http://www.inkscape.org/namespaces/inkscape"
   xmlns:sodipodi="http://sodipodi.sourceforge.net/DTD/sodipodi-0.dtd"
   xmlns="http://www.w3.org/2000/svg"
   xmlns:svg="http://www.w3.org/2000/svg">
  <defs
     id="defs206" />
  <sodipodi:namedview
     id="namedview206"
     pagecolor="#ffffff"
     bordercolor="#000000"
     borderopacity="0.25"
     inkscape:showpageshadow="2"
     inkscape:pageopacity="0.0"
     inkscape:pagecheckerboard="0"
     inkscape:deskcolor="#d1d1d1"
     inkscape:zoom="0.22770007"
     inkscape:cx="630.215"
     inkscape:cy="808.08056"
     inkscape:window-width="1280"
     inkscape:window-height="730"
     inkscape:window-x="0"
     inkscape:window-y="0"
     inkscape:window-maximized="1"
     inkscape:current-layer="svg206" />
  <path
     fill="#ffffff"
     d="M 12.24,1619 V 7 h 1259.83 v 1612 z"
     id="path130"
     sodipodi:nodetypes="ccccc" />
  <path
     id="rect150"
     style="opacity:1;vector-effect:none;fill:#26429d;fill-rule:evenodd;stroke-width:31.945;stroke-miterlimit:10;stop-color:#000000;stop-opacity:1"
     d="M 70.321999,64.528999 H 1214.8301 V 1305.8 H 70.321999 Z" />
  <path
     fill="#ffffff"
     d="m 786.7761,187.2886 a 0.36,0.36 0 0 1 -0.3606,0.3593 l -20.56,-0.0359 a 0.36,0.36 0 0 1 -0.3594,-0.3606 l 0.0278,-15.92 a 0.36,0.36 0 0 1 0.3606,-0.3593 l 20.56,0.0359 a 0.36,0.36 0 0 1 0.3594,0.3606 z"
     id="path132" />
  <path
     fill="#ffffff"
     d="m 815.37,187.17 a 0.47,0.47 0 0 1 -0.47,0.47 h -20.4 a 0.47,0.47 0 0 1 -0.47,-0.47 v -15.7 A 0.47,0.47 0 0 1 794.5,171 h 20.4 a 0.47,0.47 0 0 1 0.47,0.47 z"
     id="path133" />
  <path
     fill="#ffffff"
     d="m 532.82,294.71 q 58.51,0.27 102.43,-0.03 c 12.35,-0.09 16.51,-9.2 16.59,-19.94 q 0.2,-28.38 0.03,-58.82 0,-0.42 0.43,-0.42 l 20.43,-0.02 q 0.55,0 0.55,0.54 -0.05,27.32 0.02,52.22 0.02,7.17 0.54,14.72 c 0.4,5.83 6.84,9.98 12.16,10.99 q 4.59,0.87 9.98,0.88 46.22,0.02 93.27,-0.06 c 4.4,0 10.54,-0.74 14.32,-2.47 q 7.11,-3.25 8.91,-11.65 0.14,-0.65 -0.52,-0.65 -17.42,0.02 -36.15,-0.04 c -11.94,-0.03 -24.89,-4.07 -30.07,-14.94 q -2.29,-4.81 -3.06,-12.39 c -1.16,-11.4 -0.71,-24.27 4.8,-33.85 6.64,-11.57 18.23,-16.03 31.19,-16.34 q 20.84,-0.49 37.22,-0.42 12.74,0.06 16.69,9.24 1.71,3.98 1.71,13.12 -0.02,25.64 -0.2,47.76 -0.09,10.94 -3.22,19.81 c -5.58,15.85 -23.16,19.59 -38.37,19.57 q -54.23,-0.06 -102.39,-0.08 c -9.77,0 -18.79,-0.18 -26.57,-6.69 q -0.42,-0.36 -0.85,0 c -6.26,5.21 -14.09,6.69 -22.25,6.69 q -91.27,0.01 -185.19,0.07 -1.51,0.01 -1.51,-1.5 l -0.01,-14.71 q 0,-0.5 0.5,-0.5 18.95,0.1 37.02,-0.08 c 10.42,-0.1 20.47,-3.88 22.82,-15.22 q 2.15,-10.36 0.84,-25.75 c -1.2,-14.09 -9.92,-21.54 -23.94,-21.59 q -17.28,-0.06 -34.73,-0.03 a 0.4,0.4 0 0 1 -0.4,-0.4 l 0.03,-15.72 q 0,-0.51 0.51,-0.52 21.8,-0.07 44.94,0.04 6.38,0.03 14.16,2.96 c 12.6,4.74 19.36,16.2 21.08,28.94 q 1.8,13.37 0.38,30.52 -0.73,8.79 -4.51,16.12 -0.33,0.64 0.39,0.64 z m 233.27,-67.63 c -3.02,5.66 -3.46,14.04 -2.98,20.39 q 0.48,6.37 2.39,9.32 c 2.07,3.2 6.73,5.62 10.92,6.01 q 3.21,0.3 6.1,0.37 13.66,0.33 29.66,0.22 0.57,-0.01 0.57,-0.58 0,-18 0,-36.32 0,-7.4 -7.26,-7.62 -9.01,-0.28 -23.33,0.25 c -5.88,0.22 -13.13,2.45 -16.07,7.96 z"
     id="path134" />
  <path
     fill="#ffffff"
     d="m 660.49,342.49 a 0.3,0.3 0 0 1 -0.3,0.3 h -20.74 a 0.3,0.3 0 0 1 -0.3,-0.3 v -15.94 a 0.3,0.3 0 0 1 0.3,-0.3 h 20.74 a 0.3,0.3 0 0 1 0.3,0.3 z"
     id="path136" />
  <path
     fill="#ffffff"
     d="m 688.96,342.43 a 0.36,0.36 0 0 1 -0.36,0.36 h -20.7 a 0.36,0.36 0 0 1 -0.36,-0.36 v -15.82 a 0.36,0.36 0 0 1 0.36,-0.36 h 20.7 a 0.36,0.36 0 0 1 0.36,0.36 z"
     id="path137" />
  <path
     fill="#ffffff"
     d="M 950.99,682.44 A 304.16,304.16 0 0 1 646.83,986.6 304.16,304.16 0 0 1 342.67,682.44 304.16,304.16 0 0 1 646.83,378.28 304.16,304.16 0 0 1 950.99,682.44 Z M 909.3,682.43 A 262.46,262.46 0 0 0 646.84,419.97 262.46,262.46 0 0 0 384.38,682.43 262.46,262.46 0 0 0 646.84,944.89 262.46,262.46 0 0 0 909.3,682.43 Z"
     id="path138" />
  <path
     id="path140"
     d="m 621.70094,556.50586 c -12.68405,-0.32604 -19.96641,8.84453 -22.30078,20.86328 -11.74667,60.47333 -23.05326,118.73149 -33.91993,174.77148 -2.34,12.11001 1.86977,21.99016 15.75977,20.66016 9.77,-0.93 17.04031,-8.13008 19.32031,-17.58008 0.18,-0.74 0.40016,-0.75435 0.66016,-0.041 3.74667,10.24 11.16023,16.01674 22.24023,17.33008 36.61,4.33 49.13977,-29.41914 54.75977,-58.11915 2.91333,-14.89333 5.94008,-30.50651 9.08008,-46.83984 1.65333,-8.59333 2.54635,-16.7476 2.67968,-24.46094 0.31,-17.24 -5.18086,-32.25953 -24.63085,-34.01953 -14.97001,-1.36 -30.12954,4.91063 -39.26954,17.64063 -0.58666,0.82 -0.78317,0.73666 -0.58984,-0.25 3.39333,-17.17334 6.61969,-33.99737 9.67969,-50.47071 1.64,-8.81 -0.49938,-18.04101 -10.85938,-19.29101 -0.89375,-0.10813 -1.76377,-0.17162 -2.60937,-0.19336 z m 18.64453,81.85352 c 0.48829,-0.0184 0.98664,-0.0159 1.49414,0.01 8.51,0.43 9.58094,8.46055 9.21094,15.06055 -0.39334,7.05333 -1.25651,14.19945 -2.58985,21.43945 -3.03333,16.48667 -5.91086,30.78396 -8.63086,42.89063 -1.52,6.79 -4.29007,15.66929 -9.08007,21.02929 -4.22,4.71 -12.39,6.59125 -17.75,2.28125 -7.1,-5.69 -5.28922,-21.00031 -3.94922,-28.82031 1.92,-11.17333 4.48898,-24.57255 7.70898,-40.19922 2.45094,-11.89625 8.44885,-33.12198 23.58594,-33.6914 z"
     style="fill:#ffffff" />
  <path
     fill="#ffffff"
     d="m 537.97,612.37 c 10.43,0.01 24.05,-1.77 20.32,14.41 -2.96,12.77 -14.92,12.7 -25.44,11.98 a 0.75,0.75 0 0 0 -0.79,0.6 q -9.24,47.27 -18.15,93.63 c -3.02,15.71 20.24,2.47 18.8,18.81 -0.8,9.01 -5.56,16.23 -14.6,18.11 -15.78,3.27 -40.27,1.63 -42.23,-18.91 q -0.39,-4.07 0.67,-9.52 9.24,-47.48 19.75,-101.84 a 0.67,0.67 0 0 0 -0.7,-0.8 q -5.56,0.38 -10.38,-0.93 c -7.99,-2.18 -6.64,-11.3 -4.25,-16.89 3.55,-8.29 12.06,-8.88 19.8,-8.68 a 1.02,1.03 6.2 0 0 1.04,-0.84 q 2.68,-14.71 5.73,-29.19 c 2.57,-12.17 11.58,-20.15 24.5,-18.64 10.93,1.28 12.32,11.65 10.69,20.39 q -2.69,14.43 -5.37,27.56 -0.15,0.75 0.61,0.75 z"
     id="path141" />
  <path
     fill="#ffffff"
     d="m 815.4,707.24 q 0.43,0.14 0.74,0.5 c 3.81,4.44 4.12,10.64 2.98,16.16 -5.42,26.31 -23.64,45.84 -51.19,48.61 -12.18,1.23 -27.31,0.21 -37.52,-6.64 -17.03,-11.41 -13.29,-37.53 -10.12,-54.62 q 4.23,-22.83 8.52,-43.6 c 3.41,-16.57 9.26,-34.14 21.63,-45.41 11.33,-10.32 26.58,-13.48 42.32,-13.37 20.72,0.14 39.17,8.35 40.95,31.63 0.85,11.19 -2.54,25.83 -14.63,30.01 q -6.93,2.39 -14.5,0.32 c -9.41,-2.57 -8.24,-12.8 -6.96,-20.11 1.07,-6.15 -1.1,-12.28 -7.78,-13.57 -17.62,-3.38 -21.95,21.14 -24.26,32.99 q -4.62,23.69 -8.47,44.27 c -1.7,9.04 -5.83,33.26 11.42,30.3 q 10.22,-1.75 13.28,-13.35 c 2.26,-8.57 5.29,-21.95 14.44,-25.89 5.27,-2.27 14.22,-3.18 18.64,1.44 a 1.34,1.23 75.6 0 0 0.51,0.33 z"
     id="path142" />
  <path
     fill="#ffffff"
     d="m 837.4939,1072.6513 a 0.35,0.35 0 0 1 -0.3494,0.3506 l -20.68,0.036 a 0.35,0.35 0 0 1 -0.3506,-0.3494 l -0.0278,-15.9399 a 0.35,0.35 0 0 1 0.3494,-0.3506 l 20.68,-0.036 a 0.35,0.35 0 0 1 0.3506,0.3494 z"
     id="path144" />
  <path
     fill="#ffffff"
     d="m 865.99,1072.69 a 0.33,0.33 0 0 1 -0.33,0.33 h -20.74 a 0.33,0.33 0 0 1 -0.33,-0.33 v -15.98 a 0.33,0.33 0 0 1 0.33,-0.33 h 20.74 a 0.33,0.33 0 0 1 0.33,0.33 z"
     id="path145" />
  <path
     id="path146"
     style="fill:#ffffff"
     d="m 924.9607,1056.3496 -20.12109,0.031 a 0.45,0.46 0 0 0 -0.44922,0.4589 c 0,28.6867 0.003,57.5642 0.01,86.6309 0.01,10.95 -1.80047,22.3196 -15.23047,23.3496 -8.62,0.66 -16.45024,0.5499 -23.49024,-0.3301 -5.28,-0.65 -12.69906,-4.9197 -13.03906,-11.0097 -0.34,-6.07 -0.62133,-12.1699 -0.61133,-18.0899 0.02,-15.96 0.0251,-32.5701 0.0117,-49.8301 a 0.29,0.29 0 0 0 -0.29101,-0.291 l -20.54883,0.01 a 0.52,0.52 0 0 0 -0.52149,0.5215 c 0.04,19.6533 0.04,39.0021 0,58.0488 -0.03,10.82 -3.18961,20.271 -15.59961,21.041 -5.90666,0.36 -11.7307,0.4321 -17.4707,0.2188 a 0.29,0.3 15.8 0 1 -0.23828,-0.4395 c 4.25,-7.74 5.37984,-16.58 5.58984,-25.5 0.16,-6.82 -0.0272,-13.2335 -0.56054,-19.2402 -1.89,-21.36 -15.13,-34.1999 -36.75,-34.1699 -15.44667,0.02 -29.86955,0.011 -43.26953,-0.029 -11.95001,-0.03 -26.35047,2.4288 -34.23047,11.7988 -0.42667,0.5067 -0.63753,0.4315 -0.63086,-0.2285 l 0.13086,-10.961 c 0.007,-0.3866 -0.18365,-0.58 -0.57032,-0.58 H 666.74 a 0.5,0.5 0 0 0 -0.5,0.5 v 78.5 c 0,0.26 -0.12753,0.3906 -0.38086,0.3906 -6.01333,0.1 -12.17186,0.067 -18.47851,-0.1 -6.79002,-0.18 -13.66993,-1.5713 -17.41993,-7.5313 -1.04,-1.6666 -1.61713,-4.0155 -1.73047,-7.0488 -0.14666,-3.9333 -0.23,-7.5969 -0.25,-10.9902 -0.12,-16.0934 -0.13434,-34.0697 -0.041,-53.9297 a 0.26,0.26 0 0 0 -0.25977,-0.2617 l -20.83007,0.012 a 0.32,0.32 0 0 0 -0.32032,0.3183 c 0.0867,18.5867 0.0681,38.5383 -0.0586,59.8516 -0.05,7.62 -2.62047,16.1788 -10.48047,18.4688 -6.02,1.76 -14.18094,1.471 -20.46094,0.371 -5.93,-1.03 -12.09976,-5.2 -12.50976,-11.58 -0.24,-3.82 -0.37994,-7.6534 -0.41992,-11.5 -0.18668,-19.06 -0.19287,-37.348 -0.0195,-54.8614 0,-0.4066 -0.2027,-0.6093 -0.60937,-0.6093 H 541.7107 a 0.49,0.49 0 0 0 -0.49023,0.4902 c 0.007,20.62 -0.0139,39.7301 -0.0605,57.3301 -0.007,3.78 -0.45627,7.2358 -1.34961,10.3691 -2.77,9.73 -10.43976,11.2107 -19.25976,11.2207 -23.30667,0.04 -44.36636,0.046 -63.17969,0.02 -0.29333,0 -0.44141,-0.1462 -0.44141,-0.4395 0.0333,-21.9667 0.024,-42.5438 -0.0293,-61.7305 -0.02,-6.2 -2.06008,-11.7102 -7.83008,-14.9902 -3.65,-2.09 -8.66985,-2.2595 -12.83985,-2.2695 -10.9,-0.02 -22.65,-0.014 -35.25,0.019 -9.53,0.02 -18.11046,2.2907 -24.98046,9.2207 -6.68,6.73 -9.56055,14.3898 -10.56055,23.8398 -1.06667,10.1534 -0.97828,20.1739 0.26172,30.0606 0.7,5.6267 2.04263,10.8972 4.02929,15.8105 a 0.3,0.3 0 0 1 -0.26953,0.42 c -4.00666,0.087 -8.43148,0.072 -13.27148,-0.041 -5.54667,-0.1333 -9.82651,-0.8596 -12.83984,-2.1796 -10.47001,-4.59 -11.00922,-17.3001 -10.94922,-27.8301 0.0667,-9.8734 0.0965,-19.3908 0.0898,-28.5508 0,-0.32 -0.16047,-0.4785 -0.48047,-0.4785 h -21.25 c -0.14667,0 -0.21875,0.072 -0.21875,0.2187 -0.32667,12.2934 -0.28133,24.993 0.13867,38.0996 0.68,21.5 13.03993,37.4202 36.16993,37.4102 59.96665,-0.02 120.84729,-0.032 182.64062,-0.039 8.33,0 16.0307,-1.3909 22.4707,-6.7109 0.28,-0.2267 0.5517,-0.2236 0.81836,0.01 5,4.3 11.71396,6.5108 20.14063,6.6308 6.90666,0.1 14.28729,0.1299 22.14062,0.09 8.09,-0.04 15.90891,-1.4196 22.12891,-6.5996 a 0.72,0.72 0 0 1 0.89062,-0.02 c 5.80667,4.4067 12.72024,6.6094 20.74024,6.6094 59.06,0.027 119.75341,0.024 182.08008,-0.01 8.06,-0.01 14.91388,-2.2144 20.56054,-6.6211 a 0.65,0.65 0 0 1 0.81836,0 c 8.68,6.78 17.37016,6.69 29.41016,6.67 7.72667,-0.013 15.42008,-0.059 23.08008,-0.1387 15.16,-0.15 27.31031,-8.4198 30.07031,-23.7598 0.58,-3.2533 0.87109,-6.7882 0.87109,-10.6015 -0.007,-32.4334 -4.7e-4,-63.1566 0.0195,-92.17 0,-0.5133 -0.25619,-0.7695 -0.76953,-0.7695 z m -202.30078,48.0098 c 10.80667,0.16 21.67914,0.1681 32.61914,0.022 3.68667,-0.053 7.06729,0.2687 10.14063,0.9687 12.16,2.76 14.7807,12.2711 15.2207,23.1211 0.26,6.38 0.21581,12.5734 -0.13086,18.5801 -0.54,9.59 -5.31892,17.7997 -15.3789,19.2597 -4.14,0.6 -8.47024,0.9004 -12.99024,0.9004 -21.93333,0 -43.43023,-0.014 -64.49023,-0.041 a 0.34,0.33 0 0 1 -0.13086,-0.025 0.34,0.33 0 0 1 -0.0762,-0.043 0.34,0.33 0 0 1 -0.13282,-0.2618 c 0.0267,-11.7066 0.0802,-22.4958 0.16016,-32.3691 0.0333,-3.34 0.73604,-6.9346 2.10937,-10.7812 3.18667,-8.9067 9.00761,-14.7761 17.46094,-17.6094 3.69333,-1.24 8.89914,-1.8141 15.61914,-1.7207 z m -305.35547,0.049 c 4.77147,0.01 8.44918,0.055 11.03516,0.1426 1.19333,0.038 2.23781,0.2206 3.13281,0.5469 0.22375,0.082 0.43748,0.1719 0.64258,0.2714 0.41021,0.1992 0.78352,0.434 1.11914,0.7051 0.16782,0.1355 0.32544,0.2801 0.47461,0.4336 0.14954,0.1539 0.28911,0.3164 0.41992,0.4883 0.26104,0.3431 0.48542,0.7217 0.67188,1.1367 0.46614,1.0376 0.69922,2.2996 0.69922,3.7871 0,18.0465 -0.003,36.3298 -0.01,54.8496 a 0.38,0.38 0 0 1 -0.004,0.049 0.38,0.38 0 0 1 -0.27734,0.3183 0.38,0.38 0 0 1 -0.0508,0.01 0.38,0.38 0 0 1 -0.0488,0 c -8.37333,0.1 -16.83844,0.076 -25.39844,-0.07 -2.58666,-0.04 -5.30682,-0.2396 -8.16015,-0.5996 -0.8506,-0.1062 -1.66703,-0.2776 -2.44532,-0.5078 -5.9e-4,-2e-4 -10e-4,1e-4 -0.002,0 -5.4518,-1.6135 -9.09281,-6.1529 -10.41406,-11.9629 -1.84667,-8.1667 -2.30557,-17.4322 -1.37891,-27.7989 0.15369,-1.7218 0.37671,-3.3537 0.67774,-4.8886 1.2e-4,-7e-4 -1.3e-4,0 0,0 0.45181,-2.3032 1.0797,-4.3912 1.91406,-6.2519 0.27788,-0.6198 0.57948,-1.2145 0.9043,-1.7832 2.7e-4,-5e-4 -2.8e-4,0 0,0 0.65001,-1.1379 1.39659,-2.1718 2.24804,-3.0996 0.42624,-0.4645 0.87927,-0.9021 1.35938,-1.3125 3.35805,-2.8705 8.06047,-4.4064 14.49609,-4.4414 3.09754,-0.018 5.89618,-0.025 8.39453,-0.021 z" />
  <path
     fill="#ffffff"
     d="m 973.15,1183.32 a 0.44,0.44 0 0 1 -0.44,0.44 h -20.6 a 0.44,0.44 0 0 1 -0.44,-0.44 v -126.48 a 0.44,0.44 0 0 1 0.44,-0.44 h 20.6 a 0.44,0.44 0 0 1 0.44,0.44 z"
     id="path147" />
  <path
     fill="#ffffff"
     d="m 423.83,1073.63 a 0.28,0.28 0 0 1 -0.28,0.28 h -20.76 a 0.28,0.28 0 0 1 -0.28,-0.28 v -16.1 a 0.28,0.28 0 0 1 0.28,-0.28 h 20.76 a 0.28,0.28 0 0 1 0.28,0.28 z"
     id="path148" />
  <path
     fill="#ffffff"
     d="m 627.7139,1073.5113 a 0.38,0.38 0 0 1 -0.3794,0.3807 l -20.6199,0.036 a 0.38,0.38 0 0 1 -0.3807,-0.3794 l -0.0278,-15.8999 a 0.38,0.38 0 0 1 0.3794,-0.3807 l 20.6199,-0.036 a 0.38,0.38 0 0 1 0.3807,0.3794 z"
     id="path149" />
  <path
     fill="#ffffff"
     d="m 549.7,1214.77 a 0.38,0.38 0 0 1 -0.38,0.38 h -20.56 a 0.38,0.38 0 0 1 -0.38,-0.38 v -15.84 a 0.38,0.38 0 0 1 0.38,-0.38 h 20.56 a 0.38,0.38 0 0 1 0.38,0.38 z"
     id="path152" />
  <path
     fill="#ffffff"
     d="m 578.22,1214.78 a 0.37,0.37 0 0 1 -0.37,0.37 h -20.72 a 0.37,0.37 0 0 1 -0.37,-0.37 v -15.86 a 0.37,0.37 0 0 1 0.37,-0.37 h 20.72 a 0.37,0.37 0 0 1 0.37,0.37 z"
     id="path153" />
  <g
     id="g2"
     transform="matrix(0.87233813,0,0,0.87720347,-0.773186,-8.6893998)">
    <path
       d="M 81.499574,1498.5 81.462894,1788.75 1393.5,1789.5 v -291 z"
       id="path23-7"
       sodipodi:nodetypes="ccccc" />
    <path
       d="m 292.7093,1630.4134 c 0,-8.7049 -3.7034,-12.7684 -13.05932,-12.7684 h -21.83051 c -7.01695,0 -11.30508,3.2897 -11.30508,11.0282 0,5.9965 3.11864,11.0265 10.52542,11.0265 h 10.72034 v 7.9327 c 0,17.0248 -3.31356,28.2457 -14.81356,28.2457 -14.42373,0 -17.34746,-13.1554 -17.34746,-47.0124 v -19.3462 c 0,-32.1149 6.82203,-37.7244 16.17797,-37.7244 10.52542,0 14.22881,6.1909 14.81356,12.1873 1.16949,11.9947 3.8983,16.6378 13.05932,16.6378 9.35592,0 13.05932,-5.9965 13.05932,-15.477 0,-16.251 -11.88983,-33.8552 -39.76271,-33.8552 -31.9661,0 -44.63559,16.8305 -44.63559,64.0354 v 14.1236 c 0,39.8534 6.62712,66.9382 37.42373,66.9382 11.88982,0 20.4661,-5.0301 26.11864,-15.0902 h 0.38983 v 3.675 c 0,6.3851 3.31355,11.4152 10.3305,11.4152 7.40678,0 10.1356,-4.0636 10.1356,-10.6414 z m 132.93201,-17.7986 c 0,-17.7986 -9.55085,-25.924 -22.80508,-25.924 -10.13559,0 -16.76271,3.0955 -23.77965,11.8021 -4.67798,-8.7066 -10.72035,-11.8021 -21.24577,-11.8021 -9.16101,0 -18.32203,4.4505 -22.22033,13.5425 h -0.38983 c 0,-9.092 -4.67798,-13.5425 -11.88983,-13.5425 -7.21188,0 -11.88984,4.4505 -11.88984,14.1237 v 81.447 c 0,9.6732 4.67796,14.1237 11.88984,14.1237 7.21185,0 11.88983,-4.4505 11.88983,-14.1237 v -56.2969 c 0,-13.1553 4.87287,-18.7666 12.27965,-18.7666 5.0678,0 9.16102,3.2897 9.16102,11.0282 v 64.0353 c 0,9.6732 4.67796,14.1237 11.88983,14.1237 7.21186,0 11.88982,-4.4505 11.88982,-14.1237 v -56.2969 c 0,-13.1553 4.87289,-18.7666 12.27967,-18.7666 5.06779,0 9.16101,3.2897 9.16101,11.0282 v 64.0353 c 0,9.6732 4.67797,14.1237 11.88984,14.1237 7.21186,0 11.88982,-4.4505 11.88982,-14.1237 z m 42.10187,15.4771 v -8.705 c 0,-7.9328 2.5339,-14.1236 10.33051,-14.1236 7.7966,0 10.3305,6.1908 10.3305,14.1236 v 8.705 z m -24.94915,24.3763 c 0,26.6979 3.8983,43.917 36.25422,43.917 19.29662,0 32.35594,-11.4152 32.35594,-30.3745 0,-9.2863 -5.06779,-11.6079 -12.08474,-11.6079 -6.62713,0 -11.30509,2.3216 -11.69492,12.576 -0.19578,5.6095 -4.09322,10.834 -9.16101,10.834 -9.74577,0 -10.72034,-9.8675 -10.72034,-22.4418 v -10.6414 h 31.18644 c 12.08474,0 13.25423,-7.3515 13.25423,-16.8302 0,-27.4718 -8.38136,-41.2086 -33.1356,-41.2086 -32.35592,0 -36.25422,17.2191 -36.25422,43.917 z m 108.76269,-16.8304 c 0,-23.023 2.14408,-29.4063 10.1356,-29.4063 5.65254,0 11.69491,4.2562 11.69491,25.3428 v 19.7332 c 0,14.8975 -2.5339,25.5371 -11.88982,25.5371 -8.77119,0 -9.94069,-10.06 -9.94069,-27.4717 z m -24.94914,19.9259 c 0,21.4752 3.8983,40.8215 25.33898,40.8215 8.9661,0 16.76271,-3.8693 21.05084,-12.189 h 0.38983 c 0,6.9647 4.87288,12.189 11.88983,12.189 7.21186,0 11.88982,-4.4505 11.88982,-14.1237 v -116.0777 c 0,-9.6732 -4.67796,-14.122 -11.88982,-14.122 -7.21187,0 -11.88983,4.4488 -11.88983,14.122 v 32.6961 h -0.38983 c -4.28813,-7.9329 -12.27966,-12.1891 -21.05084,-12.1891 -21.44068,0 -25.33898,19.3463 -25.33898,40.8216 z m 93.55913,26.6978 c 0,9.6732 4.67796,14.1237 11.88984,14.1237 7.21185,0 11.88982,-4.4505 11.88982,-14.1237 v -81.447 c 0,-9.6732 -4.67797,-14.1237 -11.88982,-14.1237 -7.21188,0 -11.88984,4.4505 -11.88984,14.1237 z m -1.75424,-117.4311 c 0,7.5442 6.04237,13.5425 13.64408,13.5425 7.60168,0 13.64405,-5.9983 13.64405,-13.5425 0,-7.5458 -6.04237,-13.5424 -13.64405,-13.5424 -7.60171,0 -13.64408,5.9966 -13.64408,13.5424 z m 114.02542,52.8146 c 0,-17.0248 -3.50847,-30.9542 -35.27966,-30.9542 -18.32203,0 -33.13559,9.6732 -33.13559,27.8587 0,7.159 7.21187,9.6732 12.47457,9.6732 6.23729,0 10.72035,-2.9011 11.30508,-7.5442 0.97372,-8.3198 3.50848,-12.3816 11.69493,-12.3816 6.04237,0 9.161,4.8356 9.161,10.4469 0,4.4488 -2.33897,8.318 -7.60168,11.0266 l -21.24576,11.0282 c -12.47457,6.5777 -16.95763,15.6696 -16.95763,31.5335 0,19.7333 10.52543,28.0531 24.55932,28.0531 8.57627,0 17.34745,-3.6766 21.6356,-13.1555 l 0.38983,-0.1892 c 0,10.2545 6.04237,13.3498 12.47457,13.3498 7.60169,0 11.88983,-3.0953 11.88983,-9.2863 0,-3.2897 -1.36528,-8.8992 -1.36528,-15.6712 z m -23.77967,40.6271 c 0,11.0283 -4.67796,19.5407 -12.47457,19.5407 -5.06779,0 -8.38136,-4.4505 -8.38136,-12.3817 0,-8.8993 1.94916,-12.5759 12.47459,-19.9275 l 8.38134,-5.8039 z m 41.90679,23.4098 c 0,8.1255 6.62712,14.7033 14.81356,14.7033 8.18643,0 14.81355,-6.5778 14.81355,-14.7033 0,-8.1254 -6.62712,-14.7031 -14.81355,-14.7031 -8.18644,0 -14.81356,6.5777 -14.81356,14.7031 z m 71.33897,-52.4292 c 0,-17.0248 3.8983,-23.0212 10.5254,-23.0212 4.4831,0 11.3051,4.2562 11.3051,25.3428 v 18.3798 c 0,21.0866 -6.0424,25.3428 -11.6949,25.3428 -7.9915,0 -10.1356,-6.3834 -10.1356,-29.4064 z m -24.94915,23.7968 c 0,21.4735 3.8983,40.8197 25.33895,40.8197 10.1356,0 15.5933,-2.1271 21.0509,-11.8003 h 0.3898 v 14.5088 c 0,14.1237 -2.1441,20.7014 -12.4746,20.7014 -2.9237,0 -6.2373,-1.7419 -8.1864,-6.3851 -1.5593,-3.675 -5.0678,-6.9647 -10.5254,-6.9647 -6.82206,0 -11.88985,3.8693 -11.88985,10.447 0,13.7368 13.44915,19.5407 31.18645,19.5407 23.7796,0 35.6695,-10.447 35.6695,-34.2438 v -98.8587 c 0,-9.6732 -4.678,-14.1237 -11.3051,-14.1237 -7.4068,0 -11.6949,4.4505 -11.6949,14.1237 h -0.3899 c -3.7034,-9.0936 -12.6694,-14.1237 -21.8305,-14.1237 -20.07624,0 -25.33895,19.3463 -25.33895,39.2738 z m 114.41525,-24.1838 c 0,-18.9593 3.8983,-23.6024 10.9152,-23.6024 7.017,0 10.9153,4.6431 10.9153,23.6024 v 24.9576 c 0,19.3463 -3.1187,23.9895 -10.9153,23.9895 -7.7966,0 -10.9152,-4.6432 -10.9152,-23.9895 z m -24.9492,26.8923 c 0,22.4417 7.4068,40.6272 35.8644,40.6272 28.4577,0 35.86451,-18.1855 35.86451,-40.6272 v -28.4399 c 0,-22.4418 -7.40681,-40.6273 -35.86451,-40.6273 -28.4576,0 -35.8644,18.1855 -35.8644,40.6273 z m 103.11021,25.7297 c 2.3389,10.0601 5.0678,14.8975 17.73731,14.8975 11.6949,0 15.0085,-3.8693 16.7626,-10.6414 l 19.1018,-80.8675 c 0.7796,-2.9011 1.1695,-5.2226 1.1695,-8.1254 0,-4.8356 -3.3136,-10.0601 -11.6949,-10.0601 -8.1864,0 -11.1102,4.6432 -12.4746,12.3816 l -11.8898,68.6802 h -0.3898 l -12.47471,-68.6802 c -1.5592,-8.8992 -5.4575,-12.3816 -13.449,-12.3816 -6.2373,0 -12.0848,3.8693 -12.0848,10.834 0,1.742 0.3898,3.0954 0.9753,5.417 z m 56.91531,0.1891 c 0,8.1255 6.6271,14.7033 14.8135,14.7033 8.1864,0 14.8135,-6.5778 14.8135,-14.7033 0,-8.1254 -6.6271,-14.7032 -14.8135,-14.7032 -8.1864,0 -14.8135,6.5778 -14.8135,14.7032 z m 79.3304,-25.7314 c 6.6272,5.03 8.3815,7.9328 8.3815,13.1556 0,6.1906 -3.1187,9.673 -9.356,9.673 -7.4068,0 -9.9407,-4.0618 -10.3305,-8.5123 -0.7797,-9.8658 -3.7034,-14.5089 -12.4747,-14.5089 -5.6524,0 -11.305,2.9011 -11.305,11.8004 0,12.189 7.2118,28.8269 32.7458,28.8269 19.4915,0 34.4999,-10.2544 34.4999,-30.7615 0,-14.122 -7.7966,-21.0866 -22.6101,-32.1148 l -14.6186,-11.0265 c -3.8983,-2.9028 -5.2628,-6.5778 -5.2628,-10.0601 0,-5.0301 3.3136,-8.1256 8.1865,-8.1256 6.0423,0 9.9406,3.4824 10.3304,10.6396 0.39,5.804 3.3136,9.0937 9.7458,9.0937 9.5509,0 12.4747,-4.6431 12.4747,-11.6077 0,-8.5125 -6.6272,-25.7315 -31.9661,-25.7315 -19.1018,0 -32.5509,9.2863 -32.5509,28.2455 0,11.0282 2.3389,17.6061 15.983,27.6661 z m 115.1947,-38.3056 c 0,-17.0248 -3.5084,-30.9541 -35.2796,-30.9541 -18.322,0 -33.1356,9.6732 -33.1356,27.8586 0,7.159 7.2119,9.6732 12.4747,9.6732 6.2372,0 10.7203,-2.9011 11.305,-7.5441 0.9754,-8.3199 3.5085,-12.3818 11.6949,-12.3818 6.0424,0 9.1611,4.8358 9.1611,10.4471 0,4.4487 -2.3391,8.318 -7.6018,11.0265 l -21.2458,11.0283 c -12.4745,6.5776 -16.9575,15.6696 -16.9575,31.5335 0,19.7332 10.5254,28.0531 24.5593,28.0531 8.5762,0 17.3474,-3.6768 21.6356,-13.1556 l 0.3898,-0.1891 c 0,10.2543 6.0424,13.3498 12.4745,13.3498 7.6017,0 11.8899,-3.0955 11.8899,-9.2862 0,-3.2897 -1.3653,-8.8993 -1.3653,-15.6714 z m -23.7795,40.6272 c 0,11.0282 -4.6781,19.5405 -12.4747,19.5405 -5.0677,0 -8.3813,-4.4504 -8.3813,-12.3815 0,-8.8993 1.9491,-12.576 12.4745,-19.9275 l 8.3815,-5.804 z"
       id="text4"
       style="font-weight:bold;font-stretch:condensed;font-size:11.25px;font-family:'Helvetica Rounded Condensed';-inkscape-font-specification:'Helvetica Rounded Condensed, Bold Condensed';white-space:pre;fill:#ffffff;fill-rule:evenodd;stroke-width:191.599;stroke-miterlimit:5"
       aria-label="Gmedia.gov.sa" />
  </g>
</svg>
