<?xml version="1.0"?>
<svg width="3766" height="3766" xmlns="http://www.w3.org/2000/svg" xmlns:svg="http://www.w3.org/2000/svg" clip-rule="evenodd" fill-rule="evenodd" version="1.1">
 <g class="layer">
  <title>Layer 1</title>
  <g id="svg_1">
   <path d="m311,0.06c1048,-0.17 2096,0 3144,0.5c112.45,8.28 199.62,59.12 261.5,152.5c29.17,47.53 45.51,99.2 49,155c0.67,1050 0.67,2100 0,3150c-9.94,117.47 -65.11,206.31 -165.5,266.5c-43.25,24.06 -89.59,37.73 -139,41c-1052,0.67 -2104,0.67 -3156,0c-98.21,-8.34 -177.71,-50.84 -238.5,-127.5c-39.56,-53 -61.56,-112.67 -66,-179c-0.67,-1050.67 -0.67,-2101.33 0,-3152c8.55,-103.64 54.39,-186.14 137.5,-247.5c52.13,-35.88 109.79,-55.71 173,-59.5z" fill="#000000" id="svg_2" opacity="1"/>
  </g>
  <g id="svg_3">
   <path d="m316,173.06c1044.67,-0.17 2089.33,0 3134,0.5c67.95,7.95 113.45,44.12 136.5,108.5c3.03,9.79 5.03,19.79 6,30c0.5,843.67 0.67,1687.33 0.5,2531c-1140,0 -2280,0 -3420,0c-0.17,-843 0,-1686 0.5,-2529c7.31,-60.96 38.81,-104.12 94.5,-129.5c15.61,-6.07 31.61,-9.9 48,-11.5z" fill="#0090c6" id="svg_4"/>
  </g>
  <g id="svg_5">
   <path d="m2540,786.06c30.84,42.7 51.67,90.04 62.5,142c17.62,88.9 17.95,177.9 1,267c-8.18,44.56 -23.85,86.23 -47,125c-36.15,51.81 -82.98,90.97 -140.5,117.5c-33.74,15.53 -68.74,27.36 -105,35.5c0,3.67 0,7.33 0,11c44.42,9.59 87.42,23.59 129,42c38.93,16.75 73.09,40.42 102.5,71c8.77,10.26 16.93,20.92 24.5,32c23.26,35.21 39.43,73.54 48.5,115c16.36,82.38 20.02,165.38 11,249c-4.65,44.59 -14.65,87.92 -30,130c-30.75,75.75 -81.25,134.58 -151.5,176.5c-48.7,26.79 -100.04,47.13 -154,61c-68.09,16.22 -137.09,26.88 -207,32c-112.33,7.3 -224.67,7.3 -337,0c-134.33,-10.33 -268,-26.17 -401,-47.5c-1,-106.83 -1.33,-213.83 -1,-321c85.68,6.78 171.34,13.61 257,20.5c107.88,7.28 215.88,10.61 324,10c45.88,-1.16 91.55,-4.82 137,-11c23.65,-3.66 45.65,-11.66 66,-24c26.2,-19.6 41.7,-45.77 46.5,-78.5c2.98,-14.19 4.98,-28.52 6,-43c1.97,-39.85 0.3,-79.51 -5,-119c-2.08,-12 -5.25,-23.67 -9.5,-35c-13.65,-40.14 -41.32,-64.64 -83,-73.5c-44.17,-9.32 -88.83,-13.49 -134,-12.5c-99.83,-1 -199.83,-1.33 -300,-1c0,-112.33 0,-224.67 0,-337c106.33,0.17 212.67,0 319,-0.5c27.56,-0.89 54.9,-3.89 82,-9c25.94,-4.75 49.28,-15.08 70,-31c21.68,-20.19 34.85,-45.02 39.5,-74.5c7.86,-49.9 8.52,-99.9 2,-150c-1.86,-10.53 -4.36,-20.86 -7.5,-31c-10.15,-36.32 -33.48,-59.48 -70,-69.5c-15.71,-4.39 -31.71,-7.39 -48,-9c-62.53,-5.72 -125.2,-8.22 -188,-7.5c-137.97,0.76 -275.64,7.59 -413,20.5c-27.06,2.76 -54.06,5.92 -81,9.5c0,-106.67 0,-213.33 0,-320c105.9,-19.4 212.57,-33.24 320,-41.5c136.84,-12.97 273.84,-14.97 411,-6c79.14,5.58 156.81,19.25 233,41c56.49,16.41 108.16,42.08 155,77c24.58,20.08 46.58,42.58 66,67.5z" fill="#000000" id="svg_6"/>
  </g>
  <g id="svg_7">
   <path d="m1217,615.06c0,587.67 0,1175.33 0,1763c-148.33,0 -296.67,0 -445,0c-0.33,0 -0.67,0 -1,0c0,-405 0,-810 0,-1215c0.33,-33.01 0,-66.01 -1,-99c-109.36,45.67 -218.69,91.34 -328,137c-1,-115.83 -1.33,-231.83 -1,-348c156.48,-79.41 313.15,-158.58 470,-237.5c102,-0.5 204,-0.67 306,-0.5z" fill="#000000" id="svg_8"/>
  </g>
  <g id="svg_9">
   <path d="m1217,615.06c23.3,22.8 46.47,45.8 69.5,69c0.5,588 0.67,1176 0.5,1764c-148.67,0.17 -297.33,0 -446,-0.5c-23.2,-23.03 -46.2,-46.2 -69,-69.5c148.33,0 296.67,0 445,0c0,-587.67 0,-1175.33 0,-1763z" fill="#00478a" id="svg_10"/>
  </g>
  <g id="svg_11">
   <path d="m2540,786.06c70.18,53.95 114.35,124.62 132.5,212c18.76,95.85 17.76,191.51 -3,287c-10.55,45.72 -29.55,87.38 -57,125c-46.31,54.93 -103.81,93.6 -172.5,116c-41.58,-18.41 -84.58,-32.41 -129,-42c0,-3.67 0,-7.33 0,-11c36.26,-8.14 71.26,-19.97 105,-35.5c57.52,-26.53 104.35,-65.69 140.5,-117.5c23.15,-38.77 38.82,-80.44 47,-125c16.95,-89.1 16.62,-178.1 -1,-267c-10.83,-51.96 -31.66,-99.3 -62.5,-142z" fill="#004689" id="svg_12"/>
  </g>
  <g id="svg_13">
   <path d="m441,853.06c-0.33,116.17 0,232.17 1,348c0,0.67 -0.33,1 -1,1c-1.33,-116.33 -1.33,-232.67 0,-349z" fill="#002431" id="svg_14"/>
  </g>
  <g id="svg_15">
   <path d="m2155,1024.06c-31.56,-7.11 -63.56,-11.28 -96,-12.5c-93.31,-4.33 -186.65,-4.67 -280,-1c-91.17,3.57 -182.17,9.57 -273,18c-26.94,3.05 -53.77,6.55 -80.5,10.5c-23.7,-23.53 -47.2,-47.2 -70.5,-71c26.94,-3.58 53.94,-6.74 81,-9.5c137.36,-12.91 275.03,-19.74 413,-20.5c62.8,-0.72 125.47,1.78 188,7.5c16.29,1.61 32.29,4.61 48,9c36.52,10.02 59.85,33.18 70,69.5z" fill="#004689" id="svg_16"/>
  </g>
  <g id="svg_17">
   <path d="m771,1163.06c-0.99,-0.17 -1.66,0.16 -2,1c-86.24,35.45 -172.24,71.45 -258,108c-23.69,-23.02 -47.02,-46.35 -70,-70c0.67,0 1,-0.33 1,-1c109.31,-45.66 218.64,-91.33 328,-137c1,32.99 1.33,65.99 1,99z" fill="#004689" id="svg_18"/>
  </g>
  <g id="svg_19">
   <path d="m769,1164.06c0.34,-0.84 1.01,-1.17 2,-1c0,405 0,810 0,1215c-0.67,-404.67 -1.33,-809.33 -2,-1214z" fill="#006c95" id="svg_20"/>
  </g>
  <g id="svg_21">
   <path d="m3188,1308.06c0,58 0,116 0,174c72,0 144,0 216,0c0,58.67 0,117.33 0,176c-72,0 -144,0 -216,0c0,72.67 0,145.33 0,218c-47.67,0 -95.33,0 -143,0c-11.67,0 -23.33,0 -35,0c0,-59 0,-118 0,-177c0,-13.33 0,-26.67 0,-40c-71.16,-1 -142.5,-1.33 -214,-1c0,-58.67 0,-117.33 0,-176c71.5,0.33 142.84,0 214,-1c0,-71.33 0,-142.67 0,-214c59.33,0 118.67,0 178,0c0,13.67 0,27.33 0,41z" fill="#000000" id="svg_22"/>
  </g>
  <g id="svg_23">
   <path d="m3188,1308.06c0.33,0 0.67,0 1,0c0,57.67 0,115.33 0,173c11.33,0 22.67,0 34,0c60.5,-0.33 120.84,0 181,1c-72,0 -144,0 -216,0c0,-58 0,-116 0,-174z" fill="#013962" id="svg_24"/>
  </g>
  <g id="svg_25">
   <path d="m3189,1308.06c11.33,0 22.67,0 34,0c0,57.67 0,115.33 0,173c-11.33,0 -22.67,0 -34,0c0,-57.67 0,-115.33 0,-173z" fill="#00468a" id="svg_26"/>
  </g>
  <g id="svg_27">
   <path d="m3010,1481.06c-71.16,1 -142.5,1.33 -214,1c0,58.67 0,117.33 0,176c71.5,-0.33 142.84,0 214,1c-60,0 -120,0 -180,0c-11.67,0 -23.33,0 -35,0c0,-59.33 0,-118.67 0,-178c71.67,0 143.33,0 215,0z" fill="#002e44" id="svg_28"/>
  </g>
  <g id="svg_29">
   <path d="m3404,1482.06c1,13.49 1.33,27.16 1,41c11.33,0 22.67,0 34,0c0,58.67 0,117.33 0,176c-72,0 -144,0 -216,0c0,72.67 0,145.33 0,218c-59.33,0 -118.67,0 -178,0c0,-13.67 0,-27.33 0,-41c47.67,0 95.33,0 143,0c1,-72.16 1.33,-144.5 1,-217c71.84,0.33 143.5,0 215,-1c0,-58.67 0,-117.33 0,-176z" fill="#004689" id="svg_30"/>
  </g>
  <g id="svg_31">
   <path d="m2567,1629.06c1.05,-0.15 2.05,0.02 3,0.5c52.59,39.63 88.42,91.13 107.5,154.5c16.67,60.32 24.5,121.82 23.5,184.5c1.69,76.18 -9.48,150.34 -33.5,222.5c-30.74,76.74 -81.58,136.24 -152.5,178.5c-47.47,26.27 -97.47,46.27 -150,60c-80.18,19.47 -161.52,31.13 -244,35c-100.37,5.13 -200.7,4.46 -301,-2c-135.75,-10.01 -270.75,-26.01 -405,-48c-23.2,-23.03 -46.2,-46.2 -69,-69.5c133,21.33 266.67,37.17 401,47.5c112.33,7.3 224.67,7.3 337,0c69.91,-5.12 138.91,-15.78 207,-32c53.96,-13.87 105.3,-34.21 154,-61c70.25,-41.92 120.75,-100.75 151.5,-176.5c15.35,-42.08 25.35,-85.41 30,-130c9.02,-83.62 5.36,-166.62 -11,-249c-9.07,-41.46 -25.24,-79.79 -48.5,-115z" fill="#004689" id="svg_32"/>
  </g>
  <g id="svg_33">
   <path d="m1650,1320.06c0,112.33 0,224.67 0,337c100.17,-0.33 200.17,0 300,1c-100,0 -200,0 -300,0c-1.33,-112.67 -1.33,-225.33 0,-338z" fill="#032437" id="svg_34"/>
  </g>
  <g id="svg_35">
   <path d="m1650,1658.06c100,0 200,0 300,0c45.17,-0.99 89.83,3.18 134,12.5c41.68,8.86 69.35,33.36 83,73.5c-36.37,-9.28 -73.37,-14.45 -111,-15.5c-112.33,-0.33 -224.67,-0.67 -337,-1c-23.2,-23.03 -46.2,-46.2 -69,-69.5z" fill="#004689" id="svg_36"/>
  </g>
  <g id="svg_37">
   <path d="m2830,1659.06c60,0 120,0 180,0c0,13.33 0,26.67 0,40c-60,0 -120,0 -180,0c0,-13.33 0,-26.67 0,-40z" fill="#004689" id="svg_38"/>
  </g>
  <g id="svg_39">
   <path d="m3404,1658.06c-71.5,1 -143.16,1.33 -215,1c0.33,72.5 0,144.84 -1,217c0,-72.67 0,-145.33 0,-218c72,0 144,0 216,0z" fill="#002e5b" id="svg_40"/>
  </g>
  <g id="svg_41">
   <path d="m1434,3336.06c-1.07,-0.93 -2.4,-1.27 -4,-1c0,-41 0,-82 0,-123c91,0 182,0 273,0c-2.24,105.68 -5.07,211.35 -8.5,317c-3.73,13.39 -12.56,20.56 -26.5,21.5c-111.87,7.88 -223.87,11.88 -336,12c-47.45,-2.48 -87.28,-20.98 -119.5,-55.5c-19.89,-24.46 -31.55,-52.46 -35,-84c-0.67,-104.67 -0.67,-209.33 0,-314c10.76,-72.1 51.59,-116.93 122.5,-134.5c9.61,-1.72 19.28,-3.06 29,-4c113.06,-0.68 226.06,1.49 339,6.5c0,46.33 0,92.67 0,139c-94.33,-0.17 -188.67,0 -283,0.5c-18.61,3.27 -30.11,14.11 -34.5,32.5c-0.67,77 -0.67,154 0,231c3.97,22.63 17.47,34.8 40.5,36.5c50.66,-0.37 101.33,-0.54 152,-0.5c0,-24 0,-48 0,-72c-36.31,-2.78 -72.65,-5.44 -109,-8z" fill="#fefefe" id="svg_42"/>
  </g>
  <g id="svg_43">
   <path d="m2535,2970.06c53.71,-0.75 107.38,0.42 161,3.5c48.35,3.32 96.69,6.82 145,10.5c-0.47,45 -0.8,90 -1,135c-94.33,-0.17 -188.67,0 -283,0.5c-3.08,0.79 -5.25,2.62 -6.5,5.5c-2.32,9.15 -1.99,18.15 1,27c3.45,3.65 7.62,6.15 12.5,7.5c62.61,11.55 125.28,22.88 188,34c27.85,4.62 54.18,13.62 79,27c19.93,12.93 33.43,30.76 40.5,53.5c2.84,10.85 4.84,21.85 6,33c1.57,38.65 1.9,77.32 1,116c-2.28,72.43 -38.78,116.26 -109.5,131.5c-41.97,8.01 -84.3,10.67 -127,8c-87.76,-3 -175.42,-7.67 -263,-14c-0.16,-45.09 -0.16,-90.26 0,-135.5c97,0.17 194,0 291,-0.5c10.86,-0.73 20.36,-4.56 28.5,-11.5c2.22,-3.77 3.89,-7.77 5,-12c0.67,-11 0.67,-22 0,-33c-1.41,-5.07 -4.57,-8.57 -9.5,-10.5c-62.07,-12.72 -124.4,-24.05 -187,-34c-24.93,-4.1 -49.26,-10.43 -73,-19c-32.18,-12.51 -51.68,-35.68 -58.5,-69.5c-1.41,-7.61 -2.41,-15.28 -3,-23c-0.67,-34.67 -0.67,-69.33 0,-104c7.16,-63.16 41.66,-101.99 103.5,-116.5c19.61,-4.33 39.28,-7.5 59,-9.5z" fill="#fefefe" id="svg_44"/>
  </g>
  <g id="svg_45">
   <path d="m911,2975.06c57.33,0 114.67,0 172,0c0,194.33 0,388.67 0,583c-57.33,0 -114.67,0 -172,0c0,-194.33 0,-388.67 0,-583z" fill="#fefffe" id="svg_46"/>
  </g>
  <g id="svg_47">
   <path d="m911,2975.06c57.5,-1 115.16,-1.33 173,-1c0.33,194.83 0,389.5 -1,584c0,-194.33 0,-388.67 0,-583c-57.33,0 -114.67,0 -172,0z" fill="#b3b3b3" id="svg_48"/>
  </g>
  <g id="svg_49">
   <path d="m1786,2974.06c122,-0.17 244,0 366,0.5c29.16,1.87 56.83,9.21 83,22c45.08,26.14 70.58,65.31 76.5,117.5c0.67,41 0.67,82 0,123c-4.91,54.21 -31.08,94.21 -78.5,120c29,66.67 58,133.33 87,200c-60,1.17 -120,1.33 -180,0.5c-26.09,-58.77 -52.09,-117.61 -78,-176.5c-34.33,-1 -68.66,-1.33 -103,-1c0,59.33 0,118.67 0,178c-57.67,0 -115.33,0 -173,0c0,-194.67 0,-389.33 0,-584z" fill="#fefefe" id="svg_50"/>
  </g>
  <g id="svg_51">
   <path d="m1959,3113.06c47.33,-0.17 94.67,0 142,0.5c21.5,2.5 34.33,14.33 38.5,35.5c0.67,19.67 0.67,39.33 0,59c-2.83,22.83 -15.66,35.66 -38.5,38.5c-47.33,0.5 -94.67,0.67 -142,0.5c0,-44.67 0,-89.33 0,-134z" fill="#000000" id="svg_52"/>
  </g>
  <g id="svg_53">
   <path d="m1703,3212.06c-91,0 -182,0 -273,0c0,41 0,82 0,123c1.6,-0.27 2.93,0.07 4,1c-1.67,0 -3.33,0 -5,0c0,-41.67 0,-83.33 0,-125c91.5,-0.33 182.83,0 274,1z" fill="#bfbfbf" id="svg_54"/>
  </g>
 </g>
</svg>