<?xml version="1.0"?>
<svg width="3765.9999999999995" height="3765.9999999999995" xmlns="http://www.w3.org/2000/svg" xmlns:svg="http://www.w3.org/2000/svg" clip-rule="evenodd" fill-rule="evenodd" version="1.1">
 <g class="layer">
  <title>Layer 1</title>
  <g id="svg_1">
   <path d="m306,0.06c1051,-0.17 2102,0 3153,0.5c109.31,9.38 194.47,59.21 255.5,149.5c31.52,50.04 48.52,104.71 51,164c0.67,1046 0.67,2092 0,3138c-7.33,112.21 -57.17,199.71 -149.5,262.5c-48.53,30.62 -101.53,47.62 -159,51c-1049.67,0.67 -2099.33,0.67 -3149,0c-97.45,-7.3 -176.95,-48.47 -238.5,-123.5c-40.66,-52.61 -63.66,-112.27 -69,-179c-0.67,-1053.33 -0.67,-2106.67 0,-3160c10.73,-109.69 61.9,-194.53 153.5,-254.5c46.88,-28.35 97.54,-44.52 152,-48.5z" fill="#000000" id="svg_2" opacity="1"/>
  </g>
  <g id="svg_3">
   <path d="m313,173.06c1045.33,-0.17 2090.67,0 3136,0.5c55.03,5.08 96.53,31.25 124.5,78.5c10.83,19.63 17.16,40.63 19,63c0.5,842.67 0.67,1685.33 0.5,2528c-1140,0 -2280,0 -3420,0c-0.17,-843 0,-1686 0.5,-2529c6.84,-59.82 37.34,-102.65 91.5,-128.5c15.62,-6.15 31.62,-10.32 48,-12.5z" fill="#84d88e" id="svg_4"/>
  </g>
  <g id="svg_5">
   <path d="m2445,694.06c42.42,57.56 69.59,121.89 81.5,193c10.07,59.93 13.41,120.27 10,181c-2.54,53.3 -10.87,105.63 -25,157c-21.57,76.69 -64.07,138.85 -127.5,186.5c-60.37,43.09 -127.03,72.59 -200,88.5c-1.29,1.55 -1.96,3.55 -2,6c0,2.2 0.34,4.2 1,6c44.27,10.42 87.6,24.09 130,41c32.26,13.63 62.93,30.13 92,49.5c26.87,20.04 50.21,43.54 70,70.5c30.36,43.74 51.19,91.74 62.5,144c9.86,46.48 15.53,93.48 17,141c6.56,102.32 -6.44,201.98 -39,299c-35.49,88.49 -94.32,156.99 -176.5,205.5c-43.72,24.91 -89.72,44.58 -138,59c-67.06,20.01 -135.39,34.01 -205,42c-158.77,16.49 -317.77,18.82 -477,7c-99.63,-7.56 -198.96,-17.9 -298,-31c-54.05,-7.6 -108.05,-15.44 -162,-23.5c-0.62,-0.11 -1.12,-0.44 -1.5,-1c-0.5,-124.33 -0.67,-248.67 -0.5,-373c115.64,9.39 231.31,18.22 347,26.5c89.43,5.16 178.93,8.33 268.5,9.5c58.93,-0.21 117.77,-2.71 176.5,-7.5c30.03,-2.21 59.36,-7.87 88,-17c50.99,-19.4 80.49,-56.24 88.5,-110.5c9.97,-63 9.97,-126 0,-189c-2.8,-16.2 -7.3,-31.86 -13.5,-47c-15.46,-37.62 -42.79,-62.12 -82,-73.5c-44.92,-11.49 -90.58,-17.32 -137,-17.5c-126.5,-1 -253.17,-1.33 -380,-1c0,-131 0,-262 0,-393c120.5,0.33 240.83,0 361,-1c39.11,-0.18 77.77,-4.34 116,-12.5c63.77,-13.43 102.6,-51.93 116.5,-115.5c4.65,-22.76 7.31,-45.76 8,-69c2.68,-43.02 0.02,-85.69 -8,-128c-2.14,-9.59 -4.98,-18.92 -8.5,-28c-12.29,-35.12 -36.29,-58.29 -72,-69.5c-8.31,-2.49 -16.65,-4.83 -25,-7c-48.67,-7.76 -97.67,-12.09 -147,-13c-199.46,-3.94 -398.46,3.73 -597,23c-28.39,3.09 -56.72,6.59 -85,10.5c-1.33,-61.66 -2,-123.66 -2,-186c0,-62.4 0.34,-124.74 1,-187c74.21,-14.11 148.87,-25.28 224,-33.5c122.3,-14.19 244.97,-23.53 368,-28c108.63,-2.71 216.97,1.62 325,13c78.77,8.62 155.77,25.29 231,50c71.68,23.31 134.68,60.65 189,112c13.31,13.14 25.65,26.97 37,41.5z" fill="#000000" id="svg_6"/>
  </g>
  <g id="svg_7">
   <path d="m1071,539.06c-0.66,62.26 -1,124.6 -1,187c0,62.34 0.67,124.34 2,186c-0.34,0.84 -1.01,1.17 -2,1c-0.67,-62.17 -1,-124.5 -1,-187c0,-62.67 0.67,-125 2,-187z" fill="#213623" id="svg_8"/>
  </g>
  <g id="svg_9">
   <path d="m2445,694.06c70.58,56.52 117.42,128.85 140.5,217c19.33,79.26 25.66,159.59 19,241c-3.33,62.97 -15.99,123.97 -38,183c-20.51,50.86 -51.68,94.03 -93.5,129.5c-28.28,23.48 -58.94,43.48 -92,60c-22.46,10.41 -45.13,19.91 -68,28.5c-42.4,-16.91 -85.73,-30.58 -130,-41c-0.26,-4.1 0.07,-8.1 1,-12c72.97,-15.91 139.63,-45.41 200,-88.5c63.43,-47.65 105.93,-109.81 127.5,-186.5c14.13,-51.37 22.46,-103.7 25,-157c3.41,-60.73 0.07,-121.07 -10,-181c-11.91,-71.11 -39.08,-135.44 -81.5,-193z" fill="#3a9544" id="svg_10"/>
  </g>
  <g id="svg_11">
   <path d="m1998,968.06c-16.74,-4.97 -33.74,-8.8 -51,-11.5c-55.16,-6.12 -110.49,-9.46 -166,-10c-185.08,-1.68 -369.75,6.32 -554,24c-30,3.67 -60,7 -90,10c-22.53,-22.37 -44.87,-44.87 -67,-67.5c0.99,0.17 1.66,-0.16 2,-1c28.28,-3.91 56.61,-7.41 85,-10.5c198.54,-19.27 397.54,-26.94 597,-23c49.33,0.91 98.33,5.24 147,13c8.35,2.17 16.69,4.51 25,7c35.71,11.21 59.71,34.38 72,69.5z" fill="#3a9544" id="svg_12"/>
  </g>
  <g id="svg_13">
   <path d="m3114,1308.06c0,57.67 0,115.33 0,173c11.33,0 22.67,0 34,0c60.67,0 121.33,0 182,0c0,13.67 0,27.33 0,41c0,45.33 0,90.67 0,136c-72,0 -144,0 -216,0c-1,72.16 -1.33,144.5 -1,217c-59,0 -118,0 -177,0c0,-72.33 0,-144.67 0,-217c-71.67,0 -143.33,0 -215,0c0,-59 0,-118 0,-177c71.67,0 143.33,0 215,0c0,-71.33 0,-142.67 0,-214c59.33,0 118.67,0 178,0c0,13.67 0,27.33 0,41z" fill="#000000" id="svg_14"/>
  </g>
  <g id="svg_15">
   <path d="m3114,1308.06c11.33,0 22.67,0 34,0c0,57.67 0,115.33 0,173c-11.33,0 -22.67,0 -34,0c0,-57.67 0,-115.33 0,-173z" fill="#3b9644" id="svg_16"/>
  </g>
  <g id="svg_17">
   <path d="m1774,1321.06c-120.17,1 -240.5,1.33 -361,1c0,131 0,262 0,393c126.83,-0.33 253.5,0 380,1c-126.67,0 -253.33,0 -380,0c-1,-131.5 -1.33,-263.17 -1,-395c120.67,0 241.33,0 362,0z" fill="#305534" id="svg_18"/>
  </g>
  <g id="svg_19">
   <path d="m2184,1500.06c-0.93,3.9 -1.26,7.9 -1,12c-0.66,-1.8 -1,-3.8 -1,-6c0.04,-2.45 0.71,-4.45 2,-6z" fill="#1c4a21" id="svg_20"/>
  </g>
  <g id="svg_21">
   <path d="m3330,1522.06c11.67,0 23.33,0 35,0c0,59 0,118 0,177c-72.33,0 -144.67,0 -217,0c0,72.67 0,145.33 0,218c-59.33,0 -118.67,0 -178,0c0,-13.67 0,-27.33 0,-41c48,0 96,0 144,0c0,-72.67 0,-145.33 0,-218c72,0 144,0 216,0c0,-45.33 0,-90.67 0,-136z" fill="#3b9545" id="svg_22"/>
  </g>
  <g id="svg_23">
   <path d="m2756,1659.06c59.67,0 119.33,0 179,0c0,13.33 0,26.67 0,40c-59.67,0 -119.33,0 -179,0c0,-13.33 0,-26.67 0,-40z" fill="#3b9644" id="svg_24"/>
  </g>
  <g id="svg_25">
   <path d="m2475,1673.06c44.46,32.57 78.3,73.9 101.5,124c16.06,35.94 27.72,73.28 35,112c12.24,76.21 15.91,152.88 11,230c-4.43,65.14 -17.43,128.48 -39,190c-35.62,86.29 -93.45,153.45 -173.5,201.5c-37.59,21.46 -76.93,39.13 -118,53c-76.44,25.22 -154.77,41.89 -235,50c-155.48,15.69 -311.14,17.69 -467,6c-155.63,-11.12 -310.29,-29.79 -464,-56c-22.53,-22.37 -44.87,-44.87 -67,-67.5c53.95,8.06 107.95,15.9 162,23.5c99.04,13.1 198.37,23.44 298,31c159.23,11.82 318.23,9.49 477,-7c69.61,-7.99 137.94,-21.99 205,-42c48.28,-14.42 94.28,-34.09 138,-59c82.18,-48.51 141.01,-117.01 176.5,-205.5c32.56,-97.02 45.56,-196.68 39,-299c-1.47,-47.52 -7.14,-94.52 -17,-141c-11.31,-52.26 -32.14,-100.26 -62.5,-144z" fill="#3b9544" id="svg_26"/>
  </g>
  <g id="svg_27">
   <path d="m2721,1658.06c71.67,0 143.33,0 215,0c0,72.33 0,144.67 0,217c0,0.33 0,0.67 0,1c-1,-58.83 -1.33,-117.83 -1,-177c0,-13.33 0,-26.67 0,-40c-59.67,0 -119.33,0 -179,0c-11.85,0.33 -23.51,-0.01 -35,-1z" fill="#3a6c3f" id="svg_28"/>
  </g>
  <g id="svg_29">
   <path d="m3365,1699.06c-71.83,1 -143.83,1.33 -216,1c0.33,72.5 0,144.84 -1,217c0,-72.67 0,-145.33 0,-218c72.33,0 144.67,0 217,0z" fill="#66bc6f" id="svg_30"/>
  </g>
  <g id="svg_31">
   <path d="m1413,1716.06c126.67,0 253.33,0 380,0c46.42,0.18 92.08,6.01 137,17.5c39.21,11.38 66.54,35.88 82,73.5c-19.14,-6.87 -38.81,-11.7 -59,-14.5c-24.23,-3.36 -48.57,-5.69 -73,-7c-133.33,-1.27 -266.66,-1.94 -400,-2c-22.53,-22.37 -44.87,-44.87 -67,-67.5z" fill="#3b9545" id="svg_32"/>
  </g>
  <g id="svg_33">
   <path d="m3114,1658.06c0,72.67 0,145.33 0,218c-48,0 -96,0 -144,0c-11.33,0 -22.67,0 -34,0c0,-0.33 0,-0.67 0,-1c59,0 118,0 177,0c-0.33,-72.5 0,-144.84 1,-217z" fill="#102613" id="svg_34"/>
  </g>
  <g id="svg_35">
   <path d="m1322,2969.06c111.37,0.72 222.71,3.22 334,7.5c1.32,8.44 1.98,17.1 2,26c-0.8,37.5 -1.14,75 -1,112.5c-92.33,-0.17 -184.67,0 -277,0.5c-22.57,1.57 -36.07,13.41 -40.5,35.5c-0.67,76 -0.67,152 0,228c2.48,20.15 13.65,32.31 33.5,36.5c53,0.5 106,0.67 159,0.5c0,-24.33 0,-48.67 0,-73c-37.97,-1.6 -75.8,-4.27 -113.5,-8c-0.5,-41.33 -0.67,-82.67 -0.5,-124c91.67,0 183.33,0 275,0c-3.08,104.99 -5.91,209.99 -8.5,315c-3.61,16.27 -13.77,24.43 -30.5,24.5c-110.87,7.69 -221.87,11.69 -333,12c-40.59,-2.47 -76.25,-16.8 -107,-43c-28.3,-27.45 -44.14,-60.95 -47.5,-100.5c-0.17,-51.5 -0.33,-103 -0.5,-154.5c-0.15,-54.19 0.35,-108.36 1.5,-162.5c13.78,-70.12 55.61,-112.95 125.5,-128.5c9.78,-1.69 19.45,-3.19 29,-4.5z" fill="#fefefe" id="svg_36"/>
  </g>
  <g id="svg_37">
   <path d="m2830,3096.06c-0.99,7.15 -1.32,14.48 -1,22c-93.17,-0.33 -186.17,0 -279,1c-5.07,-0.05 -8.57,2.29 -10.5,7c-0.67,7.33 -0.67,14.67 0,22c1.07,4.74 3.9,7.9 8.5,9.5c68.14,13.56 136.47,26.23 205,38c27.06,5.13 52.06,15.13 75,30c15.95,12.29 26.78,28.12 32.5,47.5c4.2,15.39 6.53,31.05 7,47c0.67,36 0.67,72 0,108c-3.44,66.43 -37.27,107.93 -101.5,124.5c-25.02,5.63 -50.35,8.96 -76,10c-22.67,0.67 -45.33,0.67 -68,0c-84.74,-3.56 -169.41,-8.4 -254,-14.5c0,-32.33 0,-64.67 0,-97c1,-12.49 1.33,-25.16 1,-38c94.83,0.33 189.5,0 284,-1c11.06,0.48 21.39,-2.02 31,-7.5c4.49,-3.83 7.33,-8.67 8.5,-14.5c0.67,-11.67 0.67,-23.33 0,-35c-2.35,-6.78 -7.18,-10.61 -14.5,-11.5c-61.87,-11.82 -123.87,-22.82 -186,-33c-22.34,-4.42 -44.34,-10.08 -66,-17c-30.9,-10.9 -50.73,-32.06 -59.5,-63.5c-2.6,-10.18 -4.26,-20.51 -5,-31c-0.67,-33.33 -0.67,-66.67 0,-100c4.69,-61.35 36.53,-100.52 95.5,-117.5c26.2,-7.06 52.86,-11.06 80,-12c97.88,0.4 195.55,5.23 293,14.5c0,37.33 0,74.67 0,112z" fill="#fefefe" id="svg_38"/>
  </g>
  <g id="svg_39">
   <path d="m1073,2975.06c-57.33,0 -114.67,0 -172,0c0,194 0,388 0,582c57.33,0 114.67,0 172,0c-57.5,1 -115.16,1.33 -173,1c0,-194.67 0,-389.33 0,-584c57.84,-0.33 115.5,0 173,1z" fill="#bfbfbf" id="svg_40"/>
  </g>
  <g id="svg_41">
   <path d="m1073,2975.06c0,194 0,388 0,582c-57.33,0 -114.67,0 -172,0c0,-194 0,-388 0,-582c57.33,0 114.67,0 172,0z" fill="#fefffe" id="svg_42"/>
  </g>
  <g id="svg_43">
   <path d="m1949,3380.06c-1,58.83 -1.33,117.83 -1,177c-57.67,0 -115.33,0 -173,0c0,-194.33 0,-388.67 0,-583c122,-0.17 244,0 366,0.5c36.85,1.62 70.52,12.62 101,33c34.43,26.68 53.93,61.85 58.5,105.5c0.67,42.33 0.67,84.67 0,127c-5.63,52.91 -31.79,91.75 -78.5,116.5c29.7,66.89 58.7,134.06 87,201.5c-60,0.33 -120,0 -180,-1c-25.6,-59.02 -51.6,-117.86 -78,-176.5c-34,-0.5 -68,-0.67 -102,-0.5z" fill="#fefefe" id="svg_44"/>
  </g>
  <g id="svg_45">
   <path d="m1949,3113.06c47.67,-0.17 95.33,0 143,0.5c20.16,2.49 32.32,13.66 36.5,33.5c0.67,20 0.67,40 0,60c-2.6,24.27 -16.1,37.43 -40.5,39.5c-46.33,0.5 -92.67,0.67 -139,0.5c0,-44.67 0,-89.33 0,-134z" fill="#000000" id="svg_46"/>
  </g>
  <g id="svg_47">
   <path d="m2830,3096.06c0,7.67 0,15.33 0,23c-93.33,0 -186.67,0 -280,0c92.83,-1 185.83,-1.33 279,-1c-0.32,-7.52 0.01,-14.85 1,-22z" fill="#bbbbbb" id="svg_48"/>
  </g>
  <g id="svg_49">
   <path d="m2653,3412.06c-94.5,1 -189.17,1.33 -284,1c0.33,12.84 0,25.51 -1,38c0,-13 0,-26 0,-39c95,0 190,0 285,0z" fill="#a1a1a1" id="svg_50"/>
  </g>
  <g id="svg_51">
   <path d="m1949,3380.06c0,59.33 0,118.67 0,178c-58.17,0.33 -116.17,0 -174,-1c57.67,0 115.33,0 173,0c-0.33,-59.17 0,-118.17 1,-177z" fill="#bfbfbf" id="svg_52"/>
  </g>
 </g>
</svg>