<?xml version="1.0"?>
<svg width="3766" height="3766" xmlns="http://www.w3.org/2000/svg" xmlns:svg="http://www.w3.org/2000/svg" clip-rule="evenodd" fill-rule="evenodd" version="1.1">
 <g class="layer">
  <title>Layer 1</title>
  <g id="svg_1">
   <path d="m97,94c3,-2.33 5.67,-5 8,-8c57.17,-51.73 124.5,-80.23 202,-85.5c1050.33,-0.67 2100.67,-0.67 3151,0c115.88,9.82 204.05,63.99 264.5,162.5c25.65,44.94 39.98,93.27 43,145c0.67,1050 0.67,2100 0,3150c-9.83,115.89 -63.99,204.06 -162.5,264.5c-44.93,25.64 -93.26,39.98 -145,43c-1050.33,0.67 -2100.67,0.67 -3151,0c-105.72,-8.75 -189.21,-55.92 -250.5,-141.5c-33.6,-49.81 -52.27,-104.81 -56,-165c-0.67,-1050.67 -0.67,-2101.33 0,-3152c5.7,-83.37 37.87,-154.37 96.5,-213z" fill="#000000" id="svg_2" opacity="1"/>
  </g>
  <g id="svg_3">
   <path d="m105,86c-2.33,3 -5,5.67 -8,8c0,-2.67 0,-5.33 0,-8c2.67,0 5.33,0 8,0z" fill="#83d68d" id="svg_4" opacity="0.73"/>
  </g>
  <g id="svg_5">
   <path d="m314,173c1046,-0.17 2092,0 3138,0.5c60.92,7.27 104.09,38.77 129.5,94.5c5.86,14.11 9.53,28.78 11,44c0.5,843.67 0.67,1687.33 0.5,2531c-1140,0 -2280,0 -3420,0c-0.17,-844 0,-1688 0.5,-2532c6.49,-48.17 29.66,-86.01 69.5,-113.5c21.87,-13.68 45.53,-21.84 71,-24.5z" fill="#84d88e" id="svg_6"/>
  </g>
  <g id="svg_7">
   <path d="m2652,496c0.33,125.5 0,250.83 -1,376c0,-125.33 0,-250.67 0,-376c-509.67,0 -1019.33,0 -1529,0c0,136.33 0,272.67 0,409c-0.33,0 -0.67,0 -1,0c0,-136.67 0,-273.33 0,-410c510.5,-0.33 1020.83,0 1531,1z" fill="#203822" id="svg_8"/>
  </g>
  <g id="svg_9">
   <path d="m2651,872c-247.38,570.43 -495.05,1140.76 -743,1711c-192.33,1 -384.67,1.33 -577,1c245.16,-538.08 490.16,-1076.41 735,-1615c10.18,-21.04 19.85,-42.37 29,-64c-324.33,0 -648.67,0 -973,0c0,-136.33 0,-272.67 0,-409c509.67,0 1019.33,0 1529,0c0,125.33 0,250.67 0,376z" fill="#000000" id="svg_10"/>
  </g>
  <g id="svg_11">
   <path d="m2652,496c25.97,20.66 51.97,41.33 78,62c1.17,126 1.33,252 0.5,378c-247.68,570.03 -495.35,1140.03 -743,1710c-192.76,1.17 -385.6,1.33 -578.5,0.5c-26.19,-20.7 -52.19,-41.53 -78,-62.5c192.33,0.33 384.67,0 577,-1c247.95,-570.24 495.62,-1140.57 743,-1711c1,-125.17 1.33,-250.5 1,-376z" fill="#3b9545" id="svg_12"/>
  </g>
  <g id="svg_13">
   <path d="m1121,905c0.33,0 0.67,0 1,0c324.33,0 648.67,0 973,0c-9.15,21.63 -18.82,42.96 -29,64c-288.67,0.17 -577.33,0 -866,-0.5c-26.4,-21.19 -52.74,-42.35 -79,-63.5z" fill="#3b9544" id="svg_14"/>
  </g>
  <g id="svg_15">
   <path d="m3123,1267c0,71.67 0,143.33 0,215c72.33,0 144.67,0 217,0c0,13.33 0,26.67 0,40c0,45.33 0,90.67 0,136c-72.33,0 -144.67,0 -217,0c0,72.67 0,145.33 0,218c-47.67,0 -95.33,0 -143,0c-11.67,0 -23.33,0 -35,0c0,-59 0,-118 0,-177c0,-13.67 0,-27.33 0,-41c-71.33,0 -142.67,0 -214,0c0,-58.67 0,-117.33 0,-176c71.33,0 142.67,0 214,0c0,-71.67 0,-143.33 0,-215c59.33,0 118.67,0 178,0z" fill="#000000" id="svg_16"/>
  </g>
  <g id="svg_17">
   <path d="m3123,1267c1,13.49 1.33,27.16 1,41c0,57.67 0,115.33 0,173c11.33,0 22.67,0 34,0c60.84,-0.33 121.5,0 182,1c-72.33,0 -144.67,0 -217,0c0,-71.67 0,-143.33 0,-215z" fill="#2b5730" id="svg_18"/>
  </g>
  <g id="svg_19">
   <path d="m3124,1308c11.33,0 22.67,0 34,0c0,57.67 0,115.33 0,173c-11.33,0 -22.67,0 -34,0c0,-57.67 0,-115.33 0,-173z" fill="#3b9644" id="svg_20"/>
  </g>
  <g id="svg_21">
   <path d="m3340,1522c11.33,0 22.67,0 34,0c0,59 0,118 0,177c-72,0 -144,0 -216,0c0,72.67 0,145.33 0,218c-59.33,0 -118.67,0 -178,0c0,-13.67 0,-27.33 0,-41c47.67,0 95.33,0 143,0c0,-72.67 0,-145.33 0,-218c72.33,0 144.67,0 217,0c0,-45.33 0,-90.67 0,-136z" fill="#3a9544" id="svg_22"/>
  </g>
  <g id="svg_23">
   <path d="m2731,1658c71.33,0 142.67,0 214,0c0,13.67 0,27.33 0,41c-60,0 -120,0 -180,0c0,-13.33 0,-26.67 0,-40c-11.51,0.33 -22.85,-0.01 -34,-1z" fill="#3a9544" id="svg_24"/>
  </g>
  <g id="svg_25">
   <path d="m3374,1699c-71.5,1 -143.16,1.33 -215,1c0.33,72.5 0,144.84 -1,217c0,-72.67 0,-145.33 0,-218c72,0 144,0 216,0z" fill="#71c77b" id="svg_26"/>
  </g>
  <g id="svg_27">
   <path d="m1320,2969c111.72,0.65 223.39,3.32 335,8c-0.49,46.33 -0.83,92.67 -1,139c-94.67,-0.17 -189.33,0 -284,0.5c-19.88,4.21 -31.04,16.37 -33.5,36.5c-0.67,75.33 -0.67,150.67 0,226c2.61,20.61 14.11,32.78 34.5,36.5c52.67,0.5 105.33,0.67 158,0.5c0.14,-24 0.48,-48 1,-72c-38.21,-3.1 -76.37,-6.1 -114.5,-9c-0.5,-41.33 -0.67,-82.67 -0.5,-124c91.67,0 183.33,0 275,0c-2.96,104.66 -5.79,209.33 -8.5,314c-2.5,14.5 -11,23 -25.5,25.5c-64.97,3.9 -129.97,7.23 -195,10c-47.98,2 -95.98,2.67 -144,2c-39.71,-2.7 -74.71,-16.7 -105,-42c-26.52,-25.21 -42.36,-56.04 -47.5,-92.5c-1.15,-54.31 -1.65,-108.65 -1.5,-163c-0.15,-53.69 0.35,-107.36 1.5,-161c12.24,-69.58 52.74,-112.74 121.5,-129.5c11.41,-2.27 22.74,-4.11 34,-5.5z" fill="#fefefe" id="svg_28"/>
  </g>
  <g id="svg_29">
   <path d="m2827,3065c-1,17.49 -1.33,35.16 -1,53c-92.83,-0.33 -185.5,0 -278,1c-5.53,-0.32 -9.36,2.01 -11.5,7c-0.67,7.33 -0.67,14.67 0,22c1.07,4.74 3.9,7.9 8.5,9.5c8.2,2.53 16.53,4.53 25,6c56.27,10.24 112.6,20.24 169,30c25.17,4.03 49.17,11.7 72,23c23.94,13.28 39.77,33.12 47.5,59.5c2.85,12.86 4.85,25.86 6,39c0.91,40.02 0.58,80.02 -1,120c-4.2,58.85 -34.37,97.02 -90.5,114.5c-35.97,9.94 -72.64,14.44 -110,13.5c-99.47,-2.34 -198.81,-7.34 -298,-15c0,-45 0,-90 0,-135c95.33,0.17 190.67,0 286,-0.5c9.42,-0.25 18.42,-2.25 27,-6c6.11,-3.45 9.94,-8.62 11.5,-15.5c0.67,-12.33 0.67,-24.67 0,-37c-1.5,-4.17 -4.33,-7 -8.5,-8.5c-62.14,-12.39 -124.48,-23.73 -187,-34c-30.66,-4.33 -59.99,-13 -88,-26c-18.89,-10.58 -32.05,-26.08 -39.5,-46.5c-3.35,-9.42 -5.68,-19.09 -7,-29c-1.55,-36.65 -1.89,-73.32 -1,-110c4.19,-60.25 35.03,-99.42 92.5,-117.5c27.46,-7.74 55.46,-12.07 84,-13c37.69,-0.7 75.35,-0.03 113,2c59.73,3.41 119.39,7.58 179,12.5c0,27 0,54 0,81z" fill="#fefefe" id="svg_30"/>
  </g>
  <g id="svg_31">
   <path d="m1070,2975c-57.33,0 -114.67,0 -172,0c0,194.33 0,388.67 0,583c-1,-194.5 -1.33,-389.17 -1,-584c57.84,-0.33 115.5,0 173,1z" fill="#bfbfbf" id="svg_32"/>
  </g>
  <g id="svg_33">
   <path d="m1070,2975c0,194.33 0,388.67 0,583c-57.33,0 -114.67,0 -172,0c0,-194.33 0,-388.67 0,-583c57.33,0 114.67,0 172,0z" fill="#fefffe" id="svg_34"/>
  </g>
  <g id="svg_35">
   <path d="m2137,2975c-121.33,0 -242.67,0 -364,0c0,194.33 0,388.67 0,583c-1,-194.5 -1.33,-389.17 -1,-584c121.83,-0.33 243.5,0 365,1z" fill="#bfbfbf" id="svg_36"/>
  </g>
  <g id="svg_37">
   <path d="m2137,2975c37.16,1.11 71.16,11.94 102,32.5c34.14,26.44 53.64,61.27 58.5,104.5c0.67,42 0.67,84 0,126c-4.58,53.04 -30.08,92.2 -76.5,117.5c-0.52,0.56 -0.86,1.23 -1,2c29.1,66.69 57.76,133.52 86,200.5c-60,0.33 -120,0 -180,-1c-25.91,-58.89 -51.91,-117.73 -78,-176.5c-34,-0.5 -68,-0.67 -102,-0.5c0,59.33 0,118.67 0,178c-57.67,0 -115.33,0 -173,0c0,-194.33 0,-388.67 0,-583c121.33,0 242.67,0 364,0z" fill="#fefefe" id="svg_38"/>
  </g>
  <g id="svg_39">
   <path d="m1946,3113c47,-0.17 94,0 141,0.5c21.69,1.74 34.53,13.24 38.5,34.5c0.67,20.33 0.67,40.67 0,61c-3.79,24.11 -17.95,36.61 -42.5,37.5c-45.67,0.5 -91.33,0.67 -137,0.5c0,-44.67 0,-89.33 0,-134z" fill="#000000" id="svg_40"/>
  </g>
  <g id="svg_41">
   <path d="m2827,3065c0,18 0,36 0,54c-93,0 -186,0 -279,0c92.5,-1 185.17,-1.33 278,-1c-0.33,-17.84 0,-35.51 1,-53z" fill="#bebebe" id="svg_42"/>
  </g>
 </g>
</svg>