<?xml version="1.0"?>
<svg width="3298" height="3755" xmlns="http://www.w3.org/2000/svg" xmlns:svg="http://www.w3.org/2000/svg" clip-rule="evenodd" fill-rule="evenodd" version="1.1">
 <g class="layer">
  <title>Layer 1</title>
  <g id="svg_1">
   <path d="m280.03,0.06c912.67,-0.17 1825.33,0 2738,0.5c90.43,3.8 163.93,40.63 220.5,110.5c35.02,46.36 54.68,98.7 59,157c0.52,1129.35 0.52,2258.68 0,3388c-7.12,49.45 -34.62,81.28 -82.5,95.5c-7.24,1.65 -14.58,2.65 -22,3c-1029.33,0.67 -2058.67,0.67 -3088,0c-38.64,-2.73 -68.47,-20.23 -89.5,-52.5c-8.41,-14.22 -13.41,-29.56 -15,-46c-0.01,-668.82 -0.18,-1337.66 -0.5,-2006.5c-0.16,-463.51 0.34,-927.01 1.5,-1390.5c12.43,-99.79 61.93,-174.63 148.5,-224.5c40.82,-21.45 84.15,-32.95 130,-34.5z" fill="#000000" id="svg_2" opacity="1"/>
  </g>
  <g id="svg_3">
   <path d="m272.03,152.06c917.33,-0.17 1834.67,0 2752,0.5c62.49,8.82 102.33,43.65 119.5,104.5c1.07,6.99 2.07,13.99 3,21c0.5,888.33 0.67,1776.67 0.5,2665c-998.33,0 -1996.67,0 -2995,0c-0.17,-890.67 0,-1781.33 0.5,-2672c7.81,-50.8 34.97,-86.96 81.5,-108.5c12.35,-5.08 25.02,-8.58 38,-10.5z" fill="#fefefe" id="svg_4"/>
  </g>
  <g id="svg_5">
   <path d="m2909.03,753.06c1,97.93 1.33,195.93 1,294c-46.71,-3.97 -93.38,-8.47 -140,-13.5c-119.75,-10.6 -239.41,-9.94 -359,2c-39.43,4.25 -75.1,17.91 -107,41c-20.46,17.47 -35.96,38.64 -46.5,63.5c-10.55,26.11 -17.89,53.11 -22,81c-2.58,19.61 -4.58,39.27 -6,59c-5.29,152.64 -5.95,305.31 -2,458c-0.34,51.56 4.66,102.56 15,153c6.95,33.23 20.61,63.23 41,90c21.96,24.24 48.79,40.74 80.5,49.5c15.11,4.36 30.45,7.69 46,10c76.46,7.91 153.13,10.91 230,9c93.71,-2.08 187.04,-8.91 280,-20.5c0.33,99.57 0,199.07 -1,298.5c-68.01,13.92 -136.68,23.25 -206,28c-124.9,10.87 -249.9,12.21 -375,4c-56.94,-4.4 -113.28,-12.73 -169,-25c-62,-14.21 -119.34,-38.88 -172,-74c-50.48,-36.81 -87.98,-83.98 -112.5,-141.5c-14.48,-35.43 -26.14,-71.76 -35,-109c-15.95,-74.85 -25.61,-150.51 -29,-227c-9.22,-173.71 -8.55,-347.37 2,-521c3.98,-58.1 11.31,-115.77 22,-173c10.6,-56.15 28.6,-109.81 54,-161c32.89,-61.22 80.05,-108.05 141.5,-140.5c50.9,-26.19 104.57,-44.19 161,-54c62.87,-10.89 126.2,-17.55 190,-20c157.27,-6.12 313.6,3.22 469,28c16.45,3.36 32.79,7.2 49,11.5z" fill="#000000" id="svg_6"/>
  </g>
  <g id="svg_7">
   <path d="m391.03,730.06c275.33,-0.17 550.67,0 826,0.5c73.08,-0.4 144.75,9.27 215,29c44.97,13.15 85.63,34.15 122,63c42.87,38.19 73.37,84.69 91.5,139.5c10.01,31.71 17.34,64.04 22,97c14.71,109.79 16.38,219.79 5,330c-5.68,75.03 -26.68,145.37 -63,211c-33.92,55.58 -81.09,95.74 -141.5,120.5c-0.52,0.56 -0.86,1.23 -1,2c81.14,207.76 162.48,415.43 244,623c-142,0.5 -284,0.67 -426,0.5c-67.15,-190.95 -134.15,-381.95 -201,-573c-94.67,0 -189.33,0 -284,0c0,191 0,382 0,573c-136.33,0 -272.67,0 -409,0c0,-538.67 0,-1077.33 0,-1616z" fill="#000000" id="svg_8"/>
  </g>
  <g id="svg_9">
   <path d="m2909.03,753.06c1.33,48.66 2,97.66 2,147c0,49.17 -0.33,98.17 -1,147c0.33,-98.07 0,-196.07 -1,-294z" fill="#3f3f3f" id="svg_10"/>
  </g>
  <g id="svg_11">
   <path d="m800.03,1040.06c79.67,-0.17 159.33,0 239,0.5c47.47,-1.09 94.47,2.91 141,12c47.09,10.43 75.26,39.26 84.5,86.5c5.31,36.14 7.48,72.47 6.5,109c0.82,38.84 -1.34,77.51 -6.5,116c-8.89,54.89 -40.72,87.39 -95.5,97.5c-29.71,5.82 -59.71,9.15 -90,10c-93,0.5 -186,0.67 -279,0.5c0,-144 0,-288 0,-432z" fill="#fefefe" id="svg_12"/>
  </g>
  <g id="svg_13">
   <path d="m250.03,3088.06c930.35,-0.5 1860.69,0 2791,1.5c47.93,9.6 78.1,38.1 90.5,85.5c1.02,6.29 1.69,12.63 2,19c0.17,52.33 0.33,104.67 0.5,157c0.15,54.69 -0.35,109.36 -1.5,164c-7.8,44.47 -32.97,74.3 -75.5,89.5c-6.25,1.72 -12.58,3.05 -19,4c-933.02,1 -1866.02,0.66 -2799,-1c-46.57,-11.57 -75.41,-40.74 -86.5,-87.5c-1.65,-112.31 -1.99,-224.64 -1,-337c6.32,-38.63 26.82,-66.8 61.5,-84.5c11.91,-5.47 24.24,-8.97 37,-10.5z" fill="#fefefe" id="svg_14"/>
  </g>
  <g id="svg_15">
   <path d="m1243.03,3139.06c79.71,-0.03 159.37,1.64 239,5c0,32.67 0,65.33 0,98c-66,-0.17 -132,0 -198,0.5c-15.59,1.59 -24.76,10.09 -27.5,25.5c-0.67,53.33 -0.67,106.67 0,160c1.75,13.75 9.25,22.58 22.5,26.5c38,0.5 76,0.67 114,0.5c0,-17 0,-34 0,-51c-26.63,-2.28 -53.29,-4.28 -80,-6c0,-29.33 0,-58.67 0,-88c64.67,0 129.33,0 194,0c-1.91,75.01 -4.07,150.01 -6.5,225c-4.38,11.62 -12.88,16.79 -25.5,15.5c-77.57,5.62 -155.23,8.29 -233,8c-31.41,-2.29 -58.24,-14.46 -80.5,-36.5c-15.38,-17.77 -24.38,-38.43 -27,-62c-0.67,-73 -0.67,-146 0,-219c6.83,-54.83 37.33,-88 91.5,-99.5c5.82,-0.81 11.48,-1.64 17,-2.5z" fill="#000000" id="svg_16"/>
  </g>
  <g id="svg_17">
   <path d="m2097.03,3139.06c30.68,-0.28 61.35,0.22 92,1.5c41.02,2.54 82.02,5.37 123,8.5c0.3,31.69 -0.04,63.35 -1,95c-66,-0.17 -132,0 -198,0.5c-2.53,0.52 -4.7,1.68 -6.5,3.5c-2.32,7.16 -1.98,14.16 1,21c2.47,2.15 5.3,3.65 8.5,4.5c46.26,8.82 92.6,17.15 139,25c17.58,3.56 34.25,9.56 50,18c18.81,12.84 29.31,30.67 31.5,53.5c1.6,32.64 1.93,65.31 1,98c-2.4,39.36 -21.9,65.86 -58.5,79.5c-29.95,9.27 -60.62,13.11 -92,11.5c-67.8,-1.49 -135.46,-5.16 -203,-11c0.95,-31.65 1.29,-63.32 1,-95c68.33,0.17 136.67,0 205,-0.5c9.16,-0.26 16.66,-3.76 22.5,-10.5c2.46,-9.85 3.12,-19.85 2,-30c-0.79,-3.08 -2.62,-5.25 -5.5,-6.5c-43.47,-9.02 -87.14,-17.02 -131,-24c-18.41,-3.15 -36.41,-7.81 -54,-14c-27.13,-11.39 -41.63,-31.89 -43.5,-61.5c-0.67,-25.33 -0.67,-50.67 0,-76c4.18,-46.19 29.01,-74.36 74.5,-84.5c14.04,-2.91 28.04,-5.08 42,-6.5z" fill="#000000" id="svg_18"/>
  </g>
  <g id="svg_19">
   <path d="m946.03,3142.06c40.67,0 81.33,0 122,0c0,137.67 0,275.33 0,413c-40.67,0 -81.33,0 -122,0c0,-137.67 0,-275.33 0,-413z" fill="#000000" id="svg_20"/>
  </g>
  <g id="svg_21">
   <path d="m1565.03,3142.06c90.35,-0.45 180.68,0.05 271,1.5c32.13,3.48 58.63,17.31 79.5,41.5c11.08,14.89 18.08,31.56 21,50c0.97,35.04 0.63,70.04 -1,105c-4.13,24.44 -15.63,44.61 -34.5,60.5c-6.35,4.36 -12.69,8.69 -19,13c20.2,46.89 40.53,93.73 61,140.5c-42.67,1.33 -85.33,1.33 -128,0c-17.93,-41.69 -36.26,-83.19 -55,-124.5c-24,-0.5 -48,-0.67 -72,-0.5c0,42 0,84 0,126c-41,0 -82,0 -123,0c0,-137.67 0,-275.33 0,-413z" fill="#000000" id="svg_22"/>
  </g>
  <g id="svg_23">
   <path d="m1688.03,3240.06c35.04,-0.47 70.04,0.03 105,1.5c12.63,3.4 20.13,11.57 22.5,24.5c0.67,13.67 0.67,27.33 0,41c-1.73,16.06 -10.56,25.23 -26.5,27.5c-33.67,0.5 -67.33,0.67 -101,0.5c0,-31.67 0,-63.33 0,-95z" fill="#fdfdfd" id="svg_24"/>
  </g>
 </g>
</svg>