<?xml version="1.0"?>
<svg width="3765.9999999999995" height="3765.9999999999995" xmlns="http://www.w3.org/2000/svg" xmlns:svg="http://www.w3.org/2000/svg" clip-rule="evenodd" fill-rule="evenodd" version="1.1">
 <g class="layer">
  <title>Layer 1</title>
  <g id="svg_1">
   <path d="m311,0.06c1048,-0.17 2096,0 3144,0.5c120.48,9.26 210.98,65.76 271.5,169.5c22.93,42.46 35.93,87.79 39,136c0.67,1051.33 0.67,2102.67 0,3154c-7.89,96.62 -49.05,175.46 -123.5,236.5c-53.23,41.08 -113.56,64.08 -181,69c-1052,0.67 -2104,0.67 -3156,0c-107.81,-9.62 -191.97,-58.79 -252.5,-147.5c-31.35,-49.04 -48.68,-102.71 -52,-161c-0.67,-1049.33 -0.67,-2098.67 0,-3148c8.79,-110.12 58.62,-195.96 149.5,-257.5c49.31,-30.94 102.97,-48.1 161,-51.5z" fill="#000000" id="svg_2" opacity="1"/>
  </g>
  <g id="svg_3">
   <path d="m316,173.06c1045.67,-0.17 2091.33,0 3137,0.5c55.39,7.09 96.55,34.92 123.5,83.5c8.57,17.03 13.9,35.03 16,54c0.5,844 0.67,1688 0.5,2532c-1140,0 -2280,0 -3420,0c-0.17,-842.67 0,-1685.33 0.5,-2528c8.41,-67.41 44.58,-112.58 108.5,-135.5c11.29,-3.16 22.63,-5.32 34,-6.5z" fill="#0090c6" id="svg_4"/>
  </g>
  <g id="svg_5">
   <path d="m1211,596.06c0,591.33 0,1182.67 0,1774c-149.33,0 -298.67,0 -448,0c0.33,-440.83 0,-881.5 -1,-1322c-110.67,46.33 -221.34,92.67 -332,139c-0.33,-117.24 0,-234.4 1,-351.5c157.33,-79.67 314.67,-159.33 472,-239c102.67,-0.5 205.33,-0.67 308,-0.5z" fill="#000000" id="svg_6"/>
  </g>
  <g id="svg_7">
   <path d="m2555,597.06c-380.67,0 -761.33,0 -1142,0c0,342.67 0,685.33 0,1028c-0.33,0 -0.67,0 -1,0c0,-343 0,-686 0,-1029c381.17,-0.33 762.17,0 1143,1z" fill="#002330" id="svg_8"/>
  </g>
  <g id="svg_9">
   <path d="m2555,597.06c0,116 0,232 0,348c-251,0 -502,0 -753,0c0,110.67 0,221.33 0,332c22.01,-2.22 44.01,-4.56 66,-7c0.33,0 0.67,0 1,0c103.4,-10.58 207.07,-14.75 311,-12.5c74.85,1.22 148.18,12.22 220,33c55.65,17.15 105.65,44.15 150,81c17.29,15.79 32.96,32.95 47,51.5c39.4,55.17 64.23,116.5 74.5,184c12.76,77.48 17.43,155.48 14,234c-1.43,65.09 -9.1,129.43 -23,193c-33.09,151.08 -122.59,251.91 -268.5,302.5c-58.61,19.66 -118.61,33.32 -180,41c-105.34,11.94 -211,16.28 -317,13c-139.8,-6.61 -279.14,-18.61 -418,-36c-29.05,-4.62 -58.05,-9.45 -87,-14.5c0,-107.33 0,-214.67 0,-322c1.33,0 2.67,0 4,0c172.68,15.04 345.68,24.37 519,28c49.45,-0.2 98.79,-2.7 148,-7.5c29.56,-2.97 58.22,-9.63 86,-20c29.38,-10.38 50.88,-29.55 64.5,-57.5c8.48,-21.26 14.15,-43.26 17,-66c6.53,-53.76 5.86,-107.43 -2,-161c-2.66,-15.35 -7.16,-30.01 -13.5,-44c-16.39,-37.4 -44.39,-61.56 -84,-72.5c-30.71,-8.76 -62.04,-14.09 -94,-16c-84.63,-5.22 -169.29,-5.89 -254,-2c-123.59,4.95 -246.92,13.45 -370,25.5c0,-342.67 0,-685.33 0,-1028c380.67,0 761.33,0 1142,0z" fill="#000000" id="svg_10"/>
  </g>
  <g id="svg_11">
   <path d="m1211,596.06c22.3,21.8 44.47,43.8 66.5,66c0.5,592 0.67,1184 0.5,1776c-149.67,0.17 -299.33,0 -449,-0.5c-22.2,-22.03 -44.2,-44.2 -66,-66.5c149.5,0.33 298.83,0 448,-1c0,-591.33 0,-1182.67 0,-1774z" fill="#004689" id="svg_12"/>
  </g>
  <g id="svg_13">
   <path d="m2555,597.06c22.3,21.8 44.47,43.8 66.5,66c0.5,116 0.67,232 0.5,348c-251.33,0 -502.67,0 -754,0c0,86.33 0,172.67 0,259c-21.99,2.44 -43.99,4.78 -66,7c0,-110.67 0,-221.33 0,-332c251,0 502,0 753,0c0,-116 0,-232 0,-348z" fill="#00478a" id="svg_14"/>
  </g>
  <g id="svg_15">
   <path d="m2622,1011.06c-250.83,1 -501.83,1.33 -753,1c0,86 0,172 0,258c-0.33,0 -0.67,0 -1,0c0,-86.33 0,-172.67 0,-259c251.33,0 502.67,0 754,0z" fill="#00619f" id="svg_16"/>
  </g>
  <g id="svg_17">
   <path d="m762,1048.06c0,31.67 0,63.33 0,95c-88.59,36.42 -176.92,73.42 -265,111c-22.69,-22.02 -45.02,-44.35 -67,-67c110.66,-46.33 221.33,-92.67 332,-139z" fill="#004689" id="svg_18"/>
  </g>
  <g id="svg_19">
   <path d="m3156,1267.06c-0.33,71.57 0,143.07 1,214.5c71.67,0.5 143.33,0.67 215,0.5c0,58.67 0,117.33 0,176c-71.9,-0.33 -143.74,0 -215.5,1c-0.5,72.33 -0.67,144.67 -0.5,217c-47.67,0 -95.33,0 -143,0c-11.67,0 -23.33,0 -35,0c0,-59 0,-118 0,-177c0,-13.67 0,-27.33 0,-41c-71.33,0 -142.67,0 -214,0c0,-58.67 0,-117.33 0,-176c71.33,0 142.67,0 214,0c0,-71.67 0,-143.33 0,-215c59.33,0 118.67,0 178,0z" fill="#000000" id="svg_20"/>
  </g>
  <g id="svg_21">
   <path d="m3156,1267.06c1,13.49 1.33,27.16 1,41c11.33,0 22.67,0 34,0c0,57.67 0,115.33 0,173c60.5,-0.33 120.84,0 181,1c-71.67,0.17 -143.33,0 -215,-0.5c-1,-71.43 -1.33,-142.93 -1,-214.5z" fill="#004586" id="svg_22"/>
  </g>
  <g id="svg_23">
   <path d="m2597,1423.06c47.45,35.97 83.28,81.3 107.5,136c8.92,20.08 16.25,40.75 22,62c18.65,76.84 27.48,154.84 26.5,234c1.25,82.57 -6.59,164.23 -23.5,245c-13.56,65.44 -40.56,124.44 -81,177c-41.65,49.76 -92.48,87.26 -152.5,112.5c-56.77,23.19 -115.43,39.52 -176,49c-94.48,13.96 -189.48,20.46 -285,19.5c-43.03,0.09 -86.03,-1.08 -129,-3.5c-114.93,-7.39 -229.6,-17.72 -344,-31c-34.78,-5.02 -69.44,-10.69 -104,-17c-22.2,-22.03 -44.2,-44.2 -66,-66.5c28.95,5.05 57.95,9.88 87,14.5c138.86,17.39 278.2,29.39 418,36c106,3.28 211.66,-1.06 317,-13c61.39,-7.68 121.39,-21.34 180,-41c145.91,-50.59 235.41,-151.42 268.5,-302.5c13.9,-63.57 21.57,-127.91 23,-193c3.43,-78.52 -1.24,-156.52 -14,-234c-10.27,-67.5 -35.1,-128.83 -74.5,-184z" fill="#004689" id="svg_24"/>
  </g>
  <g id="svg_25">
   <path d="m3372,1482.06c1,13.49 1.33,27.16 1,41c11.33,0 22.67,0 34,0c0,58.67 0,117.33 0,176c-72,0 -144,0 -216,0c0,72.67 0,145.33 0,218c-59.33,0 -118.67,0 -178,0c0,-13.67 0,-27.33 0,-41c47.67,0 95.33,0 143,0c-0.17,-72.33 0,-144.67 0.5,-217c71.76,-1 143.6,-1.33 215.5,-1c0,-58.67 0,-117.33 0,-176z" fill="#004688" id="svg_26"/>
  </g>
  <g id="svg_27">
   <path d="m2215,1690.06c-31.31,-11.36 -63.65,-18.2 -97,-20.5c-81.92,-5.69 -163.92,-7.03 -246,-4c-131.62,4.88 -262.95,13.54 -394,26c-22.2,-22.03 -44.2,-44.2 -66,-66.5c0.33,0 0.67,0 1,0c123.08,-12.05 246.41,-20.55 370,-25.5c84.71,-3.89 169.37,-3.22 254,2c31.96,1.91 63.29,7.24 94,16c39.61,10.94 67.61,35.1 84,72.5z" fill="#004689" id="svg_28"/>
  </g>
  <g id="svg_29">
   <path d="m2764,1658.06c71.33,0 142.67,0 214,0c0,13.67 0,27.33 0,41c-60,0 -120,0 -180,0c0,-13.33 0,-26.67 0,-40c-11.51,0.33 -22.85,-0.01 -34,-1z" fill="#004688" id="svg_30"/>
  </g>
  <g id="svg_31">
   <path d="m3407,1699.06c-71.5,1 -143.16,1.33 -215,1c0.33,72.5 0,144.84 -1,217c0,-72.67 0,-145.33 0,-218c72,0 144,0 216,0z" fill="#007db7" id="svg_32"/>
  </g>
  <g id="svg_33">
   <path d="m1396,2018.06c-1.33,0 -2.67,0 -4,0c0,107.33 0,214.67 0,322c-1,-107.5 -1.33,-215.17 -1,-323c1.91,-0.28 3.58,0.05 5,1z" fill="#004762" id="svg_34"/>
  </g>
  <g id="svg_35">
   <path d="m762,1048.06c1,440.5 1.33,881.17 1,1322c149.33,0 298.67,0 448,0c-149.17,1 -298.5,1.33 -448,1c-1,-409.17 -1.33,-818.5 -1,-1228c0,-31.67 0,-63.33 0,-95z" fill="#011927" id="svg_36"/>
  </g>
  <g id="svg_37">
   <path d="m1414,3336.06c-0.99,-41.59 -1.33,-83.26 -1,-125c91.33,0 182.67,0 274,0c-2.9,105 -5.74,210 -8.5,315c-2.81,13.47 -10.97,21.64 -24.5,24.5c-112.87,7.86 -225.87,11.86 -339,12c-45.9,-2.28 -84.73,-19.78 -116.5,-52.5c-20.43,-23.54 -32.77,-50.88 -37,-82c-1.14,-53.98 -1.64,-107.98 -1.5,-162c0.17,-50.67 0.33,-101.33 0.5,-152c6.88,-63.95 40.05,-108.11 99.5,-132.5c16.18,-5.88 32.85,-9.55 50,-11c114.06,-0.7 228.06,1.47 342,6.5c-0.32,46.33 -0.66,92.67 -1,139c-93.67,-0.17 -187.33,0 -281,0.5c-21.04,2.71 -33.21,14.54 -36.5,35.5c-0.67,76 -0.67,152 0,228c3.47,20.8 15.64,32.97 36.5,36.5c51.99,-0.34 103.99,-0.51 156,-0.5c0.3,-24 0.63,-48 1,-72c-37.67,-2.67 -75.33,-5.33 -113,-8z" fill="#fefefe" id="svg_38"/>
  </g>
  <g id="svg_39">
   <path d="m2821,2984.06c0.71,0.9 1.71,1.24 3,1c0,16.33 0,32.67 0,49c0,13.67 0,27.33 0,41c-1,14.16 -1.33,28.49 -1,43c-90.83,-0.33 -181.5,0 -272,1c-7.66,-1.81 -13.49,0.52 -17.5,7c-0.67,7.33 -0.67,14.67 0,22c1.47,5.47 4.97,8.97 10.5,10.5c65.19,12.65 130.52,24.65 196,36c22.86,4.4 44.86,11.4 66,21c29.44,15.8 46.94,40.3 52.5,73.5c1.05,8.32 2.05,16.66 3,25c0.67,36 0.67,72 0,108c-0.54,26.5 -6.87,51.5 -19,75c-14.72,22.95 -34.89,39.11 -60.5,48.5c-29.73,10.55 -60.39,16.22 -92,17c-109.53,-0.51 -218.87,-5.34 -328,-14.5c0,-45 0,-90 0,-135c96.33,0.17 192.67,0 289,-0.5c9.11,-0.78 17.78,-3.11 26,-7c4.8,-3.76 7.96,-8.59 9.5,-14.5c0.67,-12.33 0.67,-24.67 0,-37c-1.5,-4.17 -4.33,-7 -8.5,-8.5c-75.33,-14 -150.66,-28 -226,-42c-23.83,-5.04 -45.49,-14.71 -65,-29c-17.07,-16.5 -26.91,-36.67 -29.5,-60.5c-0.67,-5.33 -1.33,-10.67 -2,-16c-0.67,-32.33 -0.67,-64.67 0,-97c3.41,-58.37 32.57,-97.2 87.5,-116.5c21.47,-7.03 43.47,-11.36 66,-13c35.98,-1.54 71.98,-1.88 108,-1c68.11,2.99 136.11,7.49 204,13.5z" fill="#fefefe" id="svg_40"/>
  </g>
  <g id="svg_41">
   <path d="m1067,2975.06c-57.33,0 -114.67,0 -172,0c0,194.33 0,388.67 0,583c-1,-194.5 -1.33,-389.17 -1,-584c57.84,-0.33 115.5,0 173,1z" fill="#b3b3b3" id="svg_42"/>
  </g>
  <g id="svg_43">
   <path d="m1067,2975.06c0,194.33 0,388.67 0,583c-57.33,0 -114.67,0 -172,0c0,-194.33 0,-388.67 0,-583c57.33,0 114.67,0 172,0z" fill="#fefffe" id="svg_44"/>
  </g>
  <g id="svg_45">
   <path d="m2135,2975.06c-121.67,0 -243.33,0 -365,0c0,194.33 0,388.67 0,583c-1,-194.5 -1.33,-389.17 -1,-584c122.17,-0.33 244.17,0 366,1z" fill="#adadad" id="svg_46"/>
  </g>
  <g id="svg_47">
   <path d="m2135,2975.06c41.61,1.37 78.61,14.87 111,40.5c27.39,25.6 43.55,57.1 48.5,94.5c0.67,43 0.67,86 0,129c-4.78,52.72 -30.28,91.55 -76.5,116.5c-0.52,0.56 -0.86,1.23 -1,2c28.73,66.8 57.73,133.47 87,200c-60.34,0.83 -120.67,0.67 -181,-0.5c-25.6,-59.02 -51.6,-117.86 -78,-176.5c-34,-0.5 -68,-0.67 -102,-0.5c0,59.33 0,118.67 0,178c-57.67,0 -115.33,0 -173,0c0,-194.33 0,-388.67 0,-583c121.67,0 243.33,0 365,0z" fill="#fefefe" id="svg_48"/>
  </g>
  <g id="svg_49">
   <path d="m2821,2984.06c1.33,0 2.67,0 4,0c0.33,16.84 0,33.51 -1,50c0,-16.33 0,-32.67 0,-49c-1.29,0.24 -2.29,-0.1 -3,-1z" fill="#4d4d4d" id="svg_50"/>
  </g>
  <g id="svg_51">
   <path d="m1943,3113.06c46.33,-0.17 92.67,0 139,0.5c22.19,1.54 35.69,13.04 40.5,34.5c0.67,20.67 0.67,41.33 0,62c-3.97,22.63 -17.47,34.79 -40.5,36.5c-46.33,0.5 -92.67,0.67 -139,0.5c0,-44.67 0,-89.33 0,-134z" fill="#000000" id="svg_52"/>
  </g>
  <g id="svg_53">
   <path d="m2824,3075.06c0,14.67 0,29.33 0,44c-91,0 -182,0 -273,0c90.5,-1 181.17,-1.33 272,-1c-0.33,-14.51 0,-28.84 1,-43z" fill="#bfbfbf" id="svg_54"/>
  </g>
  <g id="svg_55">
   <path d="m1413,3211.06c-0.33,41.74 0.01,83.41 1,125c-1.33,-20.49 -2,-41.32 -2,-62.5c0,-21 0.33,-41.84 1,-62.5z" fill="#7f7f7f" id="svg_56"/>
  </g>
 </g>
</svg>