<?xml version="1.0"?>
<svg width="3765.9999999999995" height="3765.9999999999995" xmlns="http://www.w3.org/2000/svg" xmlns:svg="http://www.w3.org/2000/svg" clip-rule="evenodd" fill-rule="evenodd" version="1.1">
 <g class="layer">
  <title>Layer 1</title>
  <g id="svg_1">
   <path d="m309,0.06c1049.33,-0.17 2098.67,0 3148,0.5c114.01,9.14 201.51,61.64 262.5,157.5c27.72,46.85 43.05,97.52 46,152c0.67,1048.67 0.67,2097.33 0,3146c-8.66,113.55 -60.5,201.05 -155.5,262.5c-46.16,27.71 -96.16,43.38 -150,47c-1051.33,0.67 -2102.67,0.67 -3154,0c-96.62,-7.89 -175.45,-49.05 -236.5,-123.5c-41.08,-53.23 -64.08,-113.56 -69,-181c-0.67,-1052 -0.67,-2104 0,-3156c9.42,-106.39 57.58,-189.89 144.5,-250.5c50.01,-32.28 104.68,-50.45 164,-54.5z" fill="#000000" id="svg_2" opacity="1"/>
  </g>
  <g id="svg_3">
   <path d="m312,173.06c1046.33,-0.17 2092.67,0 3139,0.5c67.43,8.43 112.6,44.6 135.5,108.5c3.08,11.14 5.08,22.47 6,34c0.5,842.33 0.67,1684.67 0.5,2527c-1140,0 -2280,0 -3420,0c-0.17,-844.33 0,-1688.67 0.5,-2533c10.6,-66.39 47.77,-110.22 111.5,-131.5c9.05,-2.28 18.05,-4.11 27,-5.5z" fill="#ec251b" id="svg_4"/>
  </g>
  <g id="svg_5">
   <path d="m2709,793.06c30.75,48.72 50.58,101.72 59.5,159c12.31,83.99 10.31,167.65 -6,251c-23.46,112.8 -88.29,191.3 -194.5,235.5c-30.39,12.6 -61.72,22.1 -94,28.5c0,3.67 0,7.33 0,11c52.86,10.73 103.19,28.4 151,53c44.45,22.11 80.12,54.11 107,96c20.53,32.4 35.03,67.4 43.5,105c21.13,103.51 21.79,207.18 2,311c-21.64,112.91 -82.48,197.07 -182.5,252.5c-53.95,27.54 -110.62,47.54 -170,60c-76.91,15.49 -154.57,24.82 -233,28c-117.84,6.03 -235.51,3.69 -353,-7c-68.63,-6.55 -135.96,-19.55 -202,-39c-51.79,-15.57 -100.12,-38.07 -145,-67.5c-73.45,-53.37 -119.95,-124.7 -139.5,-214c-14.78,-66.54 -20.12,-133.87 -16,-202c1.27,-46.38 7.6,-92.05 19,-137c26.72,-96.72 86.55,-163.89 179.5,-201.5c17.69,-7.68 35.69,-14.52 54,-20.5c21.3,-7.07 42.96,-12.74 65,-17c0.29,-3.61 -0.04,-7.11 -1,-10.5c-56.67,-11.16 -109.34,-31.99 -158,-62.5c-54.68,-35.67 -92.84,-84.33 -114.5,-146c-17.76,-52.87 -27.42,-107.2 -29,-163c-3.99,-65.75 2.34,-130.42 19,-194c27.1,-95.74 83.93,-167.91 170.5,-216.5c59.12,-30.71 121.45,-52.04 187,-64c74.36,-14.04 149.36,-22.37 225,-25c107.5,-4.74 214.83,-2.41 322,7c80.17,7.17 158.5,23.17 235,48c55.91,18.94 105.91,47.6 150,86c18.06,17.21 34.39,35.71 49,55.5z" fill="#000000" id="svg_6"/>
  </g>
  <g id="svg_7">
   <path d="m1198,615.06c0,583.67 0,1167.33 0,1751c-147.33,0 -294.67,0 -442,0c0,-396.67 0,-793.33 0,-1190c0.33,-38.67 0,-77.34 -1,-116c-0.61,0.12 -0.94,0.46 -1,1c-109.08,45.47 -218.08,91.14 -327,137c-0.33,-115.67 0,-231.34 1,-347c155.18,-78.76 310.51,-157.26 466,-235.5c101.33,-0.5 202.67,-0.67 304,-0.5z" fill="#000000" id="svg_8"/>
  </g>
  <g id="svg_9">
   <path d="m1198,615.06c27.3,26.8 54.47,53.8 81.5,81c0.5,584 0.67,1168 0.5,1752c-148,0.17 -296,0 -444,-0.5c-26.87,-26.7 -53.53,-53.53 -80,-80.5c147.5,0.33 294.83,0 442,-1c0,-583.67 0,-1167.33 0,-1751z" fill="#6a0100" id="svg_10"/>
  </g>
  <g id="svg_11">
   <path d="m2709,793.06c63.14,45.54 105.64,105.88 127.5,181c17.52,63.46 24.52,128.13 21,194c-0.63,60.44 -10.96,119.11 -31,176c-21.78,58.06 -58.28,104.56 -109.5,139.5c-28.05,18.69 -58.05,33.69 -90,45c-1.26,0.42 -1.92,1.25 -2,2.5c-47.81,-24.6 -98.14,-42.27 -151,-53c0,-3.67 0,-7.33 0,-11c32.28,-6.4 63.61,-15.9 94,-28.5c106.21,-44.2 171.04,-122.7 194.5,-235.5c16.31,-83.35 18.31,-167.01 6,-251c-8.92,-57.28 -28.75,-110.28 -59.5,-159z" fill="#6a0100" id="svg_12"/>
  </g>
  <g id="svg_13">
   <path d="m2323,1021.06c-17.05,-4.75 -34.38,-8.25 -52,-10.5c-16.98,-1.62 -33.98,-2.96 -51,-4c-45.99,-1.58 -91.99,-1.91 -138,-1c-31.21,1.52 -62.21,4.85 -93,10c-22.04,3.9 -42.37,11.9 -61,24c-19.34,14.02 -32.5,32.52 -39.5,55.5c-7.17,24.82 -11.17,50.16 -12,76c-2,33.38 -1.33,66.72 2,100c1.75,14.15 4.25,28.15 7.5,42c-50.18,-14.64 -78.68,-47.97 -85.5,-100c-7.5,-50.85 -8.5,-101.85 -3,-153c2.13,-24.19 8.46,-47.19 19,-69c16.83,-27.36 40.99,-44.86 72.5,-52.5c42.1,-9.61 84.76,-14.61 128,-15c56.44,-1.67 112.77,-0.01 169,5c26.53,2.47 52.2,8.47 77,18c32.7,14.54 52.7,39.38 60,74.5z" fill="#6a0100" id="svg_14"/>
  </g>
  <g id="svg_15">
   <path d="m2323,1021.06c5.47,24.31 8.64,48.98 9.5,74c1.28,34.74 0.28,69.41 -3,104c-2.33,23.98 -8.99,46.64 -20,68c-16.72,23.69 -39.22,39.19 -67.5,46.5c-30.88,7.65 -62.21,12.32 -94,14c-57.34,3.28 -114.67,3.28 -172,0c-17.69,-1.8 -35.36,-3.8 -53,-6c-12.59,-1.88 -24.93,-4.72 -37,-8.5c-3.25,-13.85 -5.75,-27.85 -7.5,-42c-3.33,-33.28 -4,-66.62 -2,-100c0.83,-25.84 4.83,-51.18 12,-76c7,-22.98 20.16,-41.48 39.5,-55.5c18.63,-12.1 38.96,-20.1 61,-24c30.79,-5.15 61.79,-8.48 93,-10c46.01,-0.91 92.01,-0.58 138,1c17.02,1.04 34.02,2.38 51,4c17.62,2.25 34.95,5.75 52,10.5z" fill="#ec251b" id="svg_16"/>
  </g>
  <g id="svg_17">
   <path d="m754,1061.06c1,38.16 1.33,76.5 1,115c0,0.33 0,0.67 0,1c-82.05,33.8 -164.05,67.8 -246,102c-27.96,-26.3 -55.3,-53.3 -82,-81c108.92,-45.86 217.92,-91.53 327,-137z" fill="#6b0100" id="svg_18"/>
  </g>
  <g id="svg_19">
   <path d="m754,1061.06c0.06,-0.54 0.39,-0.88 1,-1c1,38.66 1.33,77.33 1,116c-0.33,0 -0.67,0 -1,0c0.33,-38.5 0,-76.84 -1,-115z" fill="#190000" id="svg_20"/>
  </g>
  <g id="svg_21">
   <path d="m3245,1287.06c0,0.33 0,0.67 0,1c0,57.67 0,115.33 0,173c11.33,0 22.67,0 34,0c0.33,0 0.67,0 1,0c60.33,0 120.67,0 181,0c0,13.67 0,27.33 0,41c0,45.33 0,90.67 0,136c-72,0 -144,0 -216,0c0,72.67 0,145.33 0,218c-47.67,0 -95.33,0 -143,0c-11.49,-0.99 -23.15,-1.33 -35,-1c0,-58.67 0,-117.33 0,-176c0,-13.67 0,-27.33 0,-41c-60,0 -120,0 -180,0c-11.67,0 -23.33,0 -35,0c0,-59 0,-118 0,-177c71.67,0 143.33,0 215,0c0,-71.67 0,-143.33 0,-215c59.33,0 118.67,0 178,0c0,13.67 0,27.33 0,41z" fill="#000000" id="svg_22"/>
  </g>
  <g id="svg_23">
   <path d="m3245,1288.06c11.33,0 22.67,0 34,0c0,57.67 0,115.33 0,173c-11.33,0 -22.67,0 -34,0c0,-57.67 0,-115.33 0,-173z" fill="#720500" id="svg_24"/>
  </g>
  <g id="svg_25">
   <path d="m3245,1288.06c0,-0.33 0,-0.67 0,-1c11.67,0 23.33,0 35,0c0,58 0,116 0,174c-0.33,0 -0.67,0 -1,0c0,-57.67 0,-115.33 0,-173c-11.33,0 -22.67,0 -34,0z" fill="#910d07" id="svg_26"/>
  </g>
  <g id="svg_27">
   <path d="m1495,1405.06c48.66,30.51 101.33,51.34 158,62.5c0.96,3.39 1.29,6.89 1,10.5c-22.04,4.26 -43.7,9.93 -65,17c-16.66,-10.81 -32.66,-22.65 -48,-35.5c-16.02,-14.34 -30.19,-30.18 -42.5,-47.5c-1.7,-2.08 -2.87,-4.41 -3.5,-7z" fill="#6a0100" id="svg_28"/>
  </g>
  <g id="svg_29">
   <path d="m3461,1502.06c11.67,0 23.33,0 35,0c0,59 0,118 0,177c-72,0 -144,0 -216,0c-1,72.16 -1.33,144.5 -1,217c-59,0 -118,0 -177,0c0,-13.33 0,-26.67 0,-40c47.67,0 95.33,0 143,0c0,-72.67 0,-145.33 0,-218c72,0 144,0 216,0c0,-45.33 0,-90.67 0,-136z" fill="#730500" id="svg_30"/>
  </g>
  <g id="svg_31">
   <path d="m2732,1627.06c54.96,36.51 93.13,86.18 114.5,149c16.23,52.73 24.9,106.73 26,162c4.39,76.61 -3.28,151.95 -23,226c-28.47,95.13 -86.3,166.29 -173.5,213.5c-42.94,21.54 -87.61,38.54 -134,51c-72.65,17.76 -146.32,29.09 -221,34c-122.03,7.6 -244.03,7.26 -366,-1c-81.3,-5.61 -160.97,-19.95 -239,-43c-52.45,-15.89 -101.11,-39.23 -146,-70c-30.21,-22.04 -56.21,-48.21 -78,-78.5c44.88,29.43 93.21,51.93 145,67.5c66.04,19.45 133.37,32.45 202,39c117.49,10.69 235.16,13.03 353,7c78.43,-3.18 156.09,-12.51 233,-28c59.38,-12.46 116.05,-32.46 170,-60c100.02,-55.43 160.86,-139.59 182.5,-252.5c19.79,-103.82 19.13,-207.49 -2,-311c-8.47,-37.6 -22.97,-72.6 -43.5,-105z" fill="#6b0100" id="svg_32"/>
  </g>
  <g id="svg_33">
   <path d="m2337,1733.06c-31.63,-9.16 -63.96,-14.33 -97,-15.5c-50.3,-2.43 -100.64,-3.09 -151,-2c-35.92,0.75 -71.58,4.08 -107,10c-27.1,4.69 -51.76,15.03 -74,31c-22.27,20.37 -35.77,45.54 -40.5,75.5c-11.34,69.67 -9.84,139 4.5,208c-44.36,-12.31 -71.86,-40.97 -82.5,-86c-5.52,-24.35 -8.85,-49.02 -10,-74c-3.01,-47.41 -0.01,-94.41 9,-141c10.37,-42.59 36.2,-71.09 77.5,-85.5c17.85,-6.37 36.18,-10.7 55,-13c61.16,-6.63 122.49,-8.96 184,-7c43.67,0.48 87,4.48 130,12c28.94,5.22 54.11,17.72 75.5,37.5c12.75,14.5 21.59,31.17 26.5,50z" fill="#6a0100" id="svg_34"/>
  </g>
  <g id="svg_35">
   <path d="m2887,1638.06c60,0 120,0 180,0c0,13.67 0,27.33 0,41c-60,0 -120,0 -180,0c0,-13.67 0,-27.33 0,-41z" fill="#730500" id="svg_36"/>
  </g>
  <g id="svg_37">
   <path d="m2337,1733.06c6.57,24.86 10.07,50.2 10.5,76c0.67,25.33 0.67,50.67 0,76c-0.9,25.84 -4.9,51.18 -12,76c-9.9,36.9 -32.74,62.07 -68.5,75.5c-24.46,7.36 -49.46,12.02 -75,14c-78.62,5.18 -157.29,5.85 -236,2c-18.34,-1.91 -36.68,-3.91 -55,-6c-9.92,-1.22 -19.59,-3.38 -29,-6.5c-14.34,-69 -15.84,-138.33 -4.5,-208c4.73,-29.96 18.23,-55.13 40.5,-75.5c22.24,-15.97 46.9,-26.31 74,-31c35.42,-5.92 71.08,-9.25 107,-10c50.36,-1.09 100.7,-0.43 151,2c33.04,1.17 65.37,6.34 97,15.5z" fill="#ec251b" id="svg_38"/>
  </g>
  <g id="svg_39">
   <path d="m3280,1679.06c0,72.67 0,145.33 0,218c-59.67,0 -119.33,0 -179,0c0,-13.67 0,-27.33 0,-41c-11.51,0.33 -22.85,-0.01 -34,-1c11.85,-0.33 23.51,0.01 35,1c0,13.33 0,26.67 0,40c59,0 118,0 177,0c-0.33,-72.5 0,-144.84 1,-217z" fill="#a2120b" id="svg_40"/>
  </g>
  <g id="svg_41">
   <path d="m755,1176.06c0.33,0 0.67,0 1,0c0,396.67 0,793.33 0,1190c147.33,0 294.67,0 442,0c-147.17,1 -294.5,1.33 -442,1c-1,-396.5 -1.33,-793.17 -1,-1190c0,-0.33 0,-0.67 0,-1z" fill="#470502" id="svg_42"/>
  </g>
  <g id="svg_43">
   <path d="m1642,3100.06c-0.99,4.81 -1.32,9.81 -1,15c-91.5,-0.33 -182.83,0 -274,1c-24.66,0.56 -39.16,12.89 -43.5,37c-0.67,74 -0.67,148 0,222c1.31,23.97 13.81,37.81 37.5,41.5c51.65,-0.43 103.32,-0.6 155,-0.5c1.24,-24 1.24,-48 0,-72c-37.6,-3.36 -75.26,-6.03 -113,-8c0,-41.67 0,-83.33 0,-125c91.33,0 182.67,0 274,0c-2.48,105.01 -5.32,210.01 -8.5,315c-2.13,14.13 -10.29,22.29 -24.5,24.5c-113.21,7.77 -226.54,11.77 -340,12c-47.13,-3.15 -86.63,-21.99 -118.5,-56.5c-20.28,-26.17 -31.95,-55.84 -35,-89c-0.67,-100.67 -0.67,-201.33 0,-302c9.49,-76.83 51.99,-123.99 127.5,-141.5c7.92,-1.65 15.92,-2.65 24,-3c113.39,-0.8 226.72,1.37 340,6.5c0,41 0,82 0,123z" fill="#fefefe" id="svg_44"/>
  </g>
  <g id="svg_45">
   <path d="m2546,2969.06c41.7,0.44 83.37,1.94 125,4.5c48.02,3.27 96.02,6.77 144,10.5c-0.87,44.99 -1.2,89.99 -1,135c-94.67,-0.17 -189.33,0 -284,0.5c-2.12,1.12 -3.96,2.62 -5.5,4.5c-2,9 -2,18 0,27c3.57,4.21 8.07,7.04 13.5,8.5c62.6,11.7 125.27,23.04 188,34c21.27,3.98 41.94,9.98 62,18c29,12.33 48.16,33.49 57.5,63.5c3.19,11.46 5.19,23.13 6,35c0.94,43.69 0.61,87.35 -1,131c-4.85,49.6 -30.02,84.1 -75.5,103.5c-31.35,11.1 -63.68,17.1 -97,18c-35.34,0.45 -70.67,0.11 -106,-1c-72.69,-3.83 -145.36,-8.17 -218,-13c-1.99,-44.95 -2.66,-90.12 -2,-135.5c96,0.17 192,0 288,-0.5c10.95,-0.4 20.95,-3.57 30,-9.5c4.37,-4.42 6.87,-9.75 7.5,-16c0.67,-10.33 0.67,-20.67 0,-31c-1.41,-5.07 -4.57,-8.57 -9.5,-10.5c-62.12,-12.45 -124.45,-23.78 -187,-34c-26.78,-4.19 -52.78,-11.19 -78,-21c-33.05,-15.23 -51.55,-41.06 -55.5,-77.5c-0.92,-6.98 -1.59,-13.98 -2,-21c-0.67,-29 -0.67,-58 0,-87c1.74,-57.34 28.9,-96.84 81.5,-118.5c17.24,-6.06 34.91,-10.39 53,-13c22.09,-2.57 44.09,-4.07 66,-4.5z" fill="#fefefe" id="svg_46"/>
  </g>
  <g id="svg_47">
   <path d="m884,2974.06c57.67,0 115.33,0 173,0c0,194.67 0,389.33 0,584c-57.67,0 -115.33,0 -173,0c0,-194.67 0,-389.33 0,-584z" fill="#fefefe" id="svg_48"/>
  </g>
  <g id="svg_49">
   <path d="m2127,2975.06c-122.33,0 -244.67,0 -367,0c0,194.33 0,388.67 0,583c-1,-194.5 -1.33,-389.17 -1,-584c122.83,-0.33 245.5,0 368,1z" fill="#909090" id="svg_50"/>
  </g>
  <g id="svg_51">
   <path d="m2127,2975.06c39.89,1.63 75.56,14.47 107,38.5c30.86,27.56 48.03,62.06 51.5,103.5c0.67,38.67 0.67,77.33 0,116c-3.73,55.84 -29.89,97.17 -78.5,124c29,66.67 58,133.33 87,200c-60.33,1 -120.66,1.33 -181,1c-25.37,-59.08 -51.04,-118.08 -77,-177c-34.33,-1 -68.66,-1.33 -103,-1c0,59.33 0,118.67 0,178c-57.67,0 -115.33,0 -173,0c0,-194.33 0,-388.67 0,-583c122.33,0 244.67,0 367,0z" fill="#fefefe" id="svg_52"/>
  </g>
  <g id="svg_53">
   <path d="m1933,3113.06c47.33,-0.17 94.67,0 142,0.5c23.32,2.99 36.16,16.16 38.5,39.5c0.67,17.67 0.67,35.33 0,53c-2.7,23.7 -15.87,37.2 -39.5,40.5c-47,0.5 -94,0.67 -141,0.5c0,-44.67 0,-89.33 0,-134z" fill="#010101" id="svg_54"/>
  </g>
  <g id="svg_55">
   <path d="m1642,3100.06c0,5.33 0,10.67 0,16c-91.67,0 -183.33,0 -275,0c91.17,-1 182.5,-1.33 274,-1c-0.32,-5.19 0.01,-10.19 1,-15z" fill="#7f7f7f" id="svg_56"/>
  </g>
 </g>
</svg>