<?xml version="1.0" encoding="UTF-8" standalone="no"?>
<!-- Created with Inkscape (http://www.inkscape.org/) -->

<svg
   version="1.1"
   id="svg2"
   width="65.279999"
   height="79.373337"
   viewBox="0 0 65.279999 79.373337"
   sodipodi:docname="Generic_18.svg"
   inkscape:version="1.3 (0e150ed6c4, 2023-07-21)"
   xmlns:inkscape="http://www.inkscape.org/namespaces/inkscape"
   xmlns:sodipodi="http://sodipodi.sourceforge.net/DTD/sodipodi-0.dtd"
   xmlns="http://www.w3.org/2000/svg"
   xmlns:svg="http://www.w3.org/2000/svg">
  <defs
     id="defs6" />
  <sodipodi:namedview
     id="namedview4"
     pagecolor="#ffffff"
     bordercolor="#000000"
     borderopacity="0.25"
     inkscape:showpageshadow="2"
     inkscape:pageopacity="0.0"
     inkscape:pagecheckerboard="0"
     inkscape:deskcolor="#d1d1d1"
     inkscape:zoom="6.7708335"
     inkscape:cx="32.639999"
     inkscape:cy="39.655384"
     inkscape:window-width="1600"
     inkscape:window-height="837"
     inkscape:window-x="-8"
     inkscape:window-y="-8"
     inkscape:window-maximized="1"
     inkscape:current-layer="g8" />
  <g
     id="g8"
     inkscape:groupmode="layer"
     inkscape:label="ink_ext_XXXXXX"
     transform="matrix(1.3333333,0,0,-1.3333333,0,79.373333)">
    <g
       id="g10"
       transform="scale(0.1)">
      <path
         d="M 489.59,595.273 H 0 V 0 h 489.59 v 595.273 0"
         style="fill:#ffffff;fill-opacity:1;fill-rule:nonzero;stroke:none"
         id="path12" />
      <path
         d="m 6.25,6.36719 h 477.09 v 582.52 H 6.25 Z"
         style="fill:#000000;fill-opacity:1;fill-rule:nonzero;stroke:none"
         id="path14" />
      <path
         d="M 26.1719,460.156 H 463.496 V 25.5859 H 26.1719 V 460.156"
         style="fill:#ffffff;fill-opacity:1;fill-rule:nonzero;stroke:none"
         id="path16" />
      <path
         d="M 45.7227,568.148 V 482.469 H 26.875 v 85.679 h 18.8477"
         style="fill:#ffffff;fill-opacity:1;fill-rule:nonzero;stroke:none"
         id="path18" />
      <path
         d="m 154.082,515.59 -10.801,31.441 h -0.246 l -11.16,-31.441 z m -1.086,52.558 32.043,-85.679 H 165.48 l -6.476,19.082 h -32.051 l -6.719,-19.082 h -18.957 l 32.395,85.679 h 19.324"
         style="fill:#ffffff;fill-opacity:1;fill-rule:nonzero;stroke:none"
         id="path20" />
      <path
         d="m 279.961,529.391 c 4.324,0 7.566,0.961 9.719,2.879 2.168,1.918 3.242,5.039 3.242,9.359 0,4.16 -1.074,7.18 -3.242,9.059 -2.153,1.878 -5.395,2.824 -9.719,2.824 h -20.645 v -24.121 z m 6.727,38.757 c 3.832,0 7.289,-0.621 10.375,-1.859 3.082,-1.242 5.718,-2.941 7.925,-5.098 2.192,-2.164 3.867,-4.664 5.039,-7.5 1.157,-2.843 1.743,-5.902 1.743,-9.179 0,-5.039 -1.079,-9.407 -3.184,-13.082 -2.133,-3.68 -5.59,-6.481 -10.395,-8.399 v -0.238 c 2.329,-0.645 4.258,-1.621 5.762,-2.945 1.527,-1.317 2.777,-2.875 3.735,-4.676 0.957,-1.805 1.66,-3.781 2.085,-5.945 0.454,-2.157 0.747,-4.317 0.903,-6.477 0.078,-1.359 0.176,-2.961 0.254,-4.801 0.078,-1.84 0.215,-3.722 0.41,-5.64 0.191,-1.918 0.523,-3.739 0.957,-5.457 0.445,-1.719 1.109,-3.18 1.988,-4.383 h -18.847 c -1.036,2.722 -1.676,5.957 -1.915,9.722 -0.234,3.762 -0.601,7.36 -1.074,10.797 -0.64,4.481 -2.011,7.758 -4.082,9.844 -2.09,2.078 -5.484,3.121 -10.203,3.121 h -18.848 v -33.484 h -18.828 v 85.679 h 46.2"
         style="fill:#ffffff;fill-opacity:1;fill-rule:nonzero;stroke:none"
         id="path22" />
      <path
         d="m 430.09,545.293 c -1.125,1.797 -2.524,3.379 -4.199,4.734 -1.68,1.364 -3.586,2.422 -5.703,3.184 -2.122,0.758 -4.336,1.141 -6.665,1.141 -4.238,0 -7.839,-0.821 -10.796,-2.461 -2.961,-1.641 -5.364,-3.84 -7.2,-6.598 -1.843,-2.766 -3.183,-5.902 -4.023,-9.426 -0.84,-3.519 -1.262,-7.156 -1.262,-10.918 0,-3.597 0.422,-7.097 1.262,-10.496 0.84,-3.402 2.18,-6.465 4.023,-9.183 1.836,-2.723 4.239,-4.899 7.2,-6.54 2.957,-1.64 6.558,-2.46 10.796,-2.46 5.762,0 10.266,1.757 13.497,5.281 3.246,3.515 5.226,8.16 5.949,13.918 h 18.23 c -0.476,-5.356 -1.719,-10.199 -3.711,-14.516 -2,-4.324 -4.644,-8.004 -7.918,-11.043 -3.281,-3.039 -7.129,-5.359 -11.523,-6.961 -4.402,-1.597 -9.238,-2.398 -14.524,-2.398 -6.558,0 -12.46,1.137 -17.695,3.418 -5.242,2.281 -9.668,5.422 -13.262,9.418 -3.601,4 -6.367,8.703 -8.281,14.101 -1.922,5.403 -2.879,11.223 -2.879,17.461 0,6.399 0.957,12.34 2.879,17.821 1.914,5.476 4.68,10.261 8.281,14.339 3.594,4.082 8.02,7.282 13.262,9.598 5.235,2.32 11.137,3.484 17.695,3.484 4.719,0 9.18,-0.679 13.379,-2.043 4.203,-1.363 7.961,-3.339 11.282,-5.937 3.32,-2.602 6.062,-5.82 8.222,-9.664 2.157,-3.836 3.516,-8.234 4.082,-13.195 h -18.242 c -0.32,2.156 -1.047,4.14 -2.156,5.941"
         style="fill:#ffffff;fill-opacity:1;fill-rule:nonzero;stroke:none"
         id="path24" />
      <path
         d="M 97.1602,293.535 H 42.168 v 36.66 h 5.0664 c 18.7226,0 33.4687,3.512 44.2695,10.532 10.7811,7.015 17.6051,18.324 20.4691,33.925 H 153.32 V 98.5352 H 97.1602 V 293.535"
         style="fill:#000000;fill-opacity:1;fill-rule:nonzero;stroke:none"
         id="path26" />
      <path
         d="m 240.281,270.918 c 4.934,-6.25 11.574,-9.367 19.895,-9.367 8.32,0 14.941,3.117 19.883,9.367 4.941,6.23 7.414,15.984 7.414,29.25 0,25.211 -9.106,37.824 -27.297,37.824 -18.203,0 -27.305,-12.613 -27.305,-37.824 0,-13.266 2.473,-23.02 7.41,-29.25 z m -10.73,-112.129 c 0.918,-5.851 2.597,-10.918 5.078,-15.215 2.461,-4.277 5.781,-7.668 9.941,-10.136 4.16,-2.473 9.356,-3.704 15.606,-3.704 6.23,0 11.433,1.231 15.594,3.704 4.152,2.468 7.472,5.859 9.953,10.136 2.461,4.297 4.148,9.364 5.058,15.215 0.918,5.848 1.367,12.031 1.367,18.524 0,6.757 -0.449,13 -1.367,18.722 -0.91,5.723 -2.597,10.723 -5.058,15.02 -2.481,4.285 -5.801,7.656 -9.953,10.136 -4.161,2.461 -9.364,3.711 -15.594,3.711 -6.25,0 -11.446,-1.25 -15.606,-3.711 -4.16,-2.48 -7.48,-5.851 -9.941,-10.136 -2.481,-4.297 -4.16,-9.297 -5.078,-15.02 -0.906,-5.722 -1.36,-11.965 -1.36,-18.722 0,-6.493 0.454,-12.676 1.36,-18.524 z m -45.821,62.598 c 7.801,12.48 19.5,20.273 35.098,23.398 v 0.781 c -7.539,1.817 -13.848,4.676 -18.906,8.575 -5.078,3.906 -9.168,8.32 -12.285,13.261 -3.125,4.942 -5.332,10.137 -6.641,15.606 -1.301,5.457 -1.941,10.652 -1.941,15.594 0,27.043 7.215,46.476 21.648,58.308 14.426,11.828 34.246,17.742 59.473,17.742 25.215,0 45.039,-5.914 59.472,-17.742 14.434,-11.832 21.641,-31.265 21.641,-58.308 0,-4.942 -0.723,-10.137 -2.148,-15.594 -1.426,-5.469 -3.692,-10.664 -6.817,-15.606 -3.125,-4.941 -7.219,-9.355 -12.285,-13.261 -5.078,-3.899 -11.25,-6.758 -18.523,-8.575 v -0.781 c 15.593,-3.125 27.293,-10.918 35.086,-23.398 7.812,-12.481 11.699,-27.442 11.699,-44.856 0,-8.054 -0.977,-16.902 -2.91,-26.511 -1.953,-9.629 -6.055,-18.594 -12.286,-26.915 -6.25,-8.32 -15.156,-15.214 -26.718,-20.664 -11.574,-5.4683 -26.973,-8.2027 -46.211,-8.2027 -19.246,0 -34.649,2.7344 -46.223,8.2027 -11.57,5.45 -20.476,12.344 -26.707,20.664 -6.25,8.321 -10.332,17.286 -12.285,26.915 -1.953,9.609 -2.93,18.457 -2.93,26.511 0,17.414 3.907,32.375 11.699,44.856"
         style="fill:#000000;fill-opacity:1;fill-rule:nonzero;stroke:none"
         id="path28" />
      <path
         d="m 341.563,231.922 v 29.922 h 40.214 v 46.094 h 26.114 v -46.094 h 40.234 v -29.922 h -40.234 v -46.074 h -26.114 v 46.074 h -40.214"
         style="fill:#000000;fill-opacity:1;fill-rule:nonzero;stroke:none"
         id="path30" />
      <path
         d="m 447.441,39.8438 h -5.507 v 25.3906 h -0.164 l -9.434,-25.3906 h -4.484 l -8.965,25.3906 h -0.164 V 39.8438 h -5.508 v 32.2343 h 8.738 l 8.485,-23.9726 h 0.167 l 8.262,23.9726 h 8.574 z m -38.156,32.2343 v -4.1679 h -9.363 V 39.8438 h -5.508 v 28.0664 h -9.363 v 4.1679 h 24.234"
         style="fill:#000000;fill-opacity:1;fill-rule:nonzero;stroke:none"
         id="path32" />
    </g>
  </g>
</svg>
