<?xml version="1.0" encoding="UTF-8" standalone="no"?>
<!-- Created with Inkscape (http://www.inkscape.org/) -->

<svg
   version="1.1"
   id="svg2"
   width="65.279999"
   height="79.373337"
   viewBox="0 0 65.279999 79.373337"
   sodipodi:docname="Generic_7.svg"
   inkscape:version="1.3 (0e150ed6c4, 2023-07-21)"
   xmlns:inkscape="http://www.inkscape.org/namespaces/inkscape"
   xmlns:sodipodi="http://sodipodi.sourceforge.net/DTD/sodipodi-0.dtd"
   xmlns="http://www.w3.org/2000/svg"
   xmlns:svg="http://www.w3.org/2000/svg">
  <defs
     id="defs6" />
  <sodipodi:namedview
     id="namedview4"
     pagecolor="#ffffff"
     bordercolor="#000000"
     borderopacity="0.25"
     inkscape:showpageshadow="2"
     inkscape:pageopacity="0.0"
     inkscape:pagecheckerboard="0"
     inkscape:deskcolor="#d1d1d1"
     inkscape:zoom="6.7708335"
     inkscape:cx="32.639999"
     inkscape:cy="39.655384"
     inkscape:window-width="1600"
     inkscape:window-height="837"
     inkscape:window-x="-8"
     inkscape:window-y="-8"
     inkscape:window-maximized="1"
     inkscape:current-layer="g8" />
  <g
     id="g8"
     inkscape:groupmode="layer"
     inkscape:label="ink_ext_XXXXXX"
     transform="matrix(1.3333333,0,0,-1.3333333,0,79.373333)">
    <g
       id="g10"
       transform="scale(0.1)">
      <path
         d="M 489.574,595.273 H 0 V 0 h 489.574 v 595.273 0"
         style="fill:#ffffff;fill-opacity:1;fill-rule:nonzero;stroke:none"
         id="path12" />
      <path
         d="m 6.25,6.36719 h 477.074 v 582.52 H 6.25 Z"
         style="fill:#000000;fill-opacity:1;fill-rule:nonzero;stroke:none"
         id="path14" />
      <path
         d="M 25.7305,460.156 H 464.164 V 25.5859 H 25.7305 V 460.156"
         style="fill:#ffffff;fill-opacity:1;fill-rule:nonzero;stroke:none"
         id="path16" />
      <path
         d="m 296.82,326.172 c -11.445,-16.125 -21.648,-33.418 -30.625,-51.875 -8.965,-18.457 -16.832,-37.434 -23.59,-56.934 -6.761,-19.504 -12.351,-39.336 -16.765,-59.472 -4.426,-20.157 -7.805,-39.981 -10.141,-59.473 h -58.89 c 2.078,16.629 5.199,34.121 9.359,52.449 4.152,18.332 9.684,36.985 16.574,55.969 6.887,18.973 15.27,38.086 25.156,57.324 9.879,19.238 21.579,38.086 35.098,56.551 H 126.777 V 369.07 H 296.82 v -42.898"
         style="fill:#000000;fill-opacity:1;fill-rule:nonzero;stroke:none"
         id="path18" />
      <path
         d="m 53.9258,568.148 v -85.679 h -18.836 v 85.679 h 18.836"
         style="fill:#ffffff;fill-opacity:1;fill-rule:nonzero;stroke:none"
         id="path20" />
      <path
         d="m 162.285,515.59 -10.801,31.441 h -0.238 L 140.082,515.59 Z m -1.078,52.558 32.039,-85.679 h -19.558 l -6.481,19.082 h -32.043 l -6.719,-19.082 h -18.957 l 32.399,85.679 h 19.32"
         style="fill:#ffffff;fill-opacity:1;fill-rule:nonzero;stroke:none"
         id="path22" />
      <path
         d="m 288.168,529.391 c 4.328,0 7.57,0.961 9.719,2.879 2.168,1.918 3.242,5.039 3.242,9.359 0,4.16 -1.074,7.18 -3.242,9.059 -2.149,1.878 -5.391,2.824 -9.719,2.824 h -20.645 v -24.121 z m 6.73,38.757 c 3.829,0 7.286,-0.621 10.372,-1.859 3.074,-1.242 5.71,-2.941 7.918,-5.098 2.187,-2.164 3.867,-4.664 5.039,-7.5 1.152,-2.843 1.738,-5.902 1.738,-9.179 0,-5.039 -1.074,-9.407 -3.184,-13.082 -2.129,-3.68 -5.586,-6.481 -10.379,-8.399 v -0.238 c 2.313,-0.645 4.246,-1.621 5.75,-2.945 1.524,-1.317 2.774,-2.875 3.731,-4.676 0.957,-1.805 1.66,-3.781 2.09,-5.945 0.449,-2.157 0.742,-4.317 0.898,-6.477 0.078,-1.359 0.176,-2.961 0.254,-4.801 0.078,-1.84 0.215,-3.722 0.41,-5.64 0.195,-1.918 0.528,-3.739 0.957,-5.457 0.449,-1.719 1.113,-3.18 1.992,-4.383 h -18.836 c -1.035,2.722 -1.679,5.957 -1.914,9.722 -0.234,3.762 -0.605,7.36 -1.074,10.797 -0.644,4.481 -2.012,7.758 -4.082,9.844 -2.09,2.078 -5.488,3.121 -10.207,3.121 h -18.848 v -33.484 h -18.832 v 85.679 h 46.207"
         style="fill:#ffffff;fill-opacity:1;fill-rule:nonzero;stroke:none"
         id="path24" />
      <path
         d="m 438.285,545.293 c -1.113,1.797 -2.519,3.379 -4.199,4.734 -1.68,1.364 -3.574,2.422 -5.703,3.184 -2.11,0.758 -4.336,1.141 -6.66,1.141 -4.239,0 -7.832,-0.821 -10.801,-2.461 -2.949,-1.641 -5.352,-3.84 -7.188,-6.598 -1.855,-2.766 -3.183,-5.902 -4.023,-9.426 -0.84,-3.519 -1.27,-7.156 -1.27,-10.918 0,-3.597 0.43,-7.097 1.27,-10.496 0.84,-3.402 2.168,-6.465 4.023,-9.183 1.836,-2.723 4.239,-4.899 7.188,-6.54 2.969,-1.64 6.562,-2.46 10.801,-2.46 5.761,0 10.273,1.757 13.496,5.281 3.242,3.515 5.234,8.16 5.957,13.918 h 18.222 c -0.468,-5.356 -1.718,-10.199 -3.71,-14.516 -1.993,-4.324 -4.649,-8.004 -7.911,-11.043 -3.281,-3.039 -7.129,-5.359 -11.523,-6.961 -4.414,-1.597 -9.238,-2.398 -14.531,-2.398 -6.563,0 -12.461,1.137 -17.696,3.418 -5.234,2.281 -9.668,5.422 -13.261,9.418 -3.594,4 -6.368,8.703 -8.282,14.101 -1.914,5.403 -2.871,11.223 -2.871,17.461 0,6.399 0.957,12.34 2.871,17.821 1.914,5.476 4.688,10.261 8.282,14.339 3.593,4.082 8.027,7.282 13.261,9.598 5.235,2.32 11.133,3.484 17.696,3.484 4.726,0 9.179,-0.679 13.379,-2.043 4.199,-1.363 7.968,-3.339 11.289,-5.937 3.32,-2.602 6.054,-5.82 8.222,-9.664 2.149,-3.836 3.516,-8.234 4.082,-13.195 h -18.242 c -0.332,2.156 -1.055,4.14 -2.168,5.941"
         style="fill:#ffffff;fill-opacity:1;fill-rule:nonzero;stroke:none"
         id="path26" />
      <path
         d="m 264.156,180.34 v 29.922 h 40.223 v 46.074 h 26.113 v -46.074 h 40.215 V 180.34 h -40.215 v -46.094 h -26.113 v 46.094 h -40.223"
         style="fill:#000000;fill-opacity:1;fill-rule:nonzero;stroke:none"
         id="path28" />
      <path
         d="m 448.109,39.8242 h -5.507 v 25.3906 h -0.164 l -9.434,-25.3906 h -4.484 l -8.965,25.3906 h -0.164 V 39.8242 h -5.508 v 32.2344 h 8.738 l 8.488,-23.9727 h 0.164 l 8.262,23.9727 h 8.574 z m -38.152,32.2344 v -4.168 H 400.59 V 39.8242 h -5.508 v 28.0664 h -9.363 v 4.168 h 24.238"
         style="fill:#000000;fill-opacity:1;fill-rule:nonzero;stroke:none"
         id="path30" />
    </g>
  </g>
</svg>
