<?xml version="1.0" encoding="UTF-8" standalone="no"?>
<!-- Created with Inkscape (http://www.inkscape.org/) -->

<svg
   version="1.1"
   id="svg2"
   width="65.279999"
   height="79.373337"
   viewBox="0 0 65.279999 79.373337"
   sodipodi:docname="Generic_16.svg"
   inkscape:version="1.3 (0e150ed6c4, 2023-07-21)"
   xmlns:inkscape="http://www.inkscape.org/namespaces/inkscape"
   xmlns:sodipodi="http://sodipodi.sourceforge.net/DTD/sodipodi-0.dtd"
   xmlns="http://www.w3.org/2000/svg"
   xmlns:svg="http://www.w3.org/2000/svg">
  <defs
     id="defs6" />
  <sodipodi:namedview
     id="namedview4"
     pagecolor="#ffffff"
     bordercolor="#000000"
     borderopacity="0.25"
     inkscape:showpageshadow="2"
     inkscape:pageopacity="0.0"
     inkscape:pagecheckerboard="0"
     inkscape:deskcolor="#d1d1d1"
     inkscape:zoom="6.7708335"
     inkscape:cx="32.639999"
     inkscape:cy="39.655384"
     inkscape:window-width="1600"
     inkscape:window-height="837"
     inkscape:window-x="-8"
     inkscape:window-y="-8"
     inkscape:window-maximized="1"
     inkscape:current-layer="g8" />
  <g
     id="g8"
     inkscape:groupmode="layer"
     inkscape:label="ink_ext_XXXXXX"
     transform="matrix(1.3333333,0,0,-1.3333333,0,79.373333)">
    <g
       id="g10"
       transform="scale(0.1)">
      <path
         d="M 489.59,595.27 H 0 V 0 h 489.59 v 595.27 0"
         style="fill:#ffffff;fill-opacity:1;fill-rule:nonzero;stroke:none"
         id="path12" />
      <path
         d="m 6.25,6.36719 h 477.09 v 582.516 H 6.25 Z"
         style="fill:#000000;fill-opacity:1;fill-rule:nonzero;stroke:none"
         id="path14" />
      <path
         d="M 25.3711,460.152 H 463.477 V 26.4258 H 25.3711 V 460.152"
         style="fill:#ffffff;fill-opacity:1;fill-rule:nonzero;stroke:none"
         id="path16" />
      <path
         d="M 95.5547,293.395 H 40.5664 v 36.66 h 5.0703 c 18.7188,0 33.4649,3.511 44.2656,10.531 10.7817,7.016 17.6097,18.324 20.4687,33.926 h 41.348 V 98.3984 H 95.5547 V 293.395"
         style="fill:#000000;fill-opacity:1;fill-rule:nonzero;stroke:none"
         id="path18" />
      <path
         d="m 230.488,162.355 c 0.782,-6.769 2.278,-12.55 4.492,-17.355 2.208,-4.812 5.325,-8.574 9.356,-11.309 4.023,-2.734 9.297,-4.101 15.801,-4.101 6.758,0 12.148,1.367 16.172,4.101 4.035,2.735 7.089,6.563 9.171,11.504 2.079,4.942 3.446,10.723 4.09,17.356 0.645,6.629 0.977,13.836 0.977,21.648 0,18.711 -2.332,32.11 -7.012,40.168 -4.687,8.055 -12.48,12.09 -23.398,12.09 -11.192,0 -19.121,-4.035 -23.789,-12.09 -4.688,-8.058 -7.032,-21.457 -7.032,-40.168 0,-7.812 0.391,-15.086 1.172,-21.844 z m 50.117,166.918 c -3.769,5.719 -10.332,8.579 -19.687,8.579 -7.285,0 -13.203,-1.754 -17.754,-5.262 -4.551,-3.512 -8.066,-8.387 -10.527,-14.625 -2.481,-6.242 -4.102,-13.652 -4.883,-22.231 -0.774,-8.586 -1.16,-17.941 -1.16,-28.078 v -13.652 h 0.777 c 4.68,7.277 11.367,13.066 20.09,17.355 8.699,4.286 19.297,6.434 31.777,6.434 12.227,0 22.617,-2.148 31.2,-6.434 8.585,-4.289 15.539,-10.273 20.871,-17.941 5.332,-7.676 9.218,-16.766 11.699,-27.305 2.48,-10.527 3.711,-22.031 3.711,-34.511 0,-31.973 -7.09,-56.231 -21.25,-72.735 -14.192,-16.512 -36.875,-24.7654 -68.067,-24.7654 -19.25,0 -34.589,3.3789 -46.015,10.1364 -11.446,6.758 -20.227,16.055 -26.328,27.891 -6.114,11.828 -10.079,25.547 -11.895,41.144 -1.824,15.594 -2.734,31.844 -2.734,48.75 0,19.5 0.586,38.418 1.758,56.747 1.171,18.332 4.675,34.574 10.527,48.75 5.848,14.164 15.019,25.543 27.5,34.125 12.48,8.582 30.156,12.867 53.039,12.867 9.871,0 19.434,-1.168 28.66,-3.504 9.231,-2.344 17.363,-6.242 24.375,-11.707 7.024,-5.457 12.676,-12.668 16.973,-21.645 4.297,-8.968 6.562,-20.082 6.816,-33.343 h -53.816 c 0,10.921 -1.887,19.238 -5.657,24.96"
         style="fill:#000000;fill-opacity:1;fill-rule:nonzero;stroke:none"
         id="path20" />
      <path
         d="m 53.2227,568.145 v -85.68 H 34.375 v 85.68 h 18.8477"
         style="fill:#ffffff;fill-opacity:1;fill-rule:nonzero;stroke:none"
         id="path22" />
      <path
         d="m 161.582,515.586 -10.801,31.441 h -0.246 l -11.16,-31.441 z m -1.086,52.559 32.043,-85.68 H 172.98 l -6.476,19.082 h -32.051 l -6.719,-19.082 h -18.957 l 32.395,85.68 h 19.324"
         style="fill:#ffffff;fill-opacity:1;fill-rule:nonzero;stroke:none"
         id="path24" />
      <path
         d="m 287.461,529.387 c 4.324,0 7.566,0.961 9.719,2.879 2.168,1.918 3.242,5.039 3.242,9.359 0,4.16 -1.074,7.18 -3.242,9.059 -2.153,1.879 -5.395,2.824 -9.719,2.824 h -20.645 v -24.121 z m 6.727,38.758 c 3.832,0 7.289,-0.622 10.375,-1.86 3.082,-1.242 5.718,-2.941 7.925,-5.097 2.192,-2.165 3.867,-4.665 5.039,-7.5 1.157,-2.844 1.743,-5.903 1.743,-9.18 0,-5.039 -1.079,-9.406 -3.184,-13.082 -2.133,-3.68 -5.59,-6.481 -10.395,-8.399 v -0.238 c 2.329,-0.644 4.258,-1.621 5.762,-2.945 1.527,-1.317 2.777,-2.875 3.735,-4.676 0.957,-1.805 1.66,-3.781 2.085,-5.945 0.454,-2.157 0.747,-4.317 0.903,-6.477 0.078,-1.359 0.176,-2.961 0.254,-4.801 0.078,-1.84 0.215,-3.722 0.41,-5.64 0.191,-1.918 0.523,-3.739 0.957,-5.457 0.445,-1.719 1.109,-3.18 1.988,-4.383 h -18.847 c -1.036,2.723 -1.676,5.957 -1.915,9.723 -0.234,3.761 -0.601,7.359 -1.074,10.796 -0.64,4.481 -2.011,7.758 -4.082,9.844 -2.09,2.078 -5.484,3.121 -10.203,3.121 h -18.848 v -33.484 h -18.828 v 85.68 h 46.2"
         style="fill:#ffffff;fill-opacity:1;fill-rule:nonzero;stroke:none"
         id="path26" />
      <path
         d="m 437.59,545.289 c -1.125,1.797 -2.524,3.379 -4.199,4.734 -1.68,1.364 -3.586,2.422 -5.703,3.184 -2.122,0.758 -4.336,1.141 -6.665,1.141 -4.238,0 -7.839,-0.821 -10.796,-2.461 -2.961,-1.641 -5.364,-3.84 -7.2,-6.598 -1.843,-2.766 -3.183,-5.902 -4.023,-9.426 -0.84,-3.519 -1.262,-7.156 -1.262,-10.918 0,-3.597 0.422,-7.097 1.262,-10.496 0.84,-3.402 2.18,-6.465 4.023,-9.183 1.836,-2.723 4.239,-4.899 7.2,-6.539 2.957,-1.641 6.558,-2.461 10.796,-2.461 5.762,0 10.266,1.757 13.497,5.281 3.246,3.516 5.226,8.16 5.949,13.918 h 18.23 c -0.476,-5.356 -1.719,-10.199 -3.711,-14.516 -2,-4.324 -4.644,-8.004 -7.918,-11.043 -3.281,-3.039 -7.129,-5.359 -11.523,-6.961 -4.402,-1.597 -9.238,-2.398 -14.524,-2.398 -6.558,0 -12.46,1.137 -17.695,3.418 -5.242,2.281 -9.668,5.422 -13.262,9.418 -3.601,4 -6.367,8.703 -8.281,14.101 -1.922,5.403 -2.879,11.223 -2.879,17.461 0,6.399 0.957,12.34 2.879,17.821 1.914,5.476 4.68,10.261 8.281,14.339 3.594,4.083 8.02,7.282 13.262,9.598 5.235,2.32 11.137,3.485 17.695,3.485 4.719,0 9.18,-0.68 13.379,-2.043 4.203,-1.364 7.961,-3.34 11.282,-5.938 3.32,-2.602 6.062,-5.82 8.222,-9.664 2.157,-3.836 3.516,-8.234 4.082,-13.195 h -18.242 c -0.32,2.156 -1.047,4.14 -2.156,5.941"
         style="fill:#ffffff;fill-opacity:1;fill-rule:nonzero;stroke:none"
         id="path28" />
      <path
         d="m 339.355,262.656 v 29.926 h 40.215 v 46.074 h 26.114 v -46.074 h 40.234 V 262.656 H 405.684 V 216.563 H 379.57 v 46.093 h -40.215"
         style="fill:#000000;fill-opacity:1;fill-rule:nonzero;stroke:none"
         id="path30" />
      <path
         d="m 447.422,40.6641 h -5.508 v 25.3906 h -0.168 l -9.433,-25.3906 h -4.481 l -8.965,25.3906 h -0.168 V 40.6641 h -5.508 v 32.2382 h 8.743 l 8.488,-23.9765 h 0.164 l 8.262,23.9765 h 8.574 z M 409.27,72.9023 v -4.1718 h -9.368 V 40.6641 h -5.507 v 28.0664 h -9.368 v 4.1718 h 24.243"
         style="fill:#000000;fill-opacity:1;fill-rule:nonzero;stroke:none"
         id="path32" />
    </g>
  </g>
</svg>
