<?xml version="1.0" encoding="UTF-8" standalone="no"?>
<!-- Created with Inkscape (http://www.inkscape.org/) -->

<svg
   version="1.1"
   id="svg2"
   width="65.279999"
   height="79.373337"
   viewBox="0 0 65.279999 79.373337"
   sodipodi:docname="Generic_3.svg"
   inkscape:version="1.3 (0e150ed6c4, 2023-07-21)"
   xmlns:inkscape="http://www.inkscape.org/namespaces/inkscape"
   xmlns:sodipodi="http://sodipodi.sourceforge.net/DTD/sodipodi-0.dtd"
   xmlns="http://www.w3.org/2000/svg"
   xmlns:svg="http://www.w3.org/2000/svg">
  <defs
     id="defs6" />
  <sodipodi:namedview
     id="namedview4"
     pagecolor="#ffffff"
     bordercolor="#000000"
     borderopacity="0.25"
     inkscape:showpageshadow="2"
     inkscape:pageopacity="0.0"
     inkscape:pagecheckerboard="0"
     inkscape:deskcolor="#d1d1d1"
     showgrid="false"
     inkscape:zoom="13.541667"
     inkscape:cx="7.753846"
     inkscape:cy="12.516923"
     inkscape:window-width="1600"
     inkscape:window-height="837"
     inkscape:window-x="-8"
     inkscape:window-y="-8"
     inkscape:window-maximized="1"
     inkscape:current-layer="g10" />
  <g
     id="g8"
     inkscape:groupmode="layer"
     inkscape:label="ink_ext_XXXXXX"
     transform="matrix(1.3333333,0,0,-1.3333333,0,79.373333)">
    <g
       id="g10"
       transform="scale(0.1)">
      <path
         d="M 489.574,595.27 H 0 V 0 h 489.574 v 595.27 0"
         style="display:inline;fill:#ffffff;fill-opacity:1;fill-rule:nonzero;stroke:none"
         id="path12" />
      <path
         d="m 6.25,6.36719 h 477.074 v 582.516 H 6.25 Z"
         style="display:inline;fill:#000000;fill-opacity:1;fill-rule:nonzero;stroke:none"
         id="path14" />
      <path
         d="M 26.1016,460.152 H 462.914 V 25.6055 H 26.1016 V 460.152"
         style="fill:#ffffff;fill-opacity:1;fill-rule:nonzero;stroke:none"
         id="path16" />
      <path
         d="m 173.336,142.285 c 4.027,-8.457 12.148,-12.676 24.375,-12.676 6.758,0 12.148,1.172 16.18,3.516 4.031,2.324 7.148,5.508 9.363,9.551 2.207,4.023 3.637,8.769 4.289,14.238 0.645,5.449 0.977,11.172 0.977,17.149 0,6.25 -0.457,12.16 -1.368,17.753 -0.914,5.586 -2.672,10.586 -5.261,15.012 -2.606,4.422 -6.243,7.93 -10.922,10.535 -4.68,2.598 -10.918,3.899 -18.723,3.899 h -18.715 v 36.66 h 18.328 c 5.977,0 10.977,1.23 15.016,3.699 4.027,2.473 7.273,5.723 9.746,9.746 2.473,4.035 4.293,8.653 5.465,13.848 1.168,5.199 1.754,10.66 1.754,16.383 0,13.261 -2.215,22.621 -6.633,28.082 -4.426,5.457 -11.184,8.187 -20.277,8.187 -5.989,0 -10.86,-1.109 -14.625,-3.316 -3.774,-2.211 -6.7,-5.332 -8.774,-9.356 -2.086,-4.039 -3.453,-8.777 -4.097,-14.238 -0.657,-5.457 -0.977,-11.445 -0.977,-17.937 h -51.48 c 0,27.558 6.886,48.031 20.668,61.425 13.781,13.387 33.933,20.082 60.457,20.082 25.214,0 44.781,-5.718 58.691,-17.16 13.906,-11.445 20.867,-29.383 20.867,-53.816 0,-16.645 -3.711,-30.231 -11.113,-40.758 -7.41,-10.527 -17.746,-17.227 -31.012,-20.078 v -0.781 c 17.942,-2.871 30.621,-10.079 38.024,-21.649 7.414,-11.574 11.113,-26.066 11.113,-43.488 0,-9.356 -1.16,-18.984 -3.504,-28.867 -2.336,-9.883 -6.887,-18.848 -13.645,-26.895 -6.777,-8.066 -16.062,-14.57 -27.89,-19.512 -11.836,-4.941 -27.367,-7.4019 -46.606,-7.4019 -26.781,0 -46.797,7.2659 -60.058,21.8359 -13.262,14.551 -19.895,35.234 -19.895,62.012 v 1.172 h 53.824 c 0.254,-16.133 2.399,-28.418 6.438,-36.856"
         style="display:inline;fill:#000000;fill-opacity:1;fill-rule:nonzero;stroke:none"
         id="path18" />
      <path
         d="m 53.2227,568.145 v -85.68 h -18.836 v 85.68 h 18.836"
         style="fill:#ffffff;fill-opacity:1;fill-rule:nonzero;stroke:none"
         id="path20"
         inkscape:label="path20" />
      <path
         d="m 161.582,515.586 -10.801,31.441 h -0.238 l -11.164,-31.441 z m -1.078,52.559 32.039,-85.68 h -19.559 l -6.48,19.082 h -32.039 l -6.723,-19.082 h -18.957 l 32.399,85.68 h 19.32"
         style="fill:#ffffff;fill-opacity:1;fill-rule:nonzero;stroke:none"
         id="path22" />
      <path
         d="m 287.465,529.387 c 4.328,0 7.57,0.961 9.719,2.879 2.168,1.918 3.242,5.039 3.242,9.359 0,4.16 -1.074,7.18 -3.242,9.059 -2.149,1.879 -5.391,2.824 -9.719,2.824 H 266.82 v -24.121 z m 6.73,38.758 c 3.828,0 7.285,-0.622 10.371,-1.86 3.086,-1.242 5.723,-2.941 7.93,-5.097 2.188,-2.165 3.867,-4.665 5.039,-7.5 1.153,-2.844 1.738,-5.903 1.738,-9.18 0,-5.039 -1.074,-9.406 -3.183,-13.082 -2.129,-3.68 -5.586,-6.481 -10.391,-8.399 v -0.238 c 2.324,-0.644 4.258,-1.621 5.762,-2.945 1.523,-1.317 2.773,-2.875 3.73,-4.676 0.957,-1.805 1.661,-3.781 2.09,-5.945 0.449,-2.157 0.742,-4.317 0.899,-6.477 0.078,-1.359 0.175,-2.961 0.254,-4.801 0.078,-1.84 0.214,-3.722 0.41,-5.64 0.195,-1.918 0.527,-3.739 0.957,-5.457 0.449,-1.719 1.113,-3.18 1.992,-4.383 h -18.848 c -1.035,2.723 -1.679,5.957 -1.914,9.723 -0.234,3.761 -0.605,7.359 -1.074,10.796 -0.644,4.481 -2.012,7.758 -4.082,9.844 -2.09,2.078 -5.488,3.121 -10.207,3.121 H 266.82 v -33.484 h -18.832 v 85.68 h 46.207"
         style="fill:#ffffff;fill-opacity:1;fill-rule:nonzero;stroke:none"
         id="path24" />
      <path
         d="m 437.594,545.289 c -1.125,1.797 -2.52,3.379 -4.199,4.734 -1.68,1.364 -3.586,2.422 -5.704,3.184 -2.121,0.758 -4.336,1.141 -6.66,1.141 -4.238,0 -7.843,-0.821 -10.801,-2.461 -2.96,-1.641 -5.363,-3.84 -7.199,-6.598 -1.843,-2.766 -3.183,-5.902 -4.023,-9.426 -0.84,-3.519 -1.258,-7.156 -1.258,-10.918 0,-3.597 0.418,-7.097 1.258,-10.496 0.84,-3.402 2.18,-6.465 4.023,-9.183 1.836,-2.723 4.239,-4.899 7.199,-6.539 2.958,-1.641 6.563,-2.461 10.801,-2.461 5.762,0 10.262,1.757 13.496,5.281 3.243,3.516 5.223,8.16 5.946,13.918 h 18.234 c -0.48,-5.356 -1.719,-10.199 -3.711,-14.516 -2.004,-4.324 -4.648,-8.004 -7.922,-11.043 -3.281,-3.039 -7.129,-5.359 -11.523,-6.961 -4.403,-1.597 -9.238,-2.398 -14.52,-2.398 -6.562,0 -12.461,1.137 -17.695,3.418 -5.246,2.281 -9.668,5.422 -13.262,9.418 -3.605,4 -6.367,8.703 -8.281,14.101 -1.926,5.403 -2.883,11.223 -2.883,17.461 0,6.399 0.957,12.34 2.883,17.821 1.914,5.476 4.676,10.261 8.281,14.339 3.594,4.083 8.016,7.282 13.262,9.598 5.234,2.32 11.133,3.485 17.695,3.485 4.715,0 9.18,-0.68 13.379,-2.043 4.199,-1.364 7.957,-3.34 11.278,-5.938 3.32,-2.602 6.066,-5.82 8.222,-9.664 2.16,-3.836 3.516,-8.234 4.082,-13.195 H 439.75 c -0.32,2.156 -1.043,4.14 -2.156,5.941"
         style="fill:#ffffff;fill-opacity:1;fill-rule:nonzero;stroke:none"
         id="path26" />
      <path
         d="m 277.906,231.914 v 29.922 h 40.223 v 46.098 h 26.113 v -46.098 h 40.227 V 231.914 H 344.242 V 185.84 h -26.113 v 46.074 h -40.223"
         style="display:inline;fill:#000000;fill-opacity:1;fill-rule:nonzero;stroke:none"
         id="path28" />
      <path
         d="m 446.859,39.8438 h -5.507 v 25.3906 h -0.164 l -9.434,-25.3906 h -4.484 l -8.965,25.3906 h -0.164 V 39.8438 h -5.508 V 72.082 h 8.738 l 8.488,-23.9765 h 0.164 l 8.262,23.9765 h 8.574 z M 408.707,72.082 V 67.9102 H 399.34 V 39.8438 h -5.508 v 28.0664 h -9.363 v 4.1718 h 24.238"
         style="display:inline;fill:#000000;fill-opacity:1;fill-rule:nonzero;stroke:none"
         id="path30" />
    </g>
  </g>
</svg>
