<?xml version="1.0" encoding="UTF-8" standalone="no"?>
<!-- Created with Inkscape (http://www.inkscape.org/) -->

<svg
   version="1.1"
   id="svg2"
   width="65.279999"
   height="79.373337"
   viewBox="0 0 65.279999 79.373337"
   sodipodi:docname="Generic_12.svg"
   inkscape:version="1.3 (0e150ed6c4, 2023-07-21)"
   xmlns:inkscape="http://www.inkscape.org/namespaces/inkscape"
   xmlns:sodipodi="http://sodipodi.sourceforge.net/DTD/sodipodi-0.dtd"
   xmlns="http://www.w3.org/2000/svg"
   xmlns:svg="http://www.w3.org/2000/svg">
  <defs
     id="defs6" />
  <sodipodi:namedview
     id="namedview4"
     pagecolor="#ffffff"
     bordercolor="#000000"
     borderopacity="0.25"
     inkscape:showpageshadow="2"
     inkscape:pageopacity="0.0"
     inkscape:pagecheckerboard="0"
     inkscape:deskcolor="#d1d1d1"
     inkscape:zoom="6.7708335"
     inkscape:cx="32.639999"
     inkscape:cy="39.655384"
     inkscape:window-width="1600"
     inkscape:window-height="837"
     inkscape:window-x="-8"
     inkscape:window-y="-8"
     inkscape:window-maximized="1"
     inkscape:current-layer="g8" />
  <g
     id="g8"
     inkscape:groupmode="layer"
     inkscape:label="ink_ext_XXXXXX"
     transform="matrix(1.3333333,0,0,-1.3333333,0,79.373333)">
    <g
       id="g10"
       transform="scale(0.1)">
      <path
         d="M 489.59,595.273 H 0 V 0 h 489.59 v 595.273 0"
         style="fill:#ffffff;fill-opacity:1;fill-rule:nonzero;stroke:none"
         id="path12" />
      <path
         d="m 6.25,6.36719 h 477.09 v 582.52 H 6.25 Z"
         style="fill:#000000;fill-opacity:1;fill-rule:nonzero;stroke:none"
         id="path14" />
      <path
         d="M 25.8984,460.586 H 463.242 V 25.5859 H 25.8984 V 460.586"
         style="fill:#ffffff;fill-opacity:1;fill-rule:nonzero;stroke:none"
         id="path16"
         inkscape:label="path16" />
      <path
         d="M 96.2305,293.398 H 41.25 v 36.661 h 5.0586 c 18.7305,0 33.4766,3.504 44.2773,10.527 10.7811,7.019 17.5981,18.332 20.4691,33.926 h 41.34 V 98.3984 H 96.2305 V 293.398"
         style="fill:#000000;fill-opacity:1;fill-rule:nonzero;stroke:none"
         id="path18" />
      <path
         d="m 172.676,98.3984 c 0,12.2066 1.23,23.6526 3.691,34.3166 2.481,10.652 6.25,20.801 11.321,30.418 5.066,9.621 11.433,19.043 19.109,28.273 7.656,9.227 16.57,18.524 26.719,27.891 l 22.617,21.055 c 6.23,5.468 11.238,10.535 15.012,15.214 3.765,4.676 6.687,9.356 8.777,14.043 2.07,4.676 3.437,9.746 4.094,15.204 0.64,5.46 0.972,11.699 0.972,18.722 0,22.883 -9.109,34.317 -27.293,34.317 -7.031,0 -12.558,-1.426 -16.582,-4.289 -4.035,-2.86 -7.148,-6.758 -9.355,-11.7 -2.219,-4.941 -3.653,-10.664 -4.297,-17.156 -0.645,-6.504 -0.977,-13.398 -0.977,-20.676 h -53.808 v 10.539 c 0,25.731 6.875,45.489 20.664,59.278 13.777,13.781 35.488,20.664 65.137,20.664 28.066,0 48.867,-6.496 62.39,-19.492 13.528,-13.008 20.285,-31.594 20.285,-55.774 0,-8.848 -0.781,-17.098 -2.343,-24.766 -1.563,-7.675 -4.043,-15.019 -7.403,-22.039 -3.398,-7.011 -7.812,-13.839 -13.261,-20.468 -5.469,-6.633 -12.09,-13.457 -19.903,-20.481 l -31.191,-28.855 c -8.321,-7.551 -14.824,-14.895 -19.5,-22.032 -4.68,-7.167 -7.668,-13.339 -8.977,-18.535 H 342.715 V 98.3984 H 172.676"
         style="fill:#000000;fill-opacity:1;fill-rule:nonzero;stroke:none"
         id="path20" />
      <path
         d="M 53.2227,568.145 V 482.469 H 34.3945 v 85.676 h 18.8282"
         style="fill:#ffffff;fill-opacity:1;fill-rule:nonzero;stroke:none"
         id="path22" />
      <path
         d="m 161.582,515.586 -10.801,31.445 h -0.234 l -11.16,-31.445 z m -1.074,52.559 32.043,-85.676 h -19.563 l -6.484,19.082 h -32.031 l -6.719,-19.082 h -18.965 l 32.402,85.676 h 19.317"
         style="fill:#ffffff;fill-opacity:1;fill-rule:nonzero;stroke:none"
         id="path24" />
      <path
         d="m 287.473,529.383 c 4.324,0 7.566,0.969 9.715,2.883 2.167,1.922 3.242,5.039 3.242,9.363 0,4.16 -1.075,7.18 -3.242,9.055 -2.149,1.882 -5.391,2.82 -9.715,2.82 h -20.637 v -24.121 z m 6.726,38.762 c 3.828,0 7.285,-0.618 10.371,-1.856 3.086,-1.242 5.723,-2.941 7.93,-5.098 2.188,-2.168 3.867,-4.668 5.039,-7.5 1.152,-2.843 1.738,-5.91 1.738,-9.179 0,-5.039 -1.074,-9.407 -3.183,-13.086 -2.129,-3.684 -5.586,-6.477 -10.391,-8.399 v -0.234 c 2.324,-0.645 4.258,-1.621 5.762,-2.949 1.523,-1.321 2.773,-2.871 3.73,-4.68 0.957,-1.797 1.66,-3.777 2.09,-5.937 0.449,-2.157 0.742,-4.317 0.899,-6.485 0.078,-1.355 0.175,-2.957 0.254,-4.793 0.078,-1.847 0.214,-3.722 0.41,-5.644 0.195,-1.914 0.527,-3.742 0.957,-5.461 0.449,-1.715 1.113,-3.172 1.992,-4.375 h -18.848 c -1.035,2.715 -1.679,5.957 -1.914,9.719 -0.234,3.757 -0.605,7.363 -1.074,10.8 -0.645,4.481 -2.012,7.754 -4.082,9.844 -2.09,2.078 -5.488,3.113 -10.203,3.113 h -18.84 v -33.476 h -18.848 v 85.676 h 46.211"
         style="fill:#ffffff;fill-opacity:1;fill-rule:nonzero;stroke:none"
         id="path26" />
      <path
         d="m 437.598,545.293 c -1.121,1.797 -2.52,3.379 -4.2,4.734 -1.679,1.36 -3.585,2.422 -5.703,3.184 -2.121,0.754 -4.336,1.133 -6.66,1.133 -4.238,0 -7.844,-0.821 -10.801,-2.461 -2.961,-1.641 -5.363,-3.836 -7.199,-6.59 -1.844,-2.766 -3.18,-5.91 -4.019,-9.426 -0.84,-3.523 -1.262,-7.156 -1.262,-10.918 0,-3.601 0.422,-7.097 1.262,-10.496 0.839,-3.41 2.175,-6.465 4.019,-9.191 1.836,-2.715 4.238,-4.891 7.199,-6.532 2.957,-1.64 6.563,-2.46 10.801,-2.46 5.762,0 10.266,1.757 13.496,5.281 3.242,3.515 5.227,8.156 5.949,13.918 h 18.231 c -0.481,-5.364 -1.719,-10.207 -3.711,-14.524 -2.004,-4.316 -4.648,-7.996 -7.922,-11.035 -3.277,-3.047 -7.129,-5.359 -11.519,-6.961 -4.407,-1.601 -9.243,-2.402 -14.524,-2.402 -6.562,0 -12.461,1.141 -17.695,3.418 -5.242,2.285 -9.668,5.418 -13.262,9.422 -3.601,3.996 -6.367,8.703 -8.281,14.101 -1.926,5.403 -2.879,11.223 -2.879,17.461 0,6.399 0.953,12.336 2.879,17.813 1.914,5.48 4.68,10.265 8.281,14.347 3.594,4.082 8.02,7.274 13.262,9.598 5.234,2.316 11.133,3.477 17.695,3.477 4.719,0 9.18,-0.672 13.379,-2.039 4.199,-1.36 7.957,-3.34 11.277,-5.938 3.325,-2.598 6.067,-5.82 8.227,-9.66 2.156,-3.836 3.516,-8.242 4.078,-13.203 h -18.238 c -0.324,2.16 -1.047,4.14 -2.16,5.949"
         style="fill:#ffffff;fill-opacity:1;fill-rule:nonzero;stroke:none"
         id="path28" />
      <path
         d="m 334.023,164.648 v 29.922 h 40.223 v 46.075 h 26.113 V 194.57 h 40.227 v -29.922 h -40.227 v -46.093 h -26.113 v 46.093 h -40.223"
         style="fill:#000000;fill-opacity:1;fill-rule:nonzero;stroke:none"
         id="path30" />
      <path
         d="m 447.188,39.8438 h -5.508 v 25.3906 h -0.164 l -9.438,-25.3906 h -4.48 l -8.965,25.3906 h -0.164 V 39.8438 h -5.508 v 32.2343 h 8.738 l 8.489,-23.9726 h 0.164 l 8.261,23.9726 h 8.575 z m -38.157,32.2343 v -4.1679 h -9.363 V 39.8438 h -5.508 v 28.0664 h -9.363 v 4.1679 h 24.234"
         style="fill:#000000;fill-opacity:1;fill-rule:nonzero;stroke:none"
         id="path32" />
    </g>
  </g>
</svg>
