<?xml version="1.0" encoding="UTF-8" standalone="no"?>
<!-- Created with Inkscape (http://www.inkscape.org/) -->

<svg
   width="1000"
   height="1000"
   viewBox="0 0 264.5833 264.5833"
   version="1.1"
   id="svg1"
   inkscape:version="1.4.3 (0d15f75, 2025-12-25)"
   sodipodi:docname="logo.color.svg"
   inkscape:export-filename="logo.color.png"
   inkscape:export-xdpi="96"
   inkscape:export-ydpi="96"
   xmlns:inkscape="http://www.inkscape.org/namespaces/inkscape"
   xmlns:sodipodi="http://sodipodi.sourceforge.net/DTD/sodipodi-0.dtd"
   xmlns:xlink="http://www.w3.org/1999/xlink"
   xmlns="http://www.w3.org/2000/svg"
   xmlns:svg="http://www.w3.org/2000/svg">
  <sodipodi:namedview
     id="namedview1"
     pagecolor="#ffffff"
     bordercolor="#000000"
     borderopacity="0.25"
     inkscape:showpageshadow="2"
     inkscape:pageopacity="0.0"
     inkscape:pagecheckerboard="0"
     inkscape:deskcolor="#d1d1d1"
     inkscape:document-units="mm"
     inkscape:zoom="0.80287601"
     inkscape:cx="746.06788"
     inkscape:cy="549.89811"
     inkscape:window-width="2560"
     inkscape:window-height="1382"
     inkscape:window-x="0"
     inkscape:window-y="30"
     inkscape:window-maximized="0"
     inkscape:current-layer="g3" />
  <defs
     id="defs1">
    <linearGradient
       id="linearGradient15"
       inkscape:collect="always">
      <stop
         style="stop-color:#ffc753;stop-opacity:1;"
         offset="0"
         id="stop15" />
      <stop
         style="stop-color:#ff755f;stop-opacity:1;"
         offset="0.42541784"
         id="stop16" />
      <stop
         style="stop-color:#ff3caf;stop-opacity:1;"
         offset="1"
         id="stop12" />
    </linearGradient>
    <linearGradient
       inkscape:collect="always"
       xlink:href="#linearGradient23"
       id="linearGradient24"
       x1="197.23248"
       y1="215.64043"
       x2="128.43286"
       y2="61.113949"
       gradientUnits="userSpaceOnUse"
       gradientTransform="matrix(0.92516897,0,0,0.92516897,89.844208,-1.5031348)" />
    <linearGradient
       id="linearGradient23"
       inkscape:collect="always">
      <stop
         style="stop-color:#ffc753;stop-opacity:1;"
         offset="0"
         id="stop23" />
      <stop
         style="stop-color:#ff755f;stop-opacity:1;"
         offset="0.7238372"
         id="stop11" />
      <stop
         style="stop-color:#ff3caf;stop-opacity:1;"
         offset="1"
         id="stop24" />
    </linearGradient>
    <linearGradient
       inkscape:collect="always"
       xlink:href="#linearGradient15"
       id="linearGradient1"
       gradientUnits="userSpaceOnUse"
       gradientTransform="matrix(0.51951238,-1.1709259,1.1709259,0.51951238,-314.21058,542.88643)"
       x1="339.79803"
       y1="155.16994"
       x2="555.59265"
       y2="155.16994" />
  </defs>
  <g
     inkscape:label="Layer 1"
     inkscape:groupmode="layer"
     id="layer1"
     transform="translate(-27.668255,-59.420704)">
    <g
       id="g3"
       transform="matrix(0.97468732,0,0,0.97468732,3.3461914,4.4185401)">
      <path
         id="rect2-1"
         style="baseline-shift:baseline;display:inline;overflow:visible;fill:#4a4a60;fill-opacity:1;stroke:#ffffff;stroke-width:0;stroke-dasharray:none;stroke-opacity:1;paint-order:stroke fill markers;enable-background:accumulate;stop-color:#000000"
         inkscape:label="outline"
         d="m 114.99477,64.234185 c -4.82758,-0.06227 -9.5006,2.92049 -11.62771,7.714775 -1.49758,3.375381 -1.4502,7.003145 -0.22428,10.195243 -0.73742,-0.236331 -1.62382,-0.315575 -2.46031,0.0067 -0.973033,0.37495 -1.704511,1.183179 -2.051041,1.964221 l -0.0052,0.0124 -1.790589,4.137216 c -0.249594,0.562557 -0.298378,1.280911 -0.209289,2.002978 -1.130853,1.086003 -2.118545,2.347456 -2.791561,3.864364 -1.430363,3.223887 -1.341265,6.622608 -0.173116,9.651608 l -7.059001,-3.13211 c -0.781029,-0.34652 -1.865563,-0.45503 -2.838586,-0.0801 -0.973031,0.37495 -1.701925,1.18215 -2.048454,1.96319 l -1.83348,4.13308 c -0.346529,0.78104 -0.456606,1.86453 -0.08165,2.83755 0.37495,0.97302 1.182666,1.70451 1.963704,2.05104 l 3.947563,1.75132 c -0.578559,0.7738 -1.191498,1.51991 -1.598869,2.43809 -1.514351,3.41318 -1.569731,7.08204 -0.271301,10.19989 -0.548333,-0.18938 -1.174624,-0.2231 -1.826762,-0.1204 -0.657123,-1.03491 -1.508889,-1.95368 -2.698544,-2.4815 -3.177643,-1.40985 -7.116121,0.0406 -8.546248,3.26388 -1.430258,3.22365 0.09221,7.09649 3.31556,8.52661 0.709476,0.31478 1.452922,0.43369 2.191081,0.47852 -0.457058,0.64769 -1.01431,1.27476 -1.315166,1.95286 -0.472553,1.06508 -0.666431,2.18319 -0.736906,3.29437 -0.625968,0.42145 -1.149482,0.95804 -1.407666,1.53996 l -1.833996,4.13308 c -0.208458,0.46984 -0.281319,1.05117 -0.264067,1.65003 -0.455576,0.38907 -0.837465,0.8329 -1.045931,1.30276 l -0.151412,0.34106 -2.149222,-0.95343 c -0.781038,-0.34653 -1.865562,-0.45503 -2.838587,-0.0801 -0.973012,0.37495 -1.704508,1.18319 -2.051037,1.96423 l -1.767851,3.98477 c -0.346528,0.78103 -0.45456,1.86505 -0.07958,2.83807 0.37498,0.97303 1.183746,1.70298 1.964738,2.04948 l 2.149223,0.95343 -0.28267,0.63717 c -0.242046,0.54555 -0.292963,1.23948 -0.219108,1.93942 -0.777756,0.89775 -1.447964,1.81809 -1.876888,2.78484 -0.47255,1.06508 -0.66695,2.18321 -0.737423,3.29438 -0.625652,0.42143 -1.149573,0.95823 -1.407666,1.53995 l -1.83348,4.13308 c -0.267774,0.60353 -0.314224,1.38536 -0.184485,2.15956 -0.630154,0.42176 -1.156078,0.96267 -1.415417,1.54719 l -1.83348,4.13309 c -0.254605,0.57386 -0.302818,1.30978 -0.203088,2.04638 -1.119008,1.07254 -2.092625,2.32804 -2.762106,3.83698 -1.351767,3.04674 -1.341934,6.26138 -0.377238,9.16791 -0.87223,-0.8248 -2.193582,-1.14032 -3.077331,-1.00665 -5.700656,0.68174 -11.000678,4.11487 -13.470496,9.68158 h 5.17e-4 c -1.132476,2.55248 -1.544115,5.23723 -1.333449,7.85487 0.502668,6.24592 4.548365,12.10972 10.798504,14.88276 6.72606,2.98419 14.374473,1.6966 19.364193,-2.84221 l -6.199622,13.97331 -0.0016,0.003 c -2.541199,5.72759 0.122508,12.63735 5.845121,15.17634 l 0.0016,10e-4 143.306505,63.58165 0.002,5.2e-4 c 5.72577,2.54039 12.63752,-0.11811 15.17892,-5.84616 l 0.002,-0.005 66.25539,-149.333 0.11265,-0.3793 c 1.49806,-4.99883 -0.61052,-10.45252 -5.08238,-13.14339 l -0.33279,-0.19895 -4.74907,-2.10685 1.50327,-3.38791 0.0951,-0.28628 c 1.6864,-5.06979 -0.39915,-10.70483 -4.95577,-13.46017 l -0.33797,-0.20515 -130.0365,-57.69467 c -5.12365,-2.273241 -11.19709,-0.379781 -14.23996,4.144967 -0.0451,-3.868843 -1.85606,-7.235748 -4.3739,-9.18962 -1.03535,-0.805078 -2.81649,-0.803491 -3.68504,-0.382923 -0.57259,0.277258 -0.75115,0.594123 -1.01338,0.902788 l -0.0842,-0.744658 -0.0429,-0.183451 c -0.0916,-0.398574 -0.24736,-0.910997 -0.68523,-1.4981 -0.41632,-0.558195 -1.21284,-1.105972 -2.04845,-1.332218 -1.10113,-0.353843 -2.22321,-0.5303 -3.33727,-0.54467 z m -1.34152,5.076693 c -0.0152,0.002 -0.0285,0.0097 -0.0439,0.01137 -0.007,7.87e-4 -0.0202,-0.0026 -0.0295,-0.0031 z M 77.205347,134.23405 c -0.01795,0.0199 -0.02244,0.0431 -0.04134,0.063 -0.01214,0.0128 -0.03898,0.0214 -0.05116,0.0341 z m 49.438323,4.77387 c 0.75742,0.0141 1.52527,0.17685 2.26343,0.50436 l 120.09965,53.28563 c 2.95266,1.31003 4.27469,4.74146 2.96467,7.69411 l -36.47581,82.21307 c -1.31002,2.95265 -4.74196,4.27521 -7.69462,2.96519 L 87.701864,232.38516 c -2.95266,-1.31003 -4.275214,-4.74197 -2.965194,-7.69462 l 36.47581,-82.21307 c 0.98252,-2.21449 3.15893,-3.51187 5.43119,-3.46955 z m -62.028252,23.60321 c -0.0186,0.0206 -0.02226,0.0449 -0.04238,0.0651 -0.01104,0.0115 -0.03465,0.0182 -0.04754,0.0289 z"
         sodipodi:nodetypes="csccccccscccccsccsccscscsccccccccccsccccscccccccsccccsscccccccccccccccccccccscccsccccccccsccsccccccccscccc" />
      <rect
         style="display:inline;fill:url(#linearGradient24);fill-opacity:1;stroke:#8b99a2;stroke-width:0;stroke-dasharray:none;stroke-opacity:1;paint-order:stroke fill markers"
         id="rect23"
         width="156.49265"
         height="114.25849"
         x="162.24567"
         y="69.389915"
         inkscape:label="background"
         transform="rotate(23.92574)"
         sodipodi:insensitive="true" />
      <path
         sodipodi:type="spiral"
         style="display:inline;fill:none;fill-rule:evenodd;stroke:#50506a;stroke-width:10;stroke-linecap:round;stroke-dasharray:none;stroke-opacity:1"
         id="path30"
         sodipodi:cx="166.14149"
         sodipodi:cy="146.17599"
         sodipodi:expansion="1"
         sodipodi:revolution="3.0373192"
         sodipodi:radius="46.59906"
         sodipodi:argument="-20.064301"
         sodipodi:t0="0.12007932"
         d="m 168.79437,151.10274 c -2.78702,3.55137 -8.19336,2.52699 -10.9567,-0.45544 -4.41909,-4.76945 -2.7671,-12.3177 2.01409,-16.15222 6.66638,-5.34643 16.47948,-3.02403 21.34773,3.57274 6.29943,8.53613 3.2895,20.65724 -5.13139,26.54325 -10.39418,7.26529 -24.8434,3.55975 -31.73876,-6.69004 -8.23841,-12.2462 -3.83289,-29.03457 8.24868,-36.93427 14.09472,-9.21603 33.22898,-4.10791 42.12979,9.80733 10.1966,15.94103 4.3842,37.4256 -11.36598,47.32531 -17.78586,11.17922 -41.62379,4.6614 -52.52082,-12.92464 -12.16333,-19.62965 -4.93927,-45.82316 14.48328,-57.71633 14.21886,-8.70675 32.5239,-8.522252 46.78382,-0.01"
         transform="matrix(0.84567092,0.37520438,-0.37520438,0.84567092,84.484129,31.321376)"
         inkscape:label="twirl"
         sodipodi:insensitive="true" />
      <path
         id="rect2-1-9"
         style="baseline-shift:baseline;display:inline;overflow:visible;vector-effect:none;fill:#4a4a60;fill-opacity:1;stroke-width:0.925169;paint-order:stroke fill markers;enable-background:accumulate;stop-color:#000000"
         inkscape:label="outline"
         d="m 144.50439,73.062153 c -5.72754,-2.541176 -12.64169,0.124648 -15.18287,5.852195 l -71.62379,161.432442 -10e-4,0.003 c -2.5412,5.72759 0.12264,12.63714 5.84525,15.17613 l 0.002,7.5e-4 143.30648,63.58172 0.002,7.5e-4 c 5.72577,2.54039 12.63725,-0.11817 15.17865,-5.84622 l 0.002,-0.005 66.25569,-149.33331 0.11265,-0.37892 c 1.49806,-4.99883 -0.61083,-10.4528 -5.08269,-13.14367 l -0.33279,-0.19891 -4.74858,-2.10683 1.50306,-3.38772 0.0951,-0.28627 c 1.6864,-5.06979 -0.3991,-10.70492 -4.95572,-13.46026 l -0.3378,-0.20532 z m -15.59787,66.450307 120.09935,53.28527 c 2.95266,1.31003 4.27512,4.74187 2.9651,7.69452 l -36.47598,82.21299 c -1.31002,2.95265 -4.74186,4.27512 -7.69452,2.9651 L 87.70112,232.38507 c -2.95266,-1.31003 -4.27512,-4.74187 -2.9651,-7.69452 L 121.212,142.47756 c 1.31002,-2.95265 4.74186,-4.27512 7.69452,-2.9651 z"
         sodipodi:insensitive="true" />
      <path
         id="rect2"
         style="display:inline;fill:#c2c2cc;fill-opacity:1;stroke:#8b9aa2;stroke-width:0;stroke-opacity:1"
         inkscape:label="fill"
         d="m 141.97223,78.770848 c -2.66387,-1.181898 -5.75995,0.01118 -6.94185,2.675052 l -66.461798,149.79785 -0.0015,0.003 c -1.179115,2.66216 0.01316,5.75486 2.673985,6.93718 l 143.303853,63.58056 0.003,10e-4 c 2.66195,1.17902 5.75441,-0.0118 6.93728,-2.67185 l 0.002,-0.004 60.93296,-137.33644 c 0.68755,-2.29426 -0.2676,-4.76517 -2.32067,-6.00058 l -8.53529,-3.7869 a 1.71349,1.71349 0 0 1 -0.87134,-2.26117 l 3.21822,-7.25353 c 0.77592,-2.33259 -0.17121,-4.88171 -2.26275,-6.14644 z m -13.06506,60.741612 120.09935,53.28527 c 2.95266,1.31003 4.27512,4.74187 2.9651,7.69452 l -36.47598,82.21299 c -1.31002,2.95265 -4.74186,4.27512 -7.69452,2.9651 L 87.701769,232.38507 c -2.95266,-1.31003 -4.27512,-4.74187 -2.9651,-7.69452 l 36.475981,-82.21299 c 1.31002,-2.95265 4.74186,-4.27512 7.69452,-2.9651 z"
         sodipodi:insensitive="true" />
      <path
         id="rect2-4"
         style="display:inline;fill:#4a4a60;fill-opacity:1;stroke:#8b9aa2;stroke-width:0;stroke-opacity:1"
         inkscape:label="notchies"
         d="m 129.25395,94.465528 -1.94643,4.387043 12.47497,5.534849 c 0.98859,0.43861 2.24177,-0.22407 2.79905,-1.48013 0.5024,-1.22702 0.12064,-2.5285 -0.85263,-2.90691 z m 140.44317,62.311342 c -0.98859,-0.43861 -2.24178,0.22406 -2.79907,1.48013 -0.5024,1.22702 -0.12064,2.5285 0.85264,2.90691 l 12.47496,5.53485 1.94643,-4.38704 z m -144.08623,-54.10028 -1.94618,4.38649 9.78996,4.34358 c 0.98859,0.4386 2.24177,-0.22407 2.79906,-1.48014 0.50215,-1.22694 0.12034,-2.52814 -0.85288,-2.90635 z m 143.12817,63.50262 c -0.98859,-0.43862 -2.24177,0.22406 -2.79906,1.48012 -0.50216,1.22695 -0.12034,2.52816 0.85288,2.90637 l 9.78996,4.34357 1.94618,-4.38649 z m -146.77098,-55.29211 -1.94618,4.38648 12.47497,5.53486 c 0.98859,0.43861 2.24177,-0.22407 2.79905,-1.48013 0.50216,-1.22694 0.12034,-2.52815 -0.85287,-2.90636 z m 140.44317,62.31134 c -0.98859,-0.43861 -2.24178,0.22406 -2.79907,1.48013 -0.50216,1.22694 -0.12034,2.52815 0.85289,2.90636 l 12.47496,5.53485 1.94618,-4.38649 z"
         sodipodi:nodetypes="ccccccsccccsccccccsccccsccccccsccccs"
         sodipodi:insensitive="true" />
      <rect
         style="display:inline;fill:#4a4a60;fill-opacity:1;stroke:#000000;stroke-width:0"
         id="rect17"
         width="126.26756"
         height="33.909332"
         x="176.97096"
         y="28.356222"
         ry="16.954666"
         inkscape:label="grippy dent"
         transform="rotate(23.92574)"
         sodipodi:insensitive="true" />
      <rect
         style="display:inline;fill:none;fill-opacity:1;stroke:#4a4a60;stroke-width:3.33061;stroke-dasharray:none;stroke-opacity:1"
         id="rect17-9-7-6"
         width="143.05098"
         height="101.60319"
         x="168.57933"
         y="75.245781"
         ry="5.8307252"
         inkscape:label="label"
         transform="rotate(23.92574)"
         sodipodi:insensitive="true" />
      <path
         d="m 64.764949,219.65366 c 2.73427,-6.16275 0.02925,-11.9121 -3.280287,-14.30797 -0.131229,-0.10242 -0.270532,0.0125 -0.40567,0.21751 l -2.043218,3.51017 c -0.118793,0.16813 -0.110429,0.34851 0.02494,0.54107 1.739604,2.45016 2.569371,5.15917 1.35778,7.88996 -1.899254,4.28072 -7.604153,5.98962 -12.364612,3.87752 -4.723548,-2.09573 -7.321758,-7.48852 -5.422504,-11.76924 1.08061,-2.43558 3.354572,-4.07669 5.895689,-4.6276 0.233635,-0.0289 0.389302,-0.18062 0.397365,-0.39788 l 0.513824,-4.14455 c 0.02447,-0.25415 -0.110959,-0.44674 -0.397868,-0.39736 -4.69317,0.52359 -8.974988,3.30555 -10.956107,7.77078 -3.061729,6.90082 0.444208,15.12553 7.787852,18.38373 7.380545,3.27458 15.831089,0.35467 18.892818,-6.54614 z m 9.43496,-21.16578 c 0.91688,-2.06656 1.0549,-4.16951 0.54946,-6.11627 -0.0658,-0.25001 0.14736,-0.33213 0.36877,-0.23389 l 0.73805,0.32745 c 0.22142,0.0982 0.43452,0.0161 0.53276,-0.2053 l 1.83376,-4.1331 c 0.0982,-0.22141 0.0161,-0.43452 -0.2053,-0.53276 l -17.676401,-7.8426 c -0.221415,-0.0982 -0.434522,-0.0161 -0.532758,0.2053 l -1.833762,4.1331 c -0.09824,0.22141 -0.01612,0.43452 0.2053,0.53276 l 1.070177,0.47481 c 0.258326,0.11461 0.266635,0.29497 0.02078,0.45089 -1.80305,0.87838 -3.359752,2.39606 -4.260261,4.42571 -2.292202,5.16638 0.207771,10.78059 5.484864,13.12191 5.498508,2.43956 11.281376,0.85358 13.704556,-4.60801 z m -4.10478,-2.39538 c -1.26071,2.84151 -4.543515,3.77003 -7.348125,2.52569 -2.7677,-1.22796 -4.487031,-4.02247 -3.095334,-7.15921 1.277084,-2.87841 4.395655,-4.23312 7.532379,-2.84143 3.17364,1.40807 4.18817,4.59654 2.91108,7.47495 z m 9.76487,-11.65599 1.83376,-4.13312 c 0.0982,-0.22141 0.0161,-0.43451 -0.2053,-0.53275 l -7.08532,-3.14358 c -3.57957,-1.58818 -5.7945,-3.7634 -4.61565,-6.42039 0.19647,-0.44284 0.4668,-0.8529 0.86828,-1.16061 0.20894,-0.17231 0.27443,-0.31991 0.0652,-0.54524 l -3.19959,-3.53959 c -0.18869,-0.172 -0.38955,-0.21703 -0.561605,-0.0283 -0.639049,0.64397 -1.228731,1.57486 -1.572562,2.34981 -0.687659,1.54991 -0.698855,3.26746 -0.156768,4.83299 0.04938,0.2869 -0.05302,0.41815 -0.311334,0.30354 l -1.143988,-0.50756 c -0.221416,-0.0982 -0.434518,-0.0161 -0.532755,0.20529 l -1.833765,4.13311 c -0.09824,0.22142 -0.01611,0.43451 0.205304,0.53275 l 17.713303,7.85898 c 0.22142,0.0982 0.43452,0.0161 0.53276,-0.20529 z m -14.359513,-32.3412 -1.768272,3.9855 c -0.09824,0.22141 -0.01611,0.43451 0.205303,0.53275 l 4.871162,2.16122 c 0.18451,0.0819 0.2461,0.24169 0.16423,0.4262 l -1.48993,3.35815 c -0.0982,0.22141 -0.0161,0.43452 0.2053,0.53276 l 3.21054,1.42444 c 0.22142,0.0982 0.43452,0.0161 0.53275,-0.2053 l 1.48993,-3.35815 c 0.0819,-0.18451 0.2417,-0.24611 0.42621,-0.16424 l 13.83852,6.13983 c 0.22142,0.0982 0.43452,0.0161 0.53276,-0.20529 l 1.76827,-3.9855 c 0.0982,-0.22142 0.0161,-0.43453 -0.2053,-0.53276 l -13.83852,-6.13983 c -0.18451,-0.0819 -0.24611,-0.24169 -0.16424,-0.4262 l 1.35895,-3.06293 c 0.0982,-0.22141 0.0161,-0.43451 -0.20529,-0.53275 l -3.21055,-1.42444 c -0.22141,-0.0982 -0.43452,-0.0161 -0.53275,0.2053 l -1.35895,3.06292 c -0.0819,0.18452 -0.24169,0.24611 -0.4262,0.16424 l -4.871164,-2.16122 c -0.221415,-0.0982 -0.434522,-0.0161 -0.532759,0.2053 z m 26.950273,3.96296 1.83376,-4.1331 c 0.0982,-0.22142 0.0161,-0.43452 -0.2053,-0.53276 l -7.08532,-3.14359 c -3.57957,-1.58817 -5.7945,-3.76339 -4.61565,-6.42038 0.19647,-0.44284 0.4668,-0.8529 0.86827,-1.16061 0.20894,-0.1723 0.27444,-0.31991 0.0652,-0.54523 l -3.1996,-3.5396 c -0.18867,-0.17204 -0.38955,-0.217 -0.5616,-0.0283 -0.63905,0.64397 -1.22873,1.57486 -1.57256,2.34981 -0.68766,1.54992 -0.69886,3.26746 -0.15677,4.83298 0.0494,0.28692 -0.053,0.41815 -0.31133,0.30354 l -1.14399,-0.50756 c -0.22141,-0.0982 -0.43452,-0.0161 -0.53276,0.2053 l -1.83376,4.1331 c -0.0982,0.22143 -0.0161,0.43452 0.2053,0.53276 l 17.71331,7.85898 c 0.22141,0.0982 0.43451,0.0161 0.53276,-0.2053 z m 6.43454,-14.50278 1.833761,-4.13311 c 0.0982,-0.22141 0.0161,-0.43452 -0.2053,-0.53276 l -17.713301,-7.85897 c -0.22142,-0.0982 -0.43452,-0.0161 -0.53276,0.20529 l -1.83376,4.13311 c -0.0982,0.22142 -0.0161,0.43452 0.2053,0.53276 l 17.7133,7.85897 c 0.22142,0.0982 0.43452,0.0161 0.53276,-0.20529 z M 79.579489,130.5166 c 0.70404,-1.58682 -0.0145,-3.45146 -1.60132,-4.1555 -1.62372,-0.7204 -3.472,-0.0388 -4.19241,1.58496 -0.70403,1.58681 0.0145,3.45146 1.63824,4.17187 1.58681,0.70403 3.45146,-0.0145 4.15549,-1.60133 z m 26.739611,-4.91972 c 0.91688,-2.06655 0.9811,-4.20224 0.43875,-6.16538 -0.0657,-0.25001 0.0736,-0.36486 0.33187,-0.25026 l 1.07018,0.47481 c 0.22141,0.0982 0.43452,0.0161 0.53276,-0.2053 l 1.83376,-4.1331 c 0.0982,-0.22142 0.0161,-0.43452 -0.2053,-0.53276 L 85.264169,103.66771 c -0.22142,-0.0982 -0.43452,-0.0161 -0.53276,0.2053 l -1.83376,4.1331 c -0.0982,0.22142 -0.0161,0.43452 0.2053,0.53276 l 8.1186,3.60203 c 0.22142,0.0982 0.26663,0.29497 0.0208,0.45089 -1.72926,0.91112 -3.21215,2.46154 -4.11266,4.49119 -2.42318,5.46161 0.0233,10.69873 5.48486,13.12192 5.49851,2.43956 11.281381,0.85358 13.704561,-4.60802 z m -4.21548,-2.44448 c -1.24434,2.80461 -4.248301,3.901 -7.385041,2.50931 -3.17363,-1.40807 -4.31914,-4.30133 -3.05843,-7.14283 1.27708,-2.87842 4.32185,-4.26588 7.49548,-2.85781 3.136741,1.39169 4.225071,4.61292 2.947991,7.49133 z m 13.96066,-14.34364 2.28144,3.61808 c 0.11902,0.22947 0.35681,0.29081 0.56575,0.11851 6.46509,-5.21415 10.32002,-15.296397 -0.60319,-20.142771 l -16.12649,-7.154943 c -0.22142,-0.09824 -0.43452,-0.01612 -0.53276,0.205297 l -1.796831,4.14949 c -0.0982,0.221417 -0.0161,0.43452 0.205301,0.532757 l 1.03328,0.45844 c 0.25831,0.11461 0.26663,0.294969 -0.0161,0.43452 -1.819431,0.915274 -3.322851,2.412424 -4.223361,4.442074 -2.32495,5.240186 0.24467,10.796966 5.816981,13.269266 5.57231,2.47231 11.08439,0.50119 13.40933,-4.739 0.90051,-2.02965 1.05491,-4.169498 0.57,-6.062986 -0.0494,-0.286909 0.0161,-0.43452 0.16373,-0.369027 5.57231,2.472303 3.6577,8.380383 -0.59162,10.690923 -0.26638,0.10265 -0.27444,0.31991 -0.15545,0.54937 z m -3.98075,-7.15453 c -1.21159,2.7308 -4.58458,3.66346 -7.31539,2.45187 -2.7308,-1.21159 -4.26587,-4.321852 -3.05428,-7.052654 1.24434,-2.804607 4.35875,-4.249501 7.45858,-2.87418 3.09984,1.375325 4.15543,4.670352 2.91109,7.474964 z m 13.96514,-20.12752 c 2.09572,-4.723548 0.21555,-9.046929 -2.18363,-10.906397 -0.13125,-0.102394 -0.30745,-0.0039 -0.44259,0.201139 l -2.05984,3.14946 c -0.11879,0.16813 -0.11042,0.348509 0.0249,0.54107 1.14475,1.700404 1.30169,3.536716 0.48305,5.381853 -0.44207,0.996374 -0.89241,1.812408 -2.06036,2.354227 -0.22946,0.119025 -0.39761,2.57e-4 -0.42645,-0.233375 L 117.8501,68.349151 c -0.0452,-0.196728 -0.1437,-0.372929 -0.34459,-0.417891 -4.13285,-1.436144 -9.12413,0.854372 -11.12163,5.356504 -2.35769,5.313993 0.0646,11.202899 5.48928,13.60971 5.46161,2.423187 11.8014,-0.01987 14.17547,-5.370762 z m -11.71268,-8.641663 1.06773,9.439624 c 0.0289,0.233634 -0.0736,0.364853 -0.31133,0.303539 -3.44782,-0.690545 -5.42988,-4.087457 -4.39474,-7.117381 0.60554,-1.763019 1.89612,-2.78043 3.28153,-2.916591 0.23364,-0.02884 0.31159,0.09408 0.35681,0.290809 z"
         id="text1-7"
         style="font-size:40.3718px;line-height:0px;font-family:Cartridge;-inkscape-font-specification:Cartridge;display:inline;fill:url(#linearGradient1);stroke:#0c1220;stroke-width:0;paint-order:stroke fill markers"
         aria-label="Cartridge"
         sodipodi:insensitive="true" />
    </g>
  </g>
</svg>
