<?xml version="1.0" encoding="UTF-8" standalone="no"?>
<!-- Created with Inkscape (http://www.inkscape.org/) -->

<svg
   width="1000"
   height="1000"
   viewBox="0 0 264.58333 264.58333"
   version="1.1"
   id="svg1"
   inkscape:version="1.4.3 (0d15f75, 2025-12-25)"
   sodipodi:docname="logo.bw.svg"
   inkscape:export-filename="logo.bw.png"
   inkscape:export-xdpi="96"
   inkscape:export-ydpi="96"
   xmlns:inkscape="http://www.inkscape.org/namespaces/inkscape"
   xmlns:sodipodi="http://sodipodi.sourceforge.net/DTD/sodipodi-0.dtd"
   xmlns="http://www.w3.org/2000/svg"
   xmlns:svg="http://www.w3.org/2000/svg">
  <sodipodi:namedview
     id="namedview1"
     pagecolor="#ffffff"
     bordercolor="#000000"
     borderopacity="0.25"
     inkscape:showpageshadow="2"
     inkscape:pageopacity="0.0"
     inkscape:pagecheckerboard="0"
     inkscape:deskcolor="#d1d1d1"
     inkscape:document-units="mm"
     inkscape:zoom="0.45996883"
     inkscape:cx="503.29497"
     inkscape:cy="580.47411"
     inkscape:window-width="1512"
     inkscape:window-height="921"
     inkscape:window-x="0"
     inkscape:window-y="33"
     inkscape:window-maximized="0"
     inkscape:current-layer="layer1" />
  <defs
     id="defs1" />
  <g
     inkscape:label="Layer 1"
     inkscape:groupmode="layer"
     id="layer1"
     transform="translate(-1467.0779,1204.7072)">
    <g
       id="g1"
       transform="matrix(0.89849448,0,0,0.89849448,162.1457,-107.39903)">
      <path
         id="rect2-1-2"
         style="baseline-shift:baseline;display:inline;overflow:visible;vector-effect:none;fill:#000000;fill-opacity:1;stroke-width:0.925169;paint-order:stroke fill markers;enable-background:accumulate;stop-color:#000000"
         inkscape:label="outline"
         d="m 1587.7341,-1190.3759 c -5.7275,-2.5412 -12.6416,0.1247 -15.1828,5.8522 l -71.6238,161.4324 v 0 c -2.5412,5.7276 0.1226,12.6372 5.8452,15.1762 v 7e-4 l 143.3065,63.58175 v 7.5e-4 c 5.7258,2.54039 12.6372,-0.11817 15.1786,-5.84622 v -0.005 l 66.2557,-149.33328 0.1126,-0.3789 c 1.4981,-4.9989 -0.6108,-10.4528 -5.0827,-13.1437 l -0.3327,-0.1989 -4.7486,-2.1069 1.503,-3.3877 0.095,-0.2862 c 1.6863,-5.0698 -0.3992,-10.705 -4.9558,-13.4603 l -0.3378,-0.2053 z m -15.5978,66.4503 120.0993,53.2853 c 2.9527,1.31 4.2751,4.7419 2.9651,7.6945 l -36.476,82.21298 c -1.31,2.9527 -4.7418,4.2752 -7.6945,2.9651 l -120.0993,-53.28528 c -2.9527,-1.31 -4.2751,-4.7418 -2.9651,-7.6945 l 36.476,-82.213 c 1.31,-2.9526 4.7418,-4.2751 7.6945,-2.9651 z" />
      <path
         id="rect2"
         style="display:inline;fill:#ffffff;fill-opacity:1;stroke:#8b9aa2;stroke-width:0;stroke-opacity:1"
         inkscape:label="fill"
         d="m 1585.2013,-1184.6672 c -2.6638,-1.1819 -5.7599,0.011 -6.9418,2.6751 l -66.4618,149.7978 v 0 c -1.1791,2.6622 0.013,5.7549 2.674,6.9372 l 143.3038,63.58054 v 10e-4 c 2.6619,1.17902 5.7544,-0.0118 6.9372,-2.67185 v -0.004 l 60.933,-137.33639 c 0.6875,-2.2943 -0.2676,-4.7652 -2.3207,-6.0006 l -8.5353,-3.7869 c -0.865,-0.3838 -1.2551,-1.3962 -0.8713,-2.2612 l 3.2182,-7.2535 c 0.7759,-2.3326 -0.1712,-4.8817 -2.2627,-6.1465 z"
         sodipodi:nodetypes="cccscccccccccccc" />
      <path
         sodipodi:type="spiral"
         style="display:inline;fill:none;fill-rule:evenodd;stroke:#000000;stroke-width:10;stroke-linecap:round;stroke-dasharray:none;stroke-opacity:1"
         id="path30"
         sodipodi:cx="166.14149"
         sodipodi:cy="146.17599"
         sodipodi:expansion="1"
         sodipodi:revolution="3.0373192"
         sodipodi:radius="46.59906"
         sodipodi:argument="-20.064301"
         sodipodi:t0="0.12007932"
         d="m 168.79437,151.10274 c -2.78702,3.55137 -8.19336,2.52699 -10.9567,-0.45544 -4.41909,-4.76945 -2.7671,-12.3177 2.01409,-16.15222 6.66638,-5.34643 16.47948,-3.02403 21.34773,3.57274 6.29943,8.53613 3.2895,20.65724 -5.13139,26.54325 -10.39418,7.26529 -24.8434,3.55975 -31.73876,-6.69004 -8.23841,-12.2462 -3.83289,-29.03457 8.24868,-36.93427 14.09472,-9.21603 33.22898,-4.10791 42.12979,9.80733 10.1966,15.94103 4.3842,37.4256 -11.36598,47.32531 -17.78586,11.17922 -41.62379,4.6614 -52.52082,-12.92464 -12.16333,-19.62965 -4.93927,-45.82316 14.48328,-57.71633 14.21886,-8.70675 32.5239,-8.522252 46.78382,-0.01"
         transform="matrix(0.84567091,0.37520438,-0.37520438,0.84567091,1527.7132,-1232.1167)"
         inkscape:label="twirl" />
      <path
         id="rect2-4"
         style="display:inline;fill:#000000;fill-opacity:1;stroke:#8b9aa2;stroke-width:0;stroke-opacity:1"
         inkscape:label="notchies"
         d="m 1712.9262,-1106.6612 c -0.9886,-0.4386 -2.2418,0.2241 -2.799,1.4802 -0.5024,1.227 -0.1207,2.5285 0.8526,2.9069 l 12.475,5.5348 1.9464,-4.387 z m -0.958,9.4024 c -0.9886,-0.4386 -2.2418,0.224 -2.7991,1.4801 -0.5022,1.2269 -0.1203,2.5281 0.8529,2.9064 l 9.7899,4.3435 1.9462,-4.3865 z m -6.3279,7.0192 c -0.9885,-0.4386 -2.2417,0.2241 -2.799,1.4801 -0.5022,1.227 -0.1204,2.5282 0.8529,2.9064 l 12.4749,5.5348 1.9462,-4.3864 z"
         sodipodi:nodetypes="sccccssccccssccccs" />
      <rect
         style="display:inline;fill:#000000;fill-opacity:1;stroke:#000000;stroke-width:0"
         id="rect17"
         width="126.26756"
         height="33.909332"
         x="983.7959"
         y="-1711.8218"
         ry="16.954666"
         inkscape:label="grippy dent"
         transform="rotate(23.92574)" />
      <rect
         style="display:inline;fill:none;fill-opacity:1;stroke:#000000;stroke-width:3.33061;stroke-dasharray:none;stroke-opacity:1"
         id="rect17-9-7-6"
         width="143.05098"
         height="101.60319"
         x="975.40424"
         y="-1664.9323"
         ry="5.8307252"
         inkscape:label="label"
         transform="rotate(23.92574)" />
      <path
         id="path4"
         style="display:inline;fill:#ffffff;stroke:#ffffff;stroke-width:0;stroke-linecap:round;paint-order:stroke fill markers"
         d="m 1558.7043,-1204.7058 h -5e-4 -0.029 c -5.0076,-0.076 -9.9296,3.0279 -12.1647,8.0656 -2.0621,4.648 -1.3779,9.7059 1.279,13.6111 l -2.7714,-1.2294 c -0.6319,-0.2802 -1.4902,-0.3631 -2.2593,-0.07 0,0 -0.01,0 -0.013,0.01 v 5e-4 c -0.1681,0.065 -0.327,0.1462 -0.476,0.2398 -10e-5,10e-5 -3e-4,-10e-5 -5e-4,0 -0.1491,0.094 -0.2878,0.1999 -0.4155,0.3152 -0.064,0.058 -0.1248,0.1176 -0.1829,0.1793 -0.1161,0.1235 -0.2204,0.2543 -0.3116,0.3887 -0.046,0.067 -0.088,0.1351 -0.1266,0.2036 -0.046,0.081 -0.087,0.1624 -0.1235,0.2439 -6e-4,0 0,0 0,0 v 0.01 l -0.7503,1.7338 -1.2966,2.9921 v 5e-4 c -0.085,0.1921 -0.1522,0.4052 -0.1958,0.6299 -0.102,0.5184 -0.081,1.101 0.1271,1.6407 0.01,0.02 0.032,0.025 0.041,0.042 -0.029,0.025 -0.058,0.051 -0.087,0.077 -0.3362,0.296 -0.6631,0.6044 -0.9762,0.9276 -0.3125,0.3226 -0.6117,0.6602 -0.8929,1.0154 -0.1729,0.2183 -0.3247,0.4571 -0.4832,0.6894 -0.099,0.1456 -0.2097,0.2804 -0.3028,0.432 -0.2417,0.3931 -0.4613,0.8068 -0.6553,1.2433 -10e-4,0 0,0 0,0.01 -0.012,0.028 -0.019,0.056 -0.031,0.084 -0.2095,0.4812 -0.384,0.9658 -0.5328,1.4521 -0.058,0.1878 -0.1001,0.3755 -0.1488,0.5637 -0.087,0.3359 -0.1636,0.6714 -0.2228,1.0077 -0.037,0.2083 -0.069,0.4156 -0.095,0.6238 -0.042,0.3303 -0.067,0.6594 -0.083,0.9885 -0.01,0.1943 -0.025,0.3884 -0.026,0.5819 0,0.4329 0.021,0.8627 0.063,1.2904 0.018,0.1819 0.042,0.3619 0.068,0.5426 0.054,0.3873 0.12,0.7725 0.2082,1.1529 0.049,0.2099 0.1113,0.4153 0.1701,0.6227 0.08,0.2837 0.1665,0.565 0.2656,0.8433 0.077,0.2168 0.1589,0.4309 0.247,0.6439 0.112,0.2708 0.2364,0.5363 0.3659,0.8005 0.098,0.201 0.1919,0.4031 0.3002,0.6 0.1811,0.3291 0.3817,0.6486 0.5896,0.9648 0.07,0.1068 0.1263,0.2208 0.1995,0.326 l -11.2686,-4.9997 c -0.6342,-0.2814 -1.4982,-0.3647 -2.2712,-0.067 -0.7729,0.2979 -1.3567,0.9378 -1.6381,1.572 l -2.0934,4.7191 c -0.2814,0.6342 -0.366,1.4981 -0.068,2.2711 0.2979,0.7729 0.9408,1.3552 1.5751,1.6366 l 5.9092,2.6216 c -1.0413,1.0937 -1.9336,2.3697 -2.5844,3.8364 -1.6301,3.6741 -1.6653,7.5308 -0.2542,10.7973 0.4777,1.1057 1.1626,2.1044 1.9322,3.0474 l -3.3208,-1.4733 c -0.6343,-0.2814 -1.4981,-0.365 -2.2711,-0.067 -0.085,0.033 -0.099,0.1321 -0.1794,0.1726 -0.59,-1.3507 -1.619,-2.5157 -3.0561,-3.1533 -3.0313,-1.3449 -6.7265,0.014 -8.0868,3.0804 -1.3541,3.052 0.077,6.7033 3.1429,8.0636 1.4371,0.6375 2.9911,0.6189 4.3884,0.1499 0.024,0.086 -0.04,0.1639 -0.01,0.2486 0.04,0.1031 0.159,0.1233 0.2103,0.2196 -0.2485,0.1424 -0.5098,0.2813 -0.6734,0.4532 -1.0128,1.0339 -1.7591,2.221 -2.2727,3.3786 -0.566,1.2757 -0.7895,2.6158 -0.7901,3.9486 v 5e-4 5e-4 h -0.012 v 5e-4 6e-4 h -5e-4 -6e-4 v 10e-4 c -0.773,0.2979 -1.3546,0.9388 -1.636,1.573 l -2.094,4.7201 c -0.2469,0.5564 -0.242,1.2975 -0.06,1.9906 -0.6358,0.3305 -1.1887,0.824 -1.4356,1.3803 l -0.6873,1.5493 -3.6148,-1.6036 c -0.6343,-0.2814 -1.4971,-0.3649 -2.2701,-0.067 -0.7729,0.2978 -1.3562,0.9384 -1.6376,1.5725 l -2.019,4.5506 c -0.2814,0.6341 -0.3654,1.4982 -0.068,2.2712 0.2979,0.773 0.9392,1.3547 1.5735,1.6361 l 3.6148,1.604 -0.8372,1.8872 c -0.2448,0.5517 -0.2347,1.2854 -0.059,1.9735 -0.016,0.016 -0.046,0.026 -0.061,0.041 -1.0128,1.0339 -1.7592,2.2204 -2.2727,3.378 -0.5661,1.2758 -0.7895,2.6159 -0.7901,3.9486 v 6e-4 h -0.012 v 5e-4 5e-4 5e-4 h -5e-4 -5e-4 c -0.773,0.2979 -1.3548,0.9394 -1.6361,1.5736 l -2.0945,4.7201 c -0.2813,0.6342 -0.366,1.4957 -0.068,2.2686 0.074,0.191 0.2779,0.2391 0.3881,0.4051 -0.1793,0.03 -0.3363,-0.081 -0.51,-0.014 -0.773,0.2978 -1.3568,0.9378 -1.6382,1.572 l -2.0939,4.7206 c -0.2814,0.6343 -0.3654,1.4966 -0.067,2.2696 0.015,0.039 0.062,0.044 0.079,0.082 -1.3772,1.189 -2.6048,2.5822 -3.3967,4.3672 -1.1242,2.5339 -1.0688,7.0333 -1.1017,6.7531 -0.092,0.7465 -0.5747,2.7905 -3.0929,3.283 0.043,0 0.087,0.011 0.1313,0.018 -0.3025,-0.045 -0.594,-0.046 -0.8439,-0.01 -6.1222,0.7175 -11.7845,4.3875 -14.4172,10.3213 -4.0793,9.1991 0.6257,20.0539 10.1663,24.2869 8.0372,3.5659 17.2244,1.4676 22.3842,-4.7356 l 5e-4,-5e-4 57.3174,-129.187 1.9343,3.0552 -0.01,-0.016 c 0.3646,0.5972 1.0143,1.1718 1.8629,1.3617 0.9254,0.2072 1.9006,-0.1265 2.4918,-0.6113 4.1078,-3.3183 7.4375,-8.0746 8.0021,-13.3222 0.4318,-4.0135 -1.1599,-8.2115 -5.0214,-11.3394 l 4.8793,-10.9972 c 0.4572,-1.0305 1.0557,-1.962 1.7637,-2.7818 1.5587,-5.6284 -0.6842,-10.7783 -3.9992,-13.3475 -0.8098,-0.6272 -2.1857,-0.624 -2.8727,-0.2914 -0.6883,0.3332 -1.0009,0.7395 -1.2516,1.1198 v 0.01 l -1.3611,2.08 -0.4445,-3.9538 -0.031,-0.1374 c -0.078,-0.3397 -0.2101,-0.766 -0.5632,-1.2392 -0.336,-0.4506 -0.969,-0.8843 -1.6387,-1.0646 -1.1328,-0.3718 -2.2933,-0.5591 -3.4489,-0.5767 z m -71.9372,148.0696 c 10e-5,0 4e-4,0 5e-4,0.01 h -10e-4 v -5e-4 c 2e-4,-9e-4 3e-4,0 5e-4,-0.01 z"
         transform="translate(9.791667e-6)"
         sodipodi:nodetypes="cccccccccccccccccccccccccscccccccccccccccccscccccccccccccccccsccccccssccccccccccccccccccccccccsccccccccccccccccccccccccccccccscccccccccccccccccc" />
      <path
         d="m 1548.958,955.16496 c 7.6987,0 12.447,-5.48594 13.4151,-10.04987 0.046,-0.1844 -0.1383,-0.2766 -0.4149,-0.3227 l -4.61,-0.5071 c -0.2305,-0.0461 -0.4149,0.0461 -0.5532,0.2766 -1.7518,2.95042 -4.1951,5.07103 -7.6065,5.07103 -5.3477,0 -9.7733,-5.16323 -9.7733,-11.11017 0,-5.90084 4.4256,-11.11017 9.7733,-11.11017 3.0426,0 5.8086,1.61351 7.5604,4.01072 0.1383,0.23051 0.3688,0.32271 0.5993,0.23051 l 4.5639,-1.38301 c 0.2766,-0.0922 0.4149,-0.32271 0.2305,-0.59931 -2.7199,-4.65613 -7.6065,-7.83705 -13.1846,-7.83705 -8.6208,0 -15.5819,7.46825 -15.5819,16.64221 0,9.22006 6.9611,16.68831 15.5819,16.68831 z m 26.4615,0.0461 c 2.5817,0 4.8406,-0.82981 6.6385,-2.25892 0.2305,-0.1844 0.4149,0 0.4149,0.27661 v 0.922 c 0,0.2766 0.1844,0.46101 0.461,0.46101 h 5.1632 c 0.2766,0 0.461,-0.18441 0.461,-0.46101 v -22.08204 c 0,-0.2766 -0.1844,-0.461 -0.461,-0.461 h -5.1632 c -0.2766,0 -0.461,0.1844 -0.461,0.461 v 1.33691 c 0,0.3227 -0.1844,0.4149 -0.461,0.2305 -1.7518,-1.47521 -4.0568,-2.39722 -6.5924,-2.39722 -6.454,0 -11.1562,5.20934 -11.1562,11.80168 0,6.86894 4.3334,12.17048 11.1562,12.17048 z m 0.5993,-5.39374 c -3.5497,0 -6.0391,-2.99652 -6.0391,-6.50014 0,-3.45752 2.1206,-6.54624 6.0391,-6.54624 3.5959,0 6.4541,2.62772 6.4541,6.54624 0,3.96463 -2.8582,6.50014 -6.4541,6.50014 z m 16.6883,4.79444 h 5.1633 c 0.2766,0 0.461,-0.18441 0.461,-0.46101 v -8.85126 c 0,-4.47172 1.2447,-7.79095 4.5639,-7.79095 0.5532,0 1.1064,0.0922 1.6135,0.36881 0.2766,0.1383 0.461,0.1383 0.5993,-0.1844 l 2.2128,-4.97884 c 0.092,-0.2766 0.046,-0.5071 -0.2305,-0.5993 -0.9681,-0.3688 -2.2128,-0.5532 -3.1809,-0.5532 -1.9362,0 -3.7341,0.7837 -5.1171,2.07451 -0.2766,0.1844 -0.461,0.1383 -0.461,-0.1844 v -1.42911 c 0,-0.2766 -0.1844,-0.461 -0.461,-0.461 h -5.1633 c -0.2766,0 -0.461,0.1844 -0.461,0.461 v 22.12814 c 0,0.2766 0.1844,0.46101 0.461,0.46101 z m 27.1071,-29.9652 h -4.9789 c -0.2766,0 -0.461,0.1844 -0.461,0.461 v 6.08524 c 0,0.2305 -0.1383,0.36881 -0.3688,0.36881 h -4.1951 c -0.2766,0 -0.461,0.1844 -0.461,0.461 v 4.01072 c 0,0.27661 0.1844,0.46101 0.461,0.46101 h 4.1951 c 0.2305,0 0.3688,0.1383 0.3688,0.3688 v 17.28761 c 0,0.2766 0.1844,0.46101 0.461,0.46101 h 4.9789 c 0.2766,0 0.461,-0.18441 0.461,-0.46101 v -17.28761 c 0,-0.2305 0.1383,-0.3688 0.3688,-0.3688 h 3.8263 c 0.2766,0 0.461,-0.1844 0.461,-0.46101 v -4.01072 c 0,-0.2766 -0.1844,-0.461 -0.461,-0.461 h -3.8263 c -0.2305,0 -0.3688,-0.13831 -0.3688,-0.36881 v -6.08524 c 0,-0.2766 -0.1844,-0.461 -0.461,-0.461 z m 8.3441,29.9652 h 5.1633 c 0.2766,0 0.461,-0.18441 0.461,-0.46101 v -8.85126 c 0,-4.47172 1.2447,-7.79095 4.5639,-7.79095 0.5532,0 1.1064,0.0922 1.6135,0.36881 0.2766,0.1383 0.461,0.1383 0.5993,-0.1844 l 2.2128,-4.97884 c 0.092,-0.2766 0.046,-0.5071 -0.2305,-0.5993 -0.9681,-0.3688 -2.2128,-0.5532 -3.1809,-0.5532 -1.9362,0 -3.7341,0.7837 -5.1171,2.07451 -0.2766,0.1844 -0.461,0.1383 -0.461,-0.1844 v -1.42911 c 0,-0.2766 -0.1844,-0.461 -0.461,-0.461 h -5.1633 c -0.2766,0 -0.461,0.1844 -0.461,0.461 v 22.12814 c 0,0.2766 0.1844,0.46101 0.461,0.46101 z m 18.1175,0 h 5.1632 c 0.2766,0 0.461,-0.18441 0.461,-0.46101 v -22.12814 c 0,-0.2766 -0.1844,-0.461 -0.461,-0.461 h -5.1632 c -0.2766,0 -0.461,0.1844 -0.461,0.461 v 22.12814 c 0,0.2766 0.1844,0.46101 0.461,0.46101 z m 2.5816,-25.26297 c 1.9823,0 3.5958,-1.61351 3.5958,-3.59582 0,-2.02842 -1.5674,-3.64193 -3.5958,-3.64193 -1.9823,0 -3.5958,1.61351 -3.5958,3.64193 0,1.98231 1.6135,3.59582 3.5958,3.59582 z m 17.5181,25.63177 c 2.5816,0 4.8405,-0.92201 6.6384,-2.39722 0.2305,-0.1844 0.4149,-0.0922 0.4149,0.2305 v 1.33691 c 0,0.2766 0.1844,0.46101 0.461,0.46101 h 5.1633 c 0.2766,0 0.461,-0.18441 0.461,-0.46101 v -31.3021 c 0,-0.2766 -0.1844,-0.461 -0.461,-0.461 h -5.1633 c -0.2766,0 -0.461,0.1844 -0.461,0.461 v 10.14206 c 0,0.27661 -0.1844,0.41491 -0.461,0.23051 -1.7518,-1.38301 -4.0568,-2.21282 -6.5923,-2.21282 -6.8228,0 -11.1563,4.97883 -11.1563,11.80168 0,6.86894 4.3335,12.17048 11.1563,12.17048 z m 0.5993,-5.53204 c -3.5036,0 -6.0391,-2.62772 -6.0391,-6.54624 0,-3.96463 2.4894,-6.50014 6.0391,-6.50014 3.5958,0 6.454,2.53551 6.454,6.50014 0,3.91852 -2.8582,6.54624 -6.454,6.54624 z m 21.4366,7.92925 -2.7199,4.05683 c -0.1844,0.2305 -0.1383,0.5071 0.1383,0.6454 8.4364,4.33343 20.7452,3.68803 20.7452,-9.95766 v -20.14583 c 0,-0.2766 -0.1844,-0.461 -0.461,-0.461 l -5.1633,0.0461 c -0.2766,0 -0.461,0.1844 -0.461,0.461 v 1.29081 c 0,0.3227 -0.1844,0.4149 -0.461,0.1844 -1.7979,-1.47521 -4.0568,-2.35112 -6.5923,-2.35112 -6.5463,0 -11.1563,5.25544 -11.1563,12.21658 0,6.96115 4.61,11.80168 11.1563,11.80168 2.5355,0 4.8405,-0.82981 6.5923,-2.21282 0.2766,-0.1844 0.461,-0.1844 0.461,0 0,6.96115 -7.0533,7.69875 -11.4329,4.33343 -0.2305,-0.2305 -0.461,-0.1383 -0.6454,0.0922 z m 5.6243,-7.46825 c -3.4114,0 -5.947,-3.08872 -5.947,-6.50014 0,-3.41142 2.5356,-6.45404 5.947,-6.45404 3.5036,0 6.454,2.58162 6.454,6.45404 0,3.87243 -2.9504,6.50014 -6.454,6.50014 z m 27.4757,5.25544 c 5.9009,0 9.5428,-3.96463 10.3726,-7.32995 0.046,-0.1844 -0.1383,-0.3227 -0.4149,-0.3688 l -4.2412,-0.69151 c -0.2305,-0.0461 -0.4149,0.0461 -0.5532,0.27661 -1.2447,1.98231 -3.0887,2.99652 -5.3938,2.99652 -1.2447,0 -2.305,-0.0922 -3.4114,-1.06031 -0.2305,-0.1844 -0.1844,-0.4149 0.046,-0.5532 l 13.5535,-7.92926 c 0.1844,-0.1383 0.3227,-0.3227 0.2766,-0.5532 -0.4149,-4.97883 -5.1171,-9.12786 -10.7414,-9.12786 -6.6384,0 -11.6633,5.25543 -11.6633,12.03218 0,6.82284 5.4859,12.30878 12.1704,12.30878 z m 3.5959,-16.22731 -9.3584,5.48594 c -0.2305,0.1383 -0.4149,0.0922 -0.461,-0.1844 -0.8759,-3.91853 1.7518,-7.56045 5.3937,-7.88315 2.1207,-0.1844 3.7803,0.6915 4.564,2.07451 0.1383,0.2305 0.046,0.3688 -0.1383,0.5071 z"
         id="text1-0-6"
         style="font-size:46.1003px;line-height:0px;font-family:Cartridge;-inkscape-font-specification:Cartridge;stroke:#ffffff;stroke-width:0;paint-order:stroke fill markers"
         transform="rotate(-66.07426)"
         aria-label="Cartridge" />
    </g>
  </g>
</svg>
