<?xml version="1.0" encoding="UTF-8" standalone="no"?>
<!-- Created with Inkscape (http://www.inkscape.org/) -->

<svg
   width="262.56253mm"
   height="258.85782mm"
   viewBox="0 0 262.56253 258.85782"
   version="1.1"
   id="svg1"
   inkscape:version="1.4.3 (0d15f75, 2025-12-25)"
   sodipodi:docname="logo.black.svg"
   xmlns:inkscape="http://www.inkscape.org/namespaces/inkscape"
   xmlns:sodipodi="http://sodipodi.sourceforge.net/DTD/sodipodi-0.dtd"
   xmlns="http://www.w3.org/2000/svg"
   xmlns:svg="http://www.w3.org/2000/svg">
  <sodipodi:namedview
     id="namedview1"
     pagecolor="#ffffff"
     bordercolor="#000000"
     borderopacity="0.25"
     inkscape:showpageshadow="2"
     inkscape:pageopacity="0.0"
     inkscape:pagecheckerboard="0"
     inkscape:deskcolor="#d1d1d1"
     inkscape:document-units="mm"
     inkscape:zoom="0.48308256"
     inkscape:cx="542.35036"
     inkscape:cy="467.82894"
     inkscape:window-width="1512"
     inkscape:window-height="921"
     inkscape:window-x="0"
     inkscape:window-y="33"
     inkscape:window-maximized="0"
     inkscape:current-layer="layer1" />
  <defs
     id="defs1" />
  <g
     inkscape:label="Layer 1"
     inkscape:groupmode="layer"
     id="layer1"
     transform="translate(-1469.5413,1202.2275)">
    <path
       id="rect2-1-2"
       style="baseline-shift:baseline;display:inline;overflow:visible;vector-effect:none;fill:#000000;fill-opacity:1;stroke-width:0.925169;paint-order:stroke fill markers;enable-background:accumulate;stop-color:#000000"
       inkscape:label="outline"
       d="m 1583.3028,-1191.3391 c -3.3992,-0.041 -6.7327,1.4309 -8.9757,4.0199 v 0.014 c -0.708,0.8198 -1.3065,1.7513 -1.7637,2.7818 l -3.6187,8.9491 4.8575,3.6882 4.4611,-10.1057 c 0.8864,-1.9981 2.8495,-3.1688 4.8995,-3.1306 0.6833,0.013 1.3763,0.1598 2.0422,0.4553 l 129.6727,57.5309 c 2.0915,1.2648 3.0383,3.8138 2.2624,6.1464 l -3.2179,7.2533 c -0.3838,0.865 0.01,1.8775 0.8713,2.2613 l 8.5349,3.7869 c 2.0531,1.2354 3.0083,3.7063 2.3208,6.0006 l -60.9328,137.33636 v 0.004 c -1.1828,2.66005 -4.2756,3.8507 -6.9375,2.67168 v -10e-4 l -143.3034,-63.58064 c -2.661,-1.1823 -3.8534,-4.2748 -2.6743,-6.937 l 49.8827,-111.9106 -5.0586,-3.9919 -55.5229,124.6286 -5e-4,5e-4 c -0.01,0.01 -0.013,0.016 -0.019,0.023 l -0.1561,0.3519 c -2.5412,5.7276 0.1225,12.6373 5.8451,15.1763 v 0 l 143.3065,63.5817 v 5.2e-4 c 5.7258,2.54039 12.6375,-0.1181 15.1789,-5.84615 v -0.005 l 66.2554,-149.33297 0.1127,-0.3788 c 1.4981,-4.9989 -0.611,-10.453 -5.0829,-13.1439 l -0.3323,-0.199 -4.7486,-2.1068 1.5028,-3.3879 0.095,-0.2858 c 1.6863,-5.0698 -0.3992,-10.7054 -4.9558,-13.4607 l -0.3379,-0.2051 -130.0324,-57.6916 c -1.4319,-0.6353 -2.9379,-0.9453 -4.4313,-0.9632 z"
       sodipodi:nodetypes="ccccccccccccccccccccccccscssccccccccccccccccc" />
    <path
       sodipodi:type="spiral"
       style="display:inline;fill:none;fill-rule:evenodd;stroke:#000000;stroke-width:10;stroke-linecap:round;stroke-dasharray:none;stroke-opacity:1"
       id="path30"
       sodipodi:cx="166.14149"
       sodipodi:cy="146.17599"
       sodipodi:expansion="1"
       sodipodi:revolution="3.0373192"
       sodipodi:radius="46.59906"
       sodipodi:argument="-20.064301"
       sodipodi:t0="0.12007932"
       d="m 168.79437,151.10274 c -2.78702,3.55137 -8.19336,2.52699 -10.9567,-0.45544 -4.41909,-4.76945 -2.7671,-12.3177 2.01409,-16.15222 6.66638,-5.34643 16.47948,-3.02403 21.34773,3.57274 6.29943,8.53613 3.2895,20.65724 -5.13139,26.54325 -10.39418,7.26529 -24.8434,3.55975 -31.73876,-6.69004 -8.23841,-12.2462 -3.83289,-29.03457 8.24868,-36.93427 14.09472,-9.21603 33.22898,-4.10791 42.12979,9.80733 10.1966,15.94103 4.3842,37.4256 -11.36598,47.32531 -17.78586,11.17922 -41.62379,4.6614 -52.52082,-12.92464 -12.16333,-19.62965 -4.93927,-45.82316 14.48328,-57.71633 14.21886,-8.70675 32.5239,-8.522252 46.78382,-0.01"
       transform="matrix(0.84567091,0.37520438,-0.37520438,0.84567091,1527.7132,-1232.1167)"
       inkscape:label="twirl"
       sodipodi:insensitive="true" />
    <path
       id="rect2-4"
       style="display:inline;fill:#000000;fill-opacity:1;stroke:#8b9aa2;stroke-width:0;stroke-opacity:1"
       inkscape:label="notchies"
       d="m 1712.9262,-1106.6612 c -0.9886,-0.4386 -2.2418,0.2241 -2.799,1.4802 -0.5024,1.227 -0.1207,2.5285 0.8526,2.9069 l 12.475,5.5348 1.9464,-4.387 z m -0.958,9.4024 c -0.9886,-0.4386 -2.2418,0.224 -2.7991,1.4801 -0.5022,1.2269 -0.1203,2.5281 0.8529,2.9064 l 9.7899,4.3435 1.9462,-4.3865 z m -6.3279,7.0192 c -0.9885,-0.4386 -2.2417,0.2241 -2.799,1.4801 -0.5022,1.227 -0.1204,2.5282 0.8529,2.9064 l 12.4749,5.5348 1.9462,-4.3864 z"
       sodipodi:nodetypes="sccccssccccssccccs"
       sodipodi:insensitive="true" />
    <rect
       style="display:inline;fill:#000000;fill-opacity:1;stroke:#000000;stroke-width:0"
       id="rect17"
       width="126.26756"
       height="33.909332"
       x="983.7959"
       y="-1711.8218"
       ry="16.954666"
       inkscape:label="grippy dent"
       transform="rotate(23.92574)"
       sodipodi:insensitive="true" />
    <rect
       style="display:inline;fill:none;fill-opacity:1;stroke:#000000;stroke-width:3.33061;stroke-dasharray:none;stroke-opacity:1"
       id="rect17-9-7-6"
       width="143.05098"
       height="101.60319"
       x="975.40424"
       y="-1664.9323"
       ry="5.8307252"
       inkscape:label="label"
       transform="rotate(23.92574)"
       sodipodi:insensitive="true" />
    <path
       d="m 1548.958,955.16496 c 7.6987,0 12.447,-5.48594 13.4151,-10.04987 0.046,-0.1844 -0.1383,-0.2766 -0.4149,-0.3227 l -4.61,-0.5071 c -0.2305,-0.0461 -0.4149,0.0461 -0.5532,0.2766 -1.7518,2.95042 -4.1951,5.07103 -7.6065,5.07103 -5.3477,0 -9.7733,-5.16323 -9.7733,-11.11017 0,-5.90084 4.4256,-11.11017 9.7733,-11.11017 3.0426,0 5.8086,1.61351 7.5604,4.01072 0.1383,0.23051 0.3688,0.32271 0.5993,0.23051 l 4.5639,-1.38301 c 0.2766,-0.0922 0.4149,-0.32271 0.2305,-0.59931 -2.7199,-4.65613 -7.6065,-7.83705 -13.1846,-7.83705 -8.6208,0 -15.5819,7.46825 -15.5819,16.64221 0,9.22006 6.9611,16.68831 15.5819,16.68831 z m 26.4615,0.0461 c 2.5817,0 4.8406,-0.82981 6.6385,-2.25892 0.2305,-0.1844 0.4149,0 0.4149,0.27661 v 0.922 c 0,0.2766 0.1844,0.46101 0.461,0.46101 h 5.1632 c 0.2766,0 0.461,-0.18441 0.461,-0.46101 v -22.08204 c 0,-0.2766 -0.1844,-0.461 -0.461,-0.461 h -5.1632 c -0.2766,0 -0.461,0.1844 -0.461,0.461 v 1.33691 c 0,0.3227 -0.1844,0.4149 -0.461,0.2305 -1.7518,-1.47521 -4.0568,-2.39722 -6.5924,-2.39722 -6.454,0 -11.1562,5.20934 -11.1562,11.80168 0,6.86894 4.3334,12.17048 11.1562,12.17048 z m 0.5993,-5.39374 c -3.5497,0 -6.0391,-2.99652 -6.0391,-6.50014 0,-3.45752 2.1206,-6.54624 6.0391,-6.54624 3.5959,0 6.4541,2.62772 6.4541,6.54624 0,3.96463 -2.8582,6.50014 -6.4541,6.50014 z m 16.6883,4.79444 h 5.1633 c 0.2766,0 0.461,-0.18441 0.461,-0.46101 v -8.85126 c 0,-4.47172 1.2447,-7.79095 4.5639,-7.79095 0.5532,0 1.1064,0.0922 1.6135,0.36881 0.2766,0.1383 0.461,0.1383 0.5993,-0.1844 l 2.2128,-4.97884 c 0.092,-0.2766 0.046,-0.5071 -0.2305,-0.5993 -0.9681,-0.3688 -2.2128,-0.5532 -3.1809,-0.5532 -1.9362,0 -3.7341,0.7837 -5.1171,2.07451 -0.2766,0.1844 -0.461,0.1383 -0.461,-0.1844 v -1.42911 c 0,-0.2766 -0.1844,-0.461 -0.461,-0.461 h -5.1633 c -0.2766,0 -0.461,0.1844 -0.461,0.461 v 22.12814 c 0,0.2766 0.1844,0.46101 0.461,0.46101 z m 27.1071,-29.9652 h -4.9789 c -0.2766,0 -0.461,0.1844 -0.461,0.461 v 6.08524 c 0,0.2305 -0.1383,0.36881 -0.3688,0.36881 h -4.1951 c -0.2766,0 -0.461,0.1844 -0.461,0.461 v 4.01072 c 0,0.27661 0.1844,0.46101 0.461,0.46101 h 4.1951 c 0.2305,0 0.3688,0.1383 0.3688,0.3688 v 17.28761 c 0,0.2766 0.1844,0.46101 0.461,0.46101 h 4.9789 c 0.2766,0 0.461,-0.18441 0.461,-0.46101 v -17.28761 c 0,-0.2305 0.1383,-0.3688 0.3688,-0.3688 h 3.8263 c 0.2766,0 0.461,-0.1844 0.461,-0.46101 v -4.01072 c 0,-0.2766 -0.1844,-0.461 -0.461,-0.461 h -3.8263 c -0.2305,0 -0.3688,-0.13831 -0.3688,-0.36881 v -6.08524 c 0,-0.2766 -0.1844,-0.461 -0.461,-0.461 z m 8.3441,29.9652 h 5.1633 c 0.2766,0 0.461,-0.18441 0.461,-0.46101 v -8.85126 c 0,-4.47172 1.2447,-7.79095 4.5639,-7.79095 0.5532,0 1.1064,0.0922 1.6135,0.36881 0.2766,0.1383 0.461,0.1383 0.5993,-0.1844 l 2.2128,-4.97884 c 0.092,-0.2766 0.046,-0.5071 -0.2305,-0.5993 -0.9681,-0.3688 -2.2128,-0.5532 -3.1809,-0.5532 -1.9362,0 -3.7341,0.7837 -5.1171,2.07451 -0.2766,0.1844 -0.461,0.1383 -0.461,-0.1844 v -1.42911 c 0,-0.2766 -0.1844,-0.461 -0.461,-0.461 h -5.1633 c -0.2766,0 -0.461,0.1844 -0.461,0.461 v 22.12814 c 0,0.2766 0.1844,0.46101 0.461,0.46101 z m 18.1175,0 h 5.1632 c 0.2766,0 0.461,-0.18441 0.461,-0.46101 v -22.12814 c 0,-0.2766 -0.1844,-0.461 -0.461,-0.461 h -5.1632 c -0.2766,0 -0.461,0.1844 -0.461,0.461 v 22.12814 c 0,0.2766 0.1844,0.46101 0.461,0.46101 z m 2.5816,-25.26297 c 1.9823,0 3.5958,-1.61351 3.5958,-3.59582 0,-2.02842 -1.5674,-3.64193 -3.5958,-3.64193 -1.9823,0 -3.5958,1.61351 -3.5958,3.64193 0,1.98231 1.6135,3.59582 3.5958,3.59582 z m 17.5181,25.63177 c 2.5816,0 4.8405,-0.92201 6.6384,-2.39722 0.2305,-0.1844 0.4149,-0.0922 0.4149,0.2305 v 1.33691 c 0,0.2766 0.1844,0.46101 0.461,0.46101 h 5.1633 c 0.2766,0 0.461,-0.18441 0.461,-0.46101 v -31.3021 c 0,-0.2766 -0.1844,-0.461 -0.461,-0.461 h -5.1633 c -0.2766,0 -0.461,0.1844 -0.461,0.461 v 10.14206 c 0,0.27661 -0.1844,0.41491 -0.461,0.23051 -1.7518,-1.38301 -4.0568,-2.21282 -6.5923,-2.21282 -6.8228,0 -11.1563,4.97883 -11.1563,11.80168 0,6.86894 4.3335,12.17048 11.1563,12.17048 z m 0.5993,-5.53204 c -3.5036,0 -6.0391,-2.62772 -6.0391,-6.54624 0,-3.96463 2.4894,-6.50014 6.0391,-6.50014 3.5958,0 6.454,2.53551 6.454,6.50014 0,3.91852 -2.8582,6.54624 -6.454,6.54624 z m 21.4366,7.92925 -2.7199,4.05683 c -0.1844,0.2305 -0.1383,0.5071 0.1383,0.6454 8.4364,4.33343 20.7452,3.68803 20.7452,-9.95766 v -20.14583 c 0,-0.2766 -0.1844,-0.461 -0.461,-0.461 l -5.1633,0.0461 c -0.2766,0 -0.461,0.1844 -0.461,0.461 v 1.29081 c 0,0.3227 -0.1844,0.4149 -0.461,0.1844 -1.7979,-1.47521 -4.0568,-2.35112 -6.5923,-2.35112 -6.5463,0 -11.1563,5.25544 -11.1563,12.21658 0,6.96115 4.61,11.80168 11.1563,11.80168 2.5355,0 4.8405,-0.82981 6.5923,-2.21282 0.2766,-0.1844 0.461,-0.1844 0.461,0 0,6.96115 -7.0533,7.69875 -11.4329,4.33343 -0.2305,-0.2305 -0.461,-0.1383 -0.6454,0.0922 z m 5.6243,-7.46825 c -3.4114,0 -5.947,-3.08872 -5.947,-6.50014 0,-3.41142 2.5356,-6.45404 5.947,-6.45404 3.5036,0 6.454,2.58162 6.454,6.45404 0,3.87243 -2.9504,6.50014 -6.454,6.50014 z m 27.4757,5.25544 c 5.9009,0 9.5428,-3.96463 10.3726,-7.32995 0.046,-0.1844 -0.1383,-0.3227 -0.4149,-0.3688 l -4.2412,-0.69151 c -0.2305,-0.0461 -0.4149,0.0461 -0.5532,0.27661 -1.2447,1.98231 -3.0887,2.99652 -5.3938,2.99652 -1.2447,0 -2.305,-0.0922 -3.4114,-1.06031 -0.2305,-0.1844 -0.1844,-0.4149 0.046,-0.5532 l 13.5535,-7.92926 c 0.1844,-0.1383 0.3227,-0.3227 0.2766,-0.5532 -0.4149,-4.97883 -5.1171,-9.12786 -10.7414,-9.12786 -6.6384,0 -11.6633,5.25543 -11.6633,12.03218 0,6.82284 5.4859,12.30878 12.1704,12.30878 z m 3.5959,-16.22731 -9.3584,5.48594 c -0.2305,0.1383 -0.4149,0.0922 -0.461,-0.1844 -0.8759,-3.91853 1.7518,-7.56045 5.3937,-7.88315 2.1207,-0.1844 3.7803,0.6915 4.564,2.07451 0.1383,0.2305 0.046,0.3688 -0.1383,0.5071 z"
       id="text1-0-6"
       style="font-size:46.1003px;line-height:0px;font-family:Cartridge;-inkscape-font-specification:Cartridge;stroke:#ffffff;stroke-width:0;paint-order:stroke fill markers"
       transform="rotate(-66.07426)"
       aria-label="Cartridge"
       sodipodi:insensitive="true" />
  </g>
</svg>
