<?xml version="1.0" encoding="UTF-8" standalone="no"?>
<!-- Created with Inkscape (http://www.inkscape.org/) -->

<svg
   version="1.1"
   id="svg1"
   width="497.89966"
   height="496.89966"
   viewBox="0 0 497.89965 496.89965"
   sodipodi:docname="Classificação_Indicativa_6_anos.svg"
   inkscape:version="1.4.2 (ebf0e940d0, 2025-05-08)"
   xmlns:inkscape="http://www.inkscape.org/namespaces/inkscape"
   xmlns:sodipodi="http://sodipodi.sourceforge.net/DTD/sodipodi-0.dtd"
   xmlns="http://www.w3.org/2000/svg"
   xmlns:svg="http://www.w3.org/2000/svg">
  <defs
     id="defs1" />
  <sodipodi:namedview
     id="namedview1"
     pagecolor="#ffffff"
     bordercolor="#000000"
     borderopacity="0.25"
     inkscape:showpageshadow="2"
     inkscape:pageopacity="0.0"
     inkscape:pagecheckerboard="0"
     inkscape:deskcolor="#d1d1d1"
     inkscape:zoom="0.57642048"
     inkscape:cx="248.95021"
     inkscape:cy="248.08279"
     inkscape:window-width="1280"
     inkscape:window-height="730"
     inkscape:window-x="0"
     inkscape:window-y="0"
     inkscape:window-maximized="1"
     inkscape:current-layer="svg1">
    <inkscape:page
       x="2.5589259e-08"
       y="1.3891916e-08"
       width="497.89966"
       height="496.89966"
       id="page2"
       margin="0"
       bleed="0" />
  </sodipodi:namedview>
  <path
     d="M 248.61473,4.4619262 C 33.22867,4.4703746 28.527679,4.5650033 21.161721,9.0560828 17.024958,11.578299 11.574837,17.02842 9.052621,21.165183 4.5615416,28.531142 4.4669129,33.232133 4.4584645,248.61819 4.4490487,488.8405 3.7613725,476.44663 17.686525,486.32776 c 3.509675,2.49041 8.458339,5.05048 10.996902,5.68607 2.538562,0.63562 101.644603,1.27591 220.238923,1.4232 213.28352,0.2648 215.734,0.21667 225.44835,-4.48596 7.15883,-3.46554 11.12196,-7.44383 14.62085,-14.67157 4.77209,-9.85783 4.79741,-11.18874 4.17834,-228.90663 L 492.54786,26.37798 487.17282,18.842751 C 476.28407,3.5764767 490.82693,4.4524256 248.61473,4.4619262 Z"
     id="path4"
     sodipodi:nodetypes="ssssssssscccs"
     style="stroke-width:1.73084;fill:#ffffff" />
  <path
     d="m 36.449219,8.9003906 c -13.720118,0 -27.5488284,8.8299444 -27.5488284,23.5488284 V 462.44922 C 8.9003906,475.71404 23.085088,488 36.449219,488 H 464.44922 C 479.92501,488 489.01689,473.88052 489,459.45508 L 488.5,32.455078 C 488.48645,20.885614 477.63246,8.9003893 466.44922,8.9003906 Z"
     style="baseline-shift:baseline;clip-rule:evenodd;display:inline;overflow:visible;vector-effect:none;fill:#e33493;fill-rule:evenodd;image-rendering:optimizeQuality;shape-rendering:geometricPrecision;text-rendering:geometricPrecision;enable-background:accumulate;stop-color:#000000;stop-opacity:1"
     id="path1" />
  <path
     d="M 36.449219,0 C 16.751879,0 0,13.64509 0,32.449219 V 462.44922 c 0,18.27354 18.136084,34.45117 36.449219,34.45117 H 464.44922 c 19.46004,0 33.47518,-16.95172 33.45117,-37.45508 l -0.5,-426.999998 C 497.38077,15.692434 483.45761,-2.0512657e-6 466.44922,0 Z m 0,8.9003906 H 466.44922 C 477.63246,8.9003893 488.48645,20.885614 488.5,32.455078 L 489,459.45508 C 489.01689,473.88182 479.92398,488 464.44922,488 H 36.449219 C 23.085274,488 8.9003906,475.7142 8.9003906,462.44922 V 32.449219 c 0,-14.71934 13.8292924,-23.5488284 27.5488284,-23.5488284 z"
     style="baseline-shift:baseline;clip-rule:evenodd;display:inline;overflow:visible;vector-effect:none;fill:#ffffff;fill-rule:evenodd;image-rendering:optimizeQuality;shape-rendering:geometricPrecision;text-rendering:geometricPrecision;enable-background:accumulate;stop-color:#000000;stop-opacity:1"
     id="path2" />
  <path
     id="path8"
     style="font-weight:bold;font-size:192px;line-height:0;font-family:'Roboto Condensed';-inkscape-font-specification:'Roboto Condensed,  Bold';letter-spacing:3.47px;fill:#ffffff;fill-rule:evenodd;stroke-width:1.53777"
     d="m 277.94254,139.99534 c -14.70494,0 -27.72795,2.83527 -39.069,8.5058 -11.24496,5.57443 -20.75993,13.50357 -28.54491,23.78741 -7.68884,10.28386 -13.50354,22.48991 -17.44408,36.61819 -3.94055,14.03217 -5.91081,29.506 -5.91081,46.42149 v 16.29076 c 0,12.30217 1.44166,23.54713 4.32498,33.73487 2.88331,10.18773 7.06413,19.02992 12.54244,26.52656 5.57442,7.40052 12.20608,13.11911 19.89492,17.15577 7.78498,4.03664 16.48299,6.05497 26.09407,6.05497 9.41886,0 17.8766,-1.8261 25.37323,-5.47831 7.59275,-3.65221 14.03218,-8.74608 19.31826,-15.2816 5.2861,-6.53554 9.37081,-14.17634 12.25412,-22.92241 2.88332,-8.74608 4.32498,-18.21298 4.32498,-28.40073 0,-9.80329 -1.05721,-18.98187 -3.17165,-27.53572 -2.01833,-8.55385 -5.14192,-16.09855 -9.37079,-22.63407 -4.13277,-6.53554 -9.37081,-11.67746 -15.71412,-15.42578 -6.2472,-3.74832 -13.50354,-5.62247 -21.76907,-5.62247 -7.20831,0 -13.69579,1.48971 -19.46242,4.46914 -5.10031,2.55015 -9.56121,6.00438 -13.38342,10.35894 0.55194,-4.45598 1.36064,-8.67911 2.42679,-12.66559 2.21055,-8.36164 5.52637,-15.47382 9.94747,-21.33659 4.51721,-5.95885 10.13968,-10.47606 16.86742,-13.55161 6.82386,-3.17166 14.80105,-4.75748 23.93158,-4.75748 h 1.87415 V 139.99534 Z M 248.53267,245.2366 c 3.36386,0 6.39136,0.9611 9.08244,2.88332 2.78722,1.8261 5.14194,4.42109 7.06416,7.78497 1.92221,3.36387 3.41193,7.40053 4.46914,12.10995 1.05721,4.61332 1.58583,9.70719 1.58583,15.28161 0,5.57442 -0.52862,10.66828 -1.58583,15.2816 -0.96111,4.51721 -2.40276,8.5058 -4.32498,11.96578 -1.92222,3.36389 -4.22887,6.00693 -6.91997,7.92914 -2.69111,1.92222 -5.67054,2.88332 -8.93831,2.88332 -3.17166,0 -6.10302,-0.91305 -8.79412,-2.73916 -2.595,-1.8261 -4.90165,-4.56525 -6.91998,-8.21746 -1.92222,-3.74832 -3.41193,-8.40969 -4.46914,-13.98411 -0.96112,-5.57442 -1.44167,-12.01385 -1.44167,-19.31826 v -14.23039 c 0.22418,-0.64366 0.46445,-1.282 0.72082,-1.91621 1.82612,-4.6133 4.46917,-8.36162 7.92914,-11.24496 3.46,-2.97943 7.6408,-4.46914 12.54247,-4.46914 z" />
</svg>
