<?xml version="1.0" encoding="UTF-8" standalone="no"?>
<!-- Created with Inkscape (http://www.inkscape.org/) -->

<svg
   version="1.1"
   id="svg1"
   width="497.89999"
   height="497.93631"
   viewBox="0 0 497.89999 497.9363"
   sodipodi:docname="Classificação_Indicativa_10_anos.svg"
   inkscape:version="1.4.2 (ebf0e940d0, 2025-05-08)"
   xmlns:inkscape="http://www.inkscape.org/namespaces/inkscape"
   xmlns:sodipodi="http://sodipodi.sourceforge.net/DTD/sodipodi-0.dtd"
   xmlns="http://www.w3.org/2000/svg"
   xmlns:svg="http://www.w3.org/2000/svg">
  <defs
     id="defs1" />
  <sodipodi:namedview
     id="namedview1"
     pagecolor="#ffffff"
     bordercolor="#000000"
     borderopacity="0.25"
     inkscape:showpageshadow="2"
     inkscape:pageopacity="0.0"
     inkscape:pagecheckerboard="0"
     inkscape:deskcolor="#d1d1d1"
     inkscape:zoom="1.6626104"
     inkscape:cx="145.25351"
     inkscape:cy="454.10518"
     inkscape:window-width="1280"
     inkscape:window-height="730"
     inkscape:window-x="0"
     inkscape:window-y="0"
     inkscape:window-maximized="1"
     inkscape:current-layer="svg1">
    <inkscape:page
       x="0"
       y="0"
       width="497.89999"
       height="497.93631"
       id="page2"
       margin="0"
       bleed="0" />
  </sodipodi:namedview>
  <path
     d="m 36.449219,8.9003906 c -14.814274,0 -27.5488284,9.5166084 -27.5488284,23.6093754 V 463.42187 c 0,13.30044 14.1850484,25.61524 27.5488284,25.61524 H 464.44922 c 15.47871,0 24.56767,-14.16238 24.55078,-28.61524 L 488.5,32.515625 C 488.48644,20.910294 477.62629,8.9003893 466.44922,8.9003906 Z"
     style="baseline-shift:baseline;clip-rule:evenodd;display:inline;overflow:visible;vector-effect:none;fill:#0095da;fill-rule:evenodd;image-rendering:optimizeQuality;shape-rendering:geometricPrecision;text-rendering:geometricPrecision;enable-background:accumulate;stop-color:#000000;stop-opacity:1"
     id="path7" />
  <path
     d="M 36.449219,0 C 17.652374,0 0,13.044067 0,32.509766 V 463.42187 c 0,18.30471 18.132102,34.51368 36.449219,34.51368 H 464.44922 c 19.46649,0 33.47517,-16.98974 33.45117,-37.52539 l -0.5,-427.906254 C 497.38079,15.726727 483.46381,-2.0520114e-6 466.44922,0 Z m 0,8.9003906 H 466.44922 C 477.62629,8.9003893 488.48644,20.910294 488.5,32.515625 L 489,460.42187 c 0.0169,14.45181 -9.07146,28.61524 -24.55078,28.61524 H 36.449219 c -13.363673,0 -27.5488284,-12.3147 -27.5488284,-25.61524 V 32.509766 c 0,-14.092767 12.7345544,-23.6093754 27.5488284,-23.6093754 z"
     style="baseline-shift:baseline;clip-rule:evenodd;display:inline;overflow:visible;vector-effect:none;fill:#ffffff;fill-rule:evenodd;image-rendering:optimizeQuality;shape-rendering:geometricPrecision;text-rendering:geometricPrecision;enable-background:accumulate;stop-color:#000000;stop-opacity:1"
     id="path11"
     sodipodi:nodetypes="ssssssssssssssssss" />
  <path
     style="font-weight:bold;font-size:192px;line-height:0;font-family:'Roboto Condensed';-inkscape-font-specification:'Roboto Condensed,  Bold';letter-spacing:3.47px;fill:#ffffff;fill-rule:evenodd;stroke-width:1.60575"
     d="m 383.8853,229.81332 v 38.17362 q 0,24.74495 -4.65602,42.54924 -4.65604,17.80431 -13.06693,29.27148 -8.4109,11.31628 -19.97588,16.7481 -11.56498,5.43182 -25.53307,5.43182 -11.11439,0 -20.87704,-3.47033 -9.76263,-3.47031 -17.72295,-10.56187 -7.81012,-7.24242 -13.51751,-18.25695 -5.55721,-11.16539 -8.56109,-26.40467 -3.00389,-15.39014 -3.00389,-35.30682 v -38.17362 q 0,-24.74495 4.65602,-42.39836 4.80624,-17.80429 13.21712,-29.12058 8.4109,-11.31629 19.97588,-16.59723 11.71518,-5.43182 25.68327,-5.43182 10.9642,0 20.72685,3.47033 9.76263,3.31945 17.57275,10.41099 7.81013,7.09154 13.36732,18.25695 5.70738,11.01453 8.71129,26.40467 3.00388,15.23927 3.00388,35.00505 z m -42.20466,44.0581 v -50.24433 q 0,-11.61806 -1.05136,-20.36933 -0.90116,-8.75126 -2.70351,-14.78661 -1.65214,-6.03535 -4.35564,-9.80746 -2.5533,-3.77209 -5.85758,-5.43182 -3.30429,-1.8106 -7.20934,-1.8106 -4.95641,0 -8.86148,2.7159 -3.90506,2.71592 -6.75875,8.90216 -2.85369,6.03535 -4.35565,16.14457 -1.35175,9.95834 -1.35175,24.44319 v 50.24433 q 0,11.61805 0.90117,20.52021 1.05136,8.90213 2.8537,15.23925 1.95253,6.18624 4.35564,9.95834 2.5533,3.77209 5.85758,5.58271 3.45449,1.65972 7.50973,1.65972 4.80622,0 8.71129,-2.71591 4.05525,-2.8668 6.75875,-9.05304 2.70349,-6.18623 4.05526,-16.29546 1.50194,-10.26009 1.50194,-24.89582 z"
     id="path5" />
  <path
     style="font-weight:bold;font-size:192px;line-height:0;font-family:'Roboto Condensed';-inkscape-font-specification:'Roboto Condensed,  Bold';letter-spacing:3.47px;fill:#ffffff;fill-rule:evenodd;stroke-width:1.64551"
     d="m 198.20622,138.24959 v 221.4337 H 154.14444 V 190.45876 l -43.59137,16.2395 v -35.51439 l 82.79225,-32.93428 z"
     id="text5" />
</svg>
