<?xml version="1.0" encoding="UTF-8" standalone="no"?>
<!-- Created with Inkscape (http://www.inkscape.org/) -->

<svg
   version="1.1"
   id="svg1"
   width="497.89999"
   height="497.55917"
   viewBox="0 0 497.9 497.55916"
   sodipodi:docname="Classificação_Indicativa_16_anos.svg"
   inkscape:version="1.4.2 (ebf0e940d0, 2025-05-08)"
   xmlns:inkscape="http://www.inkscape.org/namespaces/inkscape"
   xmlns:sodipodi="http://sodipodi.sourceforge.net/DTD/sodipodi-0.dtd"
   xmlns="http://www.w3.org/2000/svg"
   xmlns:svg="http://www.w3.org/2000/svg">
  <defs
     id="defs1" />
  <sodipodi:namedview
     id="namedview1"
     pagecolor="#ffffff"
     bordercolor="#000000"
     borderopacity="0.25"
     inkscape:showpageshadow="2"
     inkscape:pageopacity="0.0"
     inkscape:pagecheckerboard="0"
     inkscape:deskcolor="#d1d1d1"
     inkscape:zoom="1.6640231"
     inkscape:cx="145.43068"
     inkscape:cy="145.43068"
     inkscape:window-width="1280"
     inkscape:window-height="730"
     inkscape:window-x="0"
     inkscape:window-y="0"
     inkscape:window-maximized="1"
     inkscape:current-layer="svg1">
    <inkscape:page
       x="3.9021518e-08"
       y="5.2888858e-09"
       width="497.89999"
       height="497.55917"
       id="page2"
       margin="0"
       bleed="0" />
  </sodipodi:namedview>
  <path
     d="M 36.449998,4.4500242 C 19.644439,4.4500259 4.4499998,15.721554 4.4499998,32.487845 V 463.06865 c 0,15.80302 16.1354952,30.04053 31.9999982,30.04053 H 464.44999 c 17.4432,0 29.02055,-15.45049 28.99998,-33.04458 L 492.94998,32.48782 c -0.0173,-14.180309 -12.40418,-28.0378218 -26.5,-28.0378201 z"
     style="clip-rule:evenodd;display:inline;fill:#eb1c24;fill-opacity:1;fill-rule:evenodd;stroke:#ffffff;stroke-width:8.9;stroke-dasharray:none;stroke-opacity:1;image-rendering:optimizeQuality;shape-rendering:geometricPrecision;text-rendering:geometricPrecision"
     id="path9"
     sodipodi:nodetypes="sssssssss" />
  <path
     id="path7"
     style="font-weight:bold;font-size:192px;line-height:0;font-family:'Roboto Condensed';-inkscape-font-specification:'Roboto Condensed,  Bold';letter-spacing:3.47px;fill:#ffffff;fill-rule:evenodd;stroke-width:1.60321"
     d="m 352.62288,135.9365 c -15.26833,0 -28.7903,2.96797 -40.56586,8.90392 -11.6758,5.83535 -21.55531,14.13561 -29.63855,24.90082 -7.98344,10.7652 -14.02092,23.54257 -18.11244,38.33216 -4.09151,14.68896 -6.13727,30.88706 -6.13727,48.59431 v 17.05328 c 0,12.87799 1.49689,24.64929 4.49068,35.31388 2.99379,10.66459 7.3348,19.92065 13.023,27.76818 5.788,7.74691 12.67372,13.73316 20.65717,17.95876 8.08323,4.22559 17.1145,6.33839 27.09381,6.33839 9.77972,0 18.5615,-1.91157 26.34536,-5.73473 7.88365,-3.82316 14.56978,-9.15546 20.0584,-15.99689 5.48861,-6.84143 9.72983,-14.83988 12.72362,-23.99532 2.99379,-9.15546 4.49068,-19.06547 4.49068,-29.73006 0,-10.26216 -1.09772,-19.87035 -3.29316,-28.82458 -2.09566,-8.95423 -5.33894,-16.85207 -9.72983,-23.6935 -4.2911,-6.84143 -9.72983,-12.22404 -16.31616,-16.14781 -6.48656,-3.92376 -14.02093,-5.88564 -22.60314,-5.88564 -7.48447,0 -14.2205,1.55945 -20.20809,4.67834 -5.29572,2.6695 -9.92754,6.28229 -13.89616,10.84065 0.57309,-4.66456 1.41277,-9.08219 2.51976,-13.25528 2.29524,-8.753 5.73811,-16.1981 10.32858,-22.33526 4.69028,-6.23779 10.52817,-10.96643 17.51369,-14.18593 7.0853,-3.3201 15.36812,-4.98017 24.84845,-4.98017 h 1.94597 V 135.9365 Z M 322.0862,246.10372 c 3.49277,0 6.63625,1.0061 9.43045,3.01829 2.894,1.91157 5.33893,4.62803 7.33479,8.14934 1.99586,3.52133 3.54266,7.74693 4.64038,12.67679 1.09772,4.82924 1.64658,10.16153 1.64658,15.99689 0,5.83533 -0.54886,11.16763 -1.64658,15.99687 -0.99793,4.72865 -2.49483,8.90394 -4.49069,12.52587 -1.99587,3.52133 -4.39089,6.28808 -7.1851,8.30027 -2.79421,2.01218 -5.88779,3.01828 -9.28075,3.01828 -3.29317,0 -6.33685,-0.95579 -9.13106,-2.86736 -2.69442,-1.91159 -5.08945,-4.77895 -7.1851,-8.60211 -1.99586,-3.92376 -3.54266,-8.80331 -4.64038,-14.63865 -0.99793,-5.83535 -1.49689,-12.57616 -1.49689,-20.22248 v -14.89647 c 0.23276,-0.6738 0.48224,-1.34201 0.74843,-2.0059 1.89607,-4.82925 4.64039,-8.75302 8.23294,-11.77129 3.59254,-3.11889 7.93354,-4.67834 13.02298,-4.67834 z" />
  <path
     style="font-weight:bold;font-size:192px;line-height:0;font-family:'Roboto Condensed';-inkscape-font-specification:'Roboto Condensed,  Bold';letter-spacing:3.47px;fill:#ffffff;fill-rule:evenodd;stroke-width:1.61214"
     d="M 195.88569,138.32401 V 357.38744 H 153.13545 V 189.97433 l -42.29384,16.06566 v -35.13423 l 80.32786,-32.58175 z"
     id="text5" />
</svg>
