<?xml version="1.0" encoding="UTF-8" standalone="no"?>
<!-- Created with Inkscape (http://www.inkscape.org/) -->

<svg
   version="1.1"
   id="svg1"
   width="497.89999"
   height="497.5383"
   viewBox="0 0 497.89999 497.53828"
   sodipodi:docname="Classificação_Indicativa_12_anos.svg"
   inkscape:version="1.4.2 (ebf0e940d0, 2025-05-08)"
   xmlns:inkscape="http://www.inkscape.org/namespaces/inkscape"
   xmlns:sodipodi="http://sodipodi.sourceforge.net/DTD/sodipodi-0.dtd"
   xmlns="http://www.w3.org/2000/svg"
   xmlns:svg="http://www.w3.org/2000/svg">
  <defs
     id="defs1" />
  <sodipodi:namedview
     id="namedview1"
     pagecolor="#ffffff"
     bordercolor="#000000"
     borderopacity="0.25"
     inkscape:showpageshadow="2"
     inkscape:pageopacity="0.0"
     inkscape:pagecheckerboard="0"
     inkscape:deskcolor="#d1d1d1"
     inkscape:zoom="0.97970085"
     inkscape:cx="248.54526"
     inkscape:cy="249.05562"
     inkscape:window-width="1280"
     inkscape:window-height="730"
     inkscape:window-x="0"
     inkscape:window-y="0"
     inkscape:window-maximized="1"
     inkscape:current-layer="svg1">
    <inkscape:page
       x="0"
       y="0"
       width="497.89999"
       height="497.53827"
       id="page2"
       margin="0"
       bleed="0" />
  </sodipodi:namedview>
  <path
     d="m 36.449219,8.9003906 c -7.407947,8e-7 -14.431118,2.5164504 -19.453125,6.6992184 -5.022007,4.182768 -8.0957034,9.848259 -8.0957034,16.886719 V 463.04883 c 0,6.38657 3.3431884,12.82237 8.6132814,17.66992 5.270092,4.84755 12.334446,7.91992 18.935547,7.91992 H 464.44922 c 7.40777,0 13.30775,-3.15664 17.63672,-8.33008 C 486.4149,475.13516 489.009,467.8698 489,460.05078 L 488.5,32.492187 C 488.48586,20.900517 477.62864,8.9003893 466.44922,8.9003906 Z"
     style="baseline-shift:baseline;clip-rule:evenodd;display:inline;overflow:visible;vector-effect:none;fill:#fcc114;fill-rule:evenodd;image-rendering:optimizeQuality;shape-rendering:geometricPrecision;text-rendering:geometricPrecision;enable-background:accumulate;stop-color:#000000;stop-opacity:1"
     id="path4" />
  <path
     d="M 36.449219,0 C 27.051607,9.5063428e-7 18.077384,3.1175694 11.300781,8.7617188 4.5241786,14.405868 0,22.759214 0,32.486328 V 463.04883 c 0,9.41578 4.7245003,17.99922 11.488281,24.2207 6.763781,6.22148 15.697535,10.26953 24.960938,10.26953 H 464.44922 c 10.03542,0 18.64751,-4.56971 24.46289,-11.51953 5.81537,-6.94981 8.99971,-16.20618 8.98828,-25.98047 l -0.5,-427.558591 C 497.37993,15.712733 483.46142,-2.0517259e-6 466.44922,0 Z m 0,8.9003906 H 466.44922 C 477.62864,8.9003893 488.48586,20.900517 488.5,32.492187 L 489,460.05078 c 0.009,7.81902 -2.5851,15.08438 -6.91406,20.25781 -4.32897,5.17344 -10.22895,8.33008 -17.63672,8.33008 H 36.449219 c -6.601101,0 -13.665455,-3.07237 -18.935547,-7.91992 C 12.243579,475.8712 8.9003906,469.4354 8.9003906,463.04883 V 32.486328 c 0,-7.03846 3.0736964,-12.703951 8.0957034,-16.886719 5.022007,-4.182768 12.045178,-6.6992176 19.453125,-6.6992184 z"
     style="baseline-shift:baseline;clip-rule:evenodd;display:inline;overflow:visible;vector-effect:none;fill:#ffffff;fill-rule:evenodd;image-rendering:optimizeQuality;shape-rendering:geometricPrecision;text-rendering:geometricPrecision;enable-background:accumulate;stop-color:#000000;stop-opacity:1"
     id="path3" />
  <path
     style="font-weight:bold;font-size:192px;line-height:0;font-family:'Roboto Condensed';-inkscape-font-specification:'Roboto Condensed,  Bold';letter-spacing:3.47px;fill:#ffffff;fill-rule:evenodd;stroke-width:1.62185"
     d="M 387.23076,326.56989 V 361.8602 H 256.26654 v -30.14065 l 60.13975,-75.88171 q 8.70042,-11.81392 13.58486,-20.90155 4.88445,-9.08764 7.0214,-16.20629 2.13695,-7.2701 2.13695,-13.7829 0,-9.69347 -2.28959,-16.66065 -2.28958,-7.11865 -6.86876,-10.90516 -4.42653,-3.93797 -10.98999,-3.93797 -7.93722,0 -13.12695,4.84673 -5.18973,4.84674 -7.78459,13.32853 -2.44223,8.33033 -2.44223,18.93256 h -42.89154 q 0,-19.68987 8.08987,-36.19905 8.2425,-16.66067 23.04848,-26.35414 14.95862,-9.84493 35.87015,-9.84493 20.30097,0 34.19113,7.57302 13.89014,7.57303 20.91153,21.65886 7.17403,13.93436 7.17403,33.47278 0,10.90515 -2.90015,21.35593 -2.90014,10.2993 -8.2425,20.59862 -5.34235,10.14786 -13.27959,20.75009 -7.78457,10.60225 -17.40083,21.96178 l -29.0014,41.04579 z"
     id="path5" />
  <path
     style="font-weight:bold;font-size:192px;line-height:0;font-family:'Roboto Condensed';-inkscape-font-specification:'Roboto Condensed,  Bold';letter-spacing:3.47px;fill:#ffffff;fill-rule:evenodd;stroke-width:1.64632"
     d="M 198.0081,140.30776 V 361.8602 H 153.92683 V 192.54493 l -43.61065,16.2482 v -35.53344 l 82.82887,-32.95193 z"
     id="text4" />
</svg>
