<?xml version="1.0" encoding="UTF-8" standalone="no"?>
<!-- Created with Inkscape (http://www.inkscape.org/) -->

<svg
   version="1.1"
   id="svg1"
   width="489"
   height="491.27625"
   viewBox="0 0 489 491.27624"
   sodipodi:docname="Classificação_Indicativa_18_anos.svg"
   inkscape:version="1.4.2 (ebf0e940d0, 2025-05-08)"
   xmlns:inkscape="http://www.inkscape.org/namespaces/inkscape"
   xmlns:sodipodi="http://sodipodi.sourceforge.net/DTD/sodipodi-0.dtd"
   xmlns="http://www.w3.org/2000/svg"
   xmlns:svg="http://www.w3.org/2000/svg">
  <defs
     id="defs1" />
  <sodipodi:namedview
     id="namedview1"
     pagecolor="#ffffff"
     bordercolor="#000000"
     borderopacity="0.25"
     inkscape:showpageshadow="2"
     inkscape:pageopacity="0.0"
     inkscape:pagecheckerboard="0"
     inkscape:deskcolor="#d1d1d1"
     inkscape:zoom="1.6559262"
     inkscape:cx="145.53789"
     inkscape:cy="146.14178"
     inkscape:window-width="1280"
     inkscape:window-height="730"
     inkscape:window-x="0"
     inkscape:window-y="0"
     inkscape:window-maximized="1"
     inkscape:current-layer="svg1">
    <inkscape:page
       x="0"
       y="0"
       width="489"
       height="491.27625"
       id="page2"
       margin="0"
       bleed="0" />
  </sodipodi:namedview>
  <path
     d="M 239.7039,7.625072 28.079156,8.2969902 19.937473,14.511415 C 14.850678,18.39169 10.886366,23.849878 9.3768845,29.054346 7.7004339,34.834501 7.1644461,102.6095 7.6266194,250.34817 8.2877888,461.6981 8.3275286,463.3574 12.926579,469.62624 c 2.548777,3.47417 8.087789,8.07782 12.307576,10.22954 7.143605,3.64262 22.210439,3.91356 218.632365,3.9168 230.78472,0.003 219.90797,0.62619 231.61841,-13.29089 l 6.04728,-7.18788 V 245.38253 27.47452 l -6.91913,-7.882748 C 470.80701,15.256885 464.01047,10.640518 459.50967,9.3327276 453.91416,7.7068493 384.40606,7.1655761 239.7039,7.625072 Z"
     id="path2"
     sodipodi:nodetypes="cccssssccccccsc"
     style="stroke:#ffffff;stroke-width:14.9356;stroke-dasharray:none;stroke-opacity:1" />
  <path
     d="m 38.490612,7.4679797 c -16.292258,0 -31.0226046,10.9866693 -31.0226046,27.3292343 V 454.49621 c 0,15.40363 15.6426596,29.28132 31.0226046,29.28132 H 453.41794 c 16.91044,0 28.13419,-15.06003 28.11423,-32.20945 L 481.04745,34.79719 C 481.03067,20.975252 469.02213,7.4679529 455.35685,7.4679546 Z"
     style="clip-rule:evenodd;fill:#000000;fill-rule:evenodd;stroke-width:0.972745;image-rendering:optimizeQuality;shape-rendering:geometricPrecision;text-rendering:geometricPrecision"
     id="path9"
     sodipodi:nodetypes="sssssssss" />
  <path
     id="path10"
     style="font-weight:bold;font-size:192px;line-height:0;font-family:'Roboto Condensed';-inkscape-font-specification:'Roboto Condensed,  Bold';letter-spacing:3.47px;fill:#ffffff;fill-rule:evenodd;stroke-width:1.61133"
     d="m 321.51031,136.95789 c -12.06176,0 -22.76001,2.27239 -32.09475,6.81719 -9.33475,4.54481 -16.67669,11.21696 -22.02581,20.01647 -5.24424,8.7995 -7.86636,19.58131 -7.86636,32.34544 0,10.83015 2.62212,20.35488 7.86636,28.57421 4.63161,7.25915 10.86034,13.12456 18.6826,17.59297 -4.33498,2.23591 -8.30869,4.92828 -11.91753,8.08031 -5.87355,5.22169 -10.43604,11.41034 -13.68747,18.56599 -3.25143,7.15564 -4.87714,15.22991 -4.87714,24.22281 0,13.3443 2.88433,24.56126 8.653,33.65086 5.76866,8.99289 13.63502,15.8101 23.59908,20.45159 9.96405,4.5448 21.23917,6.8172 33.82534,6.8172 12.58618,0 23.80885,-2.2724 33.66802,-6.8172 9.96406,-4.64149 17.72554,-11.4587 23.28443,-20.45159 5.66378,-9.0896 8.49567,-20.30656 8.49567,-33.65086 0,-11.99053 -2.83189,-22.38555 -8.49567,-31.18507 -5.27854,-8.35569 -12.54253,-14.92428 -21.7931,-19.70518 7.80645,-4.46601 14.02159,-10.3231 18.64656,-17.57183 5.24424,-8.21933 7.86636,-17.74406 7.86636,-28.57421 0,-12.76413 -2.62212,-23.54594 -7.86636,-32.34544 -5.24424,-8.79951 -12.53374,-15.47166 -21.86849,-20.01647 -9.33474,-4.5448 -20.03299,-6.81719 -32.09474,-6.81719 z m 0,33.7959 c 4.0905,0 7.39437,1.16038 9.91161,3.48112 2.62212,2.22406 4.56249,5.41509 5.82111,9.5731 1.3635,4.0613 2.04525,8.84784 2.04525,14.35963 0,5.51177 -0.68175,10.34666 -2.04525,14.50468 -1.25862,4.158 -3.19899,7.44573 -5.82111,9.86318 -2.51724,2.32074 -5.76866,3.48112 -9.75429,3.48112 -3.98562,0 -7.34193,-1.16038 -10.06894,-3.48112 -2.62212,-2.41745 -4.61493,-5.70518 -5.97843,-9.86318 -1.25862,-4.15802 -1.88793,-8.99291 -1.88793,-14.50468 0,-5.70518 0.62931,-10.58841 1.88793,-14.64974 1.3635,-4.158 3.35631,-7.30068 5.97843,-9.42804 2.72701,-2.22404 6.03088,-3.33607 9.91162,-3.33607 z m -0.15725,89.05873 c 4.40516,0 8.23346,1.20872 11.48489,3.62616 3.25143,2.41745 5.71622,5.89857 7.39438,10.44337 1.78304,4.54482 2.67456,10.00824 2.67456,16.39029 0,6.18867 -0.83908,11.50705 -2.51724,15.95516 -1.57327,4.44809 -3.98562,7.92922 -7.23705,10.44335 -3.14654,2.41745 -6.97484,3.62618 -11.48488,3.62618 -4.51005,0 -8.44323,-1.20873 -11.79954,-3.62618 -3.25143,-2.51413 -5.76867,-5.99526 -7.55171,-10.44335 -1.67816,-4.44811 -2.51723,-9.76649 -2.51723,-15.95516 0,-6.38205 0.89152,-11.84547 2.67456,-16.39029 1.78304,-4.5448 4.24783,-8.02592 7.39438,-10.44337 3.25143,-2.41744 7.07972,-3.62616 11.48488,-3.62616 z" />
  <path
     style="font-weight:bold;font-size:192px;line-height:0;font-family:'Roboto Condensed';-inkscape-font-specification:'Roboto Condensed,  Bold';letter-spacing:3.47px;fill:#ffffff;fill-rule:evenodd;stroke-width:1.56694"
     d="M 195.1279,139.17642 V 351.76197 H 153.51064 V 189.29941 l -41.17293,15.59058 v -34.09531 l 78.19897,-31.61826 z"
     id="text6" />
</svg>
